%TF.GenerationSoftware,KiCad,Pcbnew,7.0.9*%
%TF.CreationDate,2023-12-16T00:05:46+09:00*%
%TF.ProjectId,Focus,466f6375-732e-46b6-9963-61645f706362,rev?*%
%TF.SameCoordinates,Original*%
%TF.FileFunction,Legend,Top*%
%TF.FilePolarity,Positive*%
%FSLAX46Y46*%
G04 Gerber Fmt 4.6, Leading zero omitted, Abs format (unit mm)*
G04 Created by KiCad (PCBNEW 7.0.9) date 2023-12-16 00:05:46*
%MOMM*%
%LPD*%
G01*
G04 APERTURE LIST*
%ADD10C,0.150000*%
%ADD11C,0.100000*%
%ADD12C,0.120000*%
G04 APERTURE END LIST*
D10*
X103472493Y-102419819D02*
X103472493Y-103134104D01*
X103472493Y-103134104D02*
X103424874Y-103276961D01*
X103424874Y-103276961D02*
X103329636Y-103372200D01*
X103329636Y-103372200D02*
X103186779Y-103419819D01*
X103186779Y-103419819D02*
X103091541Y-103419819D01*
X104424874Y-103419819D02*
X103948684Y-103419819D01*
X103948684Y-103419819D02*
X103948684Y-102419819D01*
X105329636Y-103324580D02*
X105282017Y-103372200D01*
X105282017Y-103372200D02*
X105139160Y-103419819D01*
X105139160Y-103419819D02*
X105043922Y-103419819D01*
X105043922Y-103419819D02*
X104901065Y-103372200D01*
X104901065Y-103372200D02*
X104805827Y-103276961D01*
X104805827Y-103276961D02*
X104758208Y-103181723D01*
X104758208Y-103181723D02*
X104710589Y-102991247D01*
X104710589Y-102991247D02*
X104710589Y-102848390D01*
X104710589Y-102848390D02*
X104758208Y-102657914D01*
X104758208Y-102657914D02*
X104805827Y-102562676D01*
X104805827Y-102562676D02*
X104901065Y-102467438D01*
X104901065Y-102467438D02*
X105043922Y-102419819D01*
X105043922Y-102419819D02*
X105139160Y-102419819D01*
X105139160Y-102419819D02*
X105282017Y-102467438D01*
X105282017Y-102467438D02*
X105329636Y-102515057D01*
X106043922Y-102419819D02*
X106043922Y-103134104D01*
X106043922Y-103134104D02*
X105996303Y-103276961D01*
X105996303Y-103276961D02*
X105901065Y-103372200D01*
X105901065Y-103372200D02*
X105758208Y-103419819D01*
X105758208Y-103419819D02*
X105662970Y-103419819D01*
X106996303Y-103419819D02*
X106520113Y-103419819D01*
X106520113Y-103419819D02*
X106520113Y-102419819D01*
X107901065Y-103324580D02*
X107853446Y-103372200D01*
X107853446Y-103372200D02*
X107710589Y-103419819D01*
X107710589Y-103419819D02*
X107615351Y-103419819D01*
X107615351Y-103419819D02*
X107472494Y-103372200D01*
X107472494Y-103372200D02*
X107377256Y-103276961D01*
X107377256Y-103276961D02*
X107329637Y-103181723D01*
X107329637Y-103181723D02*
X107282018Y-102991247D01*
X107282018Y-102991247D02*
X107282018Y-102848390D01*
X107282018Y-102848390D02*
X107329637Y-102657914D01*
X107329637Y-102657914D02*
X107377256Y-102562676D01*
X107377256Y-102562676D02*
X107472494Y-102467438D01*
X107472494Y-102467438D02*
X107615351Y-102419819D01*
X107615351Y-102419819D02*
X107710589Y-102419819D01*
X107710589Y-102419819D02*
X107853446Y-102467438D01*
X107853446Y-102467438D02*
X107901065Y-102515057D01*
X108615351Y-102419819D02*
X108615351Y-103134104D01*
X108615351Y-103134104D02*
X108567732Y-103276961D01*
X108567732Y-103276961D02*
X108472494Y-103372200D01*
X108472494Y-103372200D02*
X108329637Y-103419819D01*
X108329637Y-103419819D02*
X108234399Y-103419819D01*
X109567732Y-103419819D02*
X109091542Y-103419819D01*
X109091542Y-103419819D02*
X109091542Y-102419819D01*
X110472494Y-103324580D02*
X110424875Y-103372200D01*
X110424875Y-103372200D02*
X110282018Y-103419819D01*
X110282018Y-103419819D02*
X110186780Y-103419819D01*
X110186780Y-103419819D02*
X110043923Y-103372200D01*
X110043923Y-103372200D02*
X109948685Y-103276961D01*
X109948685Y-103276961D02*
X109901066Y-103181723D01*
X109901066Y-103181723D02*
X109853447Y-102991247D01*
X109853447Y-102991247D02*
X109853447Y-102848390D01*
X109853447Y-102848390D02*
X109901066Y-102657914D01*
X109901066Y-102657914D02*
X109948685Y-102562676D01*
X109948685Y-102562676D02*
X110043923Y-102467438D01*
X110043923Y-102467438D02*
X110186780Y-102419819D01*
X110186780Y-102419819D02*
X110282018Y-102419819D01*
X110282018Y-102419819D02*
X110424875Y-102467438D01*
X110424875Y-102467438D02*
X110472494Y-102515057D01*
X111186780Y-102419819D02*
X111186780Y-103134104D01*
X111186780Y-103134104D02*
X111139161Y-103276961D01*
X111139161Y-103276961D02*
X111043923Y-103372200D01*
X111043923Y-103372200D02*
X110901066Y-103419819D01*
X110901066Y-103419819D02*
X110805828Y-103419819D01*
X112139161Y-103419819D02*
X111662971Y-103419819D01*
X111662971Y-103419819D02*
X111662971Y-102419819D01*
X113043923Y-103324580D02*
X112996304Y-103372200D01*
X112996304Y-103372200D02*
X112853447Y-103419819D01*
X112853447Y-103419819D02*
X112758209Y-103419819D01*
X112758209Y-103419819D02*
X112615352Y-103372200D01*
X112615352Y-103372200D02*
X112520114Y-103276961D01*
X112520114Y-103276961D02*
X112472495Y-103181723D01*
X112472495Y-103181723D02*
X112424876Y-102991247D01*
X112424876Y-102991247D02*
X112424876Y-102848390D01*
X112424876Y-102848390D02*
X112472495Y-102657914D01*
X112472495Y-102657914D02*
X112520114Y-102562676D01*
X112520114Y-102562676D02*
X112615352Y-102467438D01*
X112615352Y-102467438D02*
X112758209Y-102419819D01*
X112758209Y-102419819D02*
X112853447Y-102419819D01*
X112853447Y-102419819D02*
X112996304Y-102467438D01*
X112996304Y-102467438D02*
X113043923Y-102515057D01*
X125705714Y-90424819D02*
X125705714Y-89424819D01*
X125705714Y-89424819D02*
X125943809Y-89424819D01*
X125943809Y-89424819D02*
X126086666Y-89472438D01*
X126086666Y-89472438D02*
X126181904Y-89567676D01*
X126181904Y-89567676D02*
X126229523Y-89662914D01*
X126229523Y-89662914D02*
X126277142Y-89853390D01*
X126277142Y-89853390D02*
X126277142Y-89996247D01*
X126277142Y-89996247D02*
X126229523Y-90186723D01*
X126229523Y-90186723D02*
X126181904Y-90281961D01*
X126181904Y-90281961D02*
X126086666Y-90377200D01*
X126086666Y-90377200D02*
X125943809Y-90424819D01*
X125943809Y-90424819D02*
X125705714Y-90424819D01*
X127229523Y-90424819D02*
X126658095Y-90424819D01*
X126943809Y-90424819D02*
X126943809Y-89424819D01*
X126943809Y-89424819D02*
X126848571Y-89567676D01*
X126848571Y-89567676D02*
X126753333Y-89662914D01*
X126753333Y-89662914D02*
X126658095Y-89710533D01*
X127610476Y-89520057D02*
X127658095Y-89472438D01*
X127658095Y-89472438D02*
X127753333Y-89424819D01*
X127753333Y-89424819D02*
X127991428Y-89424819D01*
X127991428Y-89424819D02*
X128086666Y-89472438D01*
X128086666Y-89472438D02*
X128134285Y-89520057D01*
X128134285Y-89520057D02*
X128181904Y-89615295D01*
X128181904Y-89615295D02*
X128181904Y-89710533D01*
X128181904Y-89710533D02*
X128134285Y-89853390D01*
X128134285Y-89853390D02*
X127562857Y-90424819D01*
X127562857Y-90424819D02*
X128181904Y-90424819D01*
X131738095Y-90054819D02*
X131738095Y-89054819D01*
X132309523Y-90054819D02*
X131880952Y-89483390D01*
X132309523Y-89054819D02*
X131738095Y-89626247D01*
X87666667Y-101852200D02*
X87809524Y-101899819D01*
X87809524Y-101899819D02*
X88047619Y-101899819D01*
X88047619Y-101899819D02*
X88142857Y-101852200D01*
X88142857Y-101852200D02*
X88190476Y-101804580D01*
X88190476Y-101804580D02*
X88238095Y-101709342D01*
X88238095Y-101709342D02*
X88238095Y-101614104D01*
X88238095Y-101614104D02*
X88190476Y-101518866D01*
X88190476Y-101518866D02*
X88142857Y-101471247D01*
X88142857Y-101471247D02*
X88047619Y-101423628D01*
X88047619Y-101423628D02*
X87857143Y-101376009D01*
X87857143Y-101376009D02*
X87761905Y-101328390D01*
X87761905Y-101328390D02*
X87714286Y-101280771D01*
X87714286Y-101280771D02*
X87666667Y-101185533D01*
X87666667Y-101185533D02*
X87666667Y-101090295D01*
X87666667Y-101090295D02*
X87714286Y-100995057D01*
X87714286Y-100995057D02*
X87761905Y-100947438D01*
X87761905Y-100947438D02*
X87857143Y-100899819D01*
X87857143Y-100899819D02*
X88095238Y-100899819D01*
X88095238Y-100899819D02*
X88238095Y-100947438D01*
X88571429Y-100899819D02*
X88809524Y-101899819D01*
X88809524Y-101899819D02*
X89000000Y-101185533D01*
X89000000Y-101185533D02*
X89190476Y-101899819D01*
X89190476Y-101899819D02*
X89428572Y-100899819D01*
X90238095Y-101233152D02*
X90238095Y-101899819D01*
X90000000Y-100852200D02*
X89761905Y-101566485D01*
X89761905Y-101566485D02*
X90380952Y-101566485D01*
X107181905Y-90424819D02*
X107181905Y-89424819D01*
X107181905Y-89424819D02*
X107420000Y-89424819D01*
X107420000Y-89424819D02*
X107562857Y-89472438D01*
X107562857Y-89472438D02*
X107658095Y-89567676D01*
X107658095Y-89567676D02*
X107705714Y-89662914D01*
X107705714Y-89662914D02*
X107753333Y-89853390D01*
X107753333Y-89853390D02*
X107753333Y-89996247D01*
X107753333Y-89996247D02*
X107705714Y-90186723D01*
X107705714Y-90186723D02*
X107658095Y-90281961D01*
X107658095Y-90281961D02*
X107562857Y-90377200D01*
X107562857Y-90377200D02*
X107420000Y-90424819D01*
X107420000Y-90424819D02*
X107181905Y-90424819D01*
X108324762Y-89853390D02*
X108229524Y-89805771D01*
X108229524Y-89805771D02*
X108181905Y-89758152D01*
X108181905Y-89758152D02*
X108134286Y-89662914D01*
X108134286Y-89662914D02*
X108134286Y-89615295D01*
X108134286Y-89615295D02*
X108181905Y-89520057D01*
X108181905Y-89520057D02*
X108229524Y-89472438D01*
X108229524Y-89472438D02*
X108324762Y-89424819D01*
X108324762Y-89424819D02*
X108515238Y-89424819D01*
X108515238Y-89424819D02*
X108610476Y-89472438D01*
X108610476Y-89472438D02*
X108658095Y-89520057D01*
X108658095Y-89520057D02*
X108705714Y-89615295D01*
X108705714Y-89615295D02*
X108705714Y-89662914D01*
X108705714Y-89662914D02*
X108658095Y-89758152D01*
X108658095Y-89758152D02*
X108610476Y-89805771D01*
X108610476Y-89805771D02*
X108515238Y-89853390D01*
X108515238Y-89853390D02*
X108324762Y-89853390D01*
X108324762Y-89853390D02*
X108229524Y-89901009D01*
X108229524Y-89901009D02*
X108181905Y-89948628D01*
X108181905Y-89948628D02*
X108134286Y-90043866D01*
X108134286Y-90043866D02*
X108134286Y-90234342D01*
X108134286Y-90234342D02*
X108181905Y-90329580D01*
X108181905Y-90329580D02*
X108229524Y-90377200D01*
X108229524Y-90377200D02*
X108324762Y-90424819D01*
X108324762Y-90424819D02*
X108515238Y-90424819D01*
X108515238Y-90424819D02*
X108610476Y-90377200D01*
X108610476Y-90377200D02*
X108658095Y-90329580D01*
X108658095Y-90329580D02*
X108705714Y-90234342D01*
X108705714Y-90234342D02*
X108705714Y-90043866D01*
X108705714Y-90043866D02*
X108658095Y-89948628D01*
X108658095Y-89948628D02*
X108610476Y-89901009D01*
X108610476Y-89901009D02*
X108515238Y-89853390D01*
X112738095Y-90054819D02*
X112738095Y-89054819D01*
X113309523Y-90054819D02*
X112880952Y-89483390D01*
X113309523Y-89054819D02*
X112738095Y-89626247D01*
X144190476Y-82852200D02*
X144333333Y-82899819D01*
X144333333Y-82899819D02*
X144571428Y-82899819D01*
X144571428Y-82899819D02*
X144666666Y-82852200D01*
X144666666Y-82852200D02*
X144714285Y-82804580D01*
X144714285Y-82804580D02*
X144761904Y-82709342D01*
X144761904Y-82709342D02*
X144761904Y-82614104D01*
X144761904Y-82614104D02*
X144714285Y-82518866D01*
X144714285Y-82518866D02*
X144666666Y-82471247D01*
X144666666Y-82471247D02*
X144571428Y-82423628D01*
X144571428Y-82423628D02*
X144380952Y-82376009D01*
X144380952Y-82376009D02*
X144285714Y-82328390D01*
X144285714Y-82328390D02*
X144238095Y-82280771D01*
X144238095Y-82280771D02*
X144190476Y-82185533D01*
X144190476Y-82185533D02*
X144190476Y-82090295D01*
X144190476Y-82090295D02*
X144238095Y-81995057D01*
X144238095Y-81995057D02*
X144285714Y-81947438D01*
X144285714Y-81947438D02*
X144380952Y-81899819D01*
X144380952Y-81899819D02*
X144619047Y-81899819D01*
X144619047Y-81899819D02*
X144761904Y-81947438D01*
X145095238Y-81899819D02*
X145333333Y-82899819D01*
X145333333Y-82899819D02*
X145523809Y-82185533D01*
X145523809Y-82185533D02*
X145714285Y-82899819D01*
X145714285Y-82899819D02*
X145952381Y-81899819D01*
X146857142Y-82899819D02*
X146285714Y-82899819D01*
X146571428Y-82899819D02*
X146571428Y-81899819D01*
X146571428Y-81899819D02*
X146476190Y-82042676D01*
X146476190Y-82042676D02*
X146380952Y-82137914D01*
X146380952Y-82137914D02*
X146285714Y-82185533D01*
X147333333Y-82899819D02*
X147523809Y-82899819D01*
X147523809Y-82899819D02*
X147619047Y-82852200D01*
X147619047Y-82852200D02*
X147666666Y-82804580D01*
X147666666Y-82804580D02*
X147761904Y-82661723D01*
X147761904Y-82661723D02*
X147809523Y-82471247D01*
X147809523Y-82471247D02*
X147809523Y-82090295D01*
X147809523Y-82090295D02*
X147761904Y-81995057D01*
X147761904Y-81995057D02*
X147714285Y-81947438D01*
X147714285Y-81947438D02*
X147619047Y-81899819D01*
X147619047Y-81899819D02*
X147428571Y-81899819D01*
X147428571Y-81899819D02*
X147333333Y-81947438D01*
X147333333Y-81947438D02*
X147285714Y-81995057D01*
X147285714Y-81995057D02*
X147238095Y-82090295D01*
X147238095Y-82090295D02*
X147238095Y-82328390D01*
X147238095Y-82328390D02*
X147285714Y-82423628D01*
X147285714Y-82423628D02*
X147333333Y-82471247D01*
X147333333Y-82471247D02*
X147428571Y-82518866D01*
X147428571Y-82518866D02*
X147619047Y-82518866D01*
X147619047Y-82518866D02*
X147714285Y-82471247D01*
X147714285Y-82471247D02*
X147761904Y-82423628D01*
X147761904Y-82423628D02*
X147809523Y-82328390D01*
X144705714Y-33424819D02*
X144705714Y-32424819D01*
X144705714Y-32424819D02*
X144943809Y-32424819D01*
X144943809Y-32424819D02*
X145086666Y-32472438D01*
X145086666Y-32472438D02*
X145181904Y-32567676D01*
X145181904Y-32567676D02*
X145229523Y-32662914D01*
X145229523Y-32662914D02*
X145277142Y-32853390D01*
X145277142Y-32853390D02*
X145277142Y-32996247D01*
X145277142Y-32996247D02*
X145229523Y-33186723D01*
X145229523Y-33186723D02*
X145181904Y-33281961D01*
X145181904Y-33281961D02*
X145086666Y-33377200D01*
X145086666Y-33377200D02*
X144943809Y-33424819D01*
X144943809Y-33424819D02*
X144705714Y-33424819D01*
X146229523Y-33424819D02*
X145658095Y-33424819D01*
X145943809Y-33424819D02*
X145943809Y-32424819D01*
X145943809Y-32424819D02*
X145848571Y-32567676D01*
X145848571Y-32567676D02*
X145753333Y-32662914D01*
X145753333Y-32662914D02*
X145658095Y-32710533D01*
X146562857Y-32424819D02*
X147229523Y-32424819D01*
X147229523Y-32424819D02*
X146800952Y-33424819D01*
X150738095Y-33054819D02*
X150738095Y-32054819D01*
X151309523Y-33054819D02*
X150880952Y-32483390D01*
X151309523Y-32054819D02*
X150738095Y-32626247D01*
X163705714Y-33424819D02*
X163705714Y-32424819D01*
X163705714Y-32424819D02*
X163943809Y-32424819D01*
X163943809Y-32424819D02*
X164086666Y-32472438D01*
X164086666Y-32472438D02*
X164181904Y-32567676D01*
X164181904Y-32567676D02*
X164229523Y-32662914D01*
X164229523Y-32662914D02*
X164277142Y-32853390D01*
X164277142Y-32853390D02*
X164277142Y-32996247D01*
X164277142Y-32996247D02*
X164229523Y-33186723D01*
X164229523Y-33186723D02*
X164181904Y-33281961D01*
X164181904Y-33281961D02*
X164086666Y-33377200D01*
X164086666Y-33377200D02*
X163943809Y-33424819D01*
X163943809Y-33424819D02*
X163705714Y-33424819D01*
X164658095Y-32520057D02*
X164705714Y-32472438D01*
X164705714Y-32472438D02*
X164800952Y-32424819D01*
X164800952Y-32424819D02*
X165039047Y-32424819D01*
X165039047Y-32424819D02*
X165134285Y-32472438D01*
X165134285Y-32472438D02*
X165181904Y-32520057D01*
X165181904Y-32520057D02*
X165229523Y-32615295D01*
X165229523Y-32615295D02*
X165229523Y-32710533D01*
X165229523Y-32710533D02*
X165181904Y-32853390D01*
X165181904Y-32853390D02*
X164610476Y-33424819D01*
X164610476Y-33424819D02*
X165229523Y-33424819D01*
X166181904Y-33424819D02*
X165610476Y-33424819D01*
X165896190Y-33424819D02*
X165896190Y-32424819D01*
X165896190Y-32424819D02*
X165800952Y-32567676D01*
X165800952Y-32567676D02*
X165705714Y-32662914D01*
X165705714Y-32662914D02*
X165610476Y-32710533D01*
X169738095Y-33054819D02*
X169738095Y-32054819D01*
X170309523Y-33054819D02*
X169880952Y-32483390D01*
X170309523Y-32054819D02*
X169738095Y-32626247D01*
X78738095Y-46754819D02*
X78738095Y-45754819D01*
X78738095Y-46231009D02*
X79309523Y-46231009D01*
X79309523Y-46754819D02*
X79309523Y-45754819D01*
X80309523Y-46754819D02*
X79738095Y-46754819D01*
X80023809Y-46754819D02*
X80023809Y-45754819D01*
X80023809Y-45754819D02*
X79928571Y-45897676D01*
X79928571Y-45897676D02*
X79833333Y-45992914D01*
X79833333Y-45992914D02*
X79738095Y-46040533D01*
X125190476Y-44852200D02*
X125333333Y-44899819D01*
X125333333Y-44899819D02*
X125571428Y-44899819D01*
X125571428Y-44899819D02*
X125666666Y-44852200D01*
X125666666Y-44852200D02*
X125714285Y-44804580D01*
X125714285Y-44804580D02*
X125761904Y-44709342D01*
X125761904Y-44709342D02*
X125761904Y-44614104D01*
X125761904Y-44614104D02*
X125714285Y-44518866D01*
X125714285Y-44518866D02*
X125666666Y-44471247D01*
X125666666Y-44471247D02*
X125571428Y-44423628D01*
X125571428Y-44423628D02*
X125380952Y-44376009D01*
X125380952Y-44376009D02*
X125285714Y-44328390D01*
X125285714Y-44328390D02*
X125238095Y-44280771D01*
X125238095Y-44280771D02*
X125190476Y-44185533D01*
X125190476Y-44185533D02*
X125190476Y-44090295D01*
X125190476Y-44090295D02*
X125238095Y-43995057D01*
X125238095Y-43995057D02*
X125285714Y-43947438D01*
X125285714Y-43947438D02*
X125380952Y-43899819D01*
X125380952Y-43899819D02*
X125619047Y-43899819D01*
X125619047Y-43899819D02*
X125761904Y-43947438D01*
X126095238Y-43899819D02*
X126333333Y-44899819D01*
X126333333Y-44899819D02*
X126523809Y-44185533D01*
X126523809Y-44185533D02*
X126714285Y-44899819D01*
X126714285Y-44899819D02*
X126952381Y-43899819D01*
X127857142Y-44899819D02*
X127285714Y-44899819D01*
X127571428Y-44899819D02*
X127571428Y-43899819D01*
X127571428Y-43899819D02*
X127476190Y-44042676D01*
X127476190Y-44042676D02*
X127380952Y-44137914D01*
X127380952Y-44137914D02*
X127285714Y-44185533D01*
X128190476Y-43899819D02*
X128809523Y-43899819D01*
X128809523Y-43899819D02*
X128476190Y-44280771D01*
X128476190Y-44280771D02*
X128619047Y-44280771D01*
X128619047Y-44280771D02*
X128714285Y-44328390D01*
X128714285Y-44328390D02*
X128761904Y-44376009D01*
X128761904Y-44376009D02*
X128809523Y-44471247D01*
X128809523Y-44471247D02*
X128809523Y-44709342D01*
X128809523Y-44709342D02*
X128761904Y-44804580D01*
X128761904Y-44804580D02*
X128714285Y-44852200D01*
X128714285Y-44852200D02*
X128619047Y-44899819D01*
X128619047Y-44899819D02*
X128333333Y-44899819D01*
X128333333Y-44899819D02*
X128238095Y-44852200D01*
X128238095Y-44852200D02*
X128190476Y-44804580D01*
X106666667Y-44852200D02*
X106809524Y-44899819D01*
X106809524Y-44899819D02*
X107047619Y-44899819D01*
X107047619Y-44899819D02*
X107142857Y-44852200D01*
X107142857Y-44852200D02*
X107190476Y-44804580D01*
X107190476Y-44804580D02*
X107238095Y-44709342D01*
X107238095Y-44709342D02*
X107238095Y-44614104D01*
X107238095Y-44614104D02*
X107190476Y-44518866D01*
X107190476Y-44518866D02*
X107142857Y-44471247D01*
X107142857Y-44471247D02*
X107047619Y-44423628D01*
X107047619Y-44423628D02*
X106857143Y-44376009D01*
X106857143Y-44376009D02*
X106761905Y-44328390D01*
X106761905Y-44328390D02*
X106714286Y-44280771D01*
X106714286Y-44280771D02*
X106666667Y-44185533D01*
X106666667Y-44185533D02*
X106666667Y-44090295D01*
X106666667Y-44090295D02*
X106714286Y-43995057D01*
X106714286Y-43995057D02*
X106761905Y-43947438D01*
X106761905Y-43947438D02*
X106857143Y-43899819D01*
X106857143Y-43899819D02*
X107095238Y-43899819D01*
X107095238Y-43899819D02*
X107238095Y-43947438D01*
X107571429Y-43899819D02*
X107809524Y-44899819D01*
X107809524Y-44899819D02*
X108000000Y-44185533D01*
X108000000Y-44185533D02*
X108190476Y-44899819D01*
X108190476Y-44899819D02*
X108428572Y-43899819D01*
X108857143Y-44899819D02*
X109047619Y-44899819D01*
X109047619Y-44899819D02*
X109142857Y-44852200D01*
X109142857Y-44852200D02*
X109190476Y-44804580D01*
X109190476Y-44804580D02*
X109285714Y-44661723D01*
X109285714Y-44661723D02*
X109333333Y-44471247D01*
X109333333Y-44471247D02*
X109333333Y-44090295D01*
X109333333Y-44090295D02*
X109285714Y-43995057D01*
X109285714Y-43995057D02*
X109238095Y-43947438D01*
X109238095Y-43947438D02*
X109142857Y-43899819D01*
X109142857Y-43899819D02*
X108952381Y-43899819D01*
X108952381Y-43899819D02*
X108857143Y-43947438D01*
X108857143Y-43947438D02*
X108809524Y-43995057D01*
X108809524Y-43995057D02*
X108761905Y-44090295D01*
X108761905Y-44090295D02*
X108761905Y-44328390D01*
X108761905Y-44328390D02*
X108809524Y-44423628D01*
X108809524Y-44423628D02*
X108857143Y-44471247D01*
X108857143Y-44471247D02*
X108952381Y-44518866D01*
X108952381Y-44518866D02*
X109142857Y-44518866D01*
X109142857Y-44518866D02*
X109238095Y-44471247D01*
X109238095Y-44471247D02*
X109285714Y-44423628D01*
X109285714Y-44423628D02*
X109333333Y-44328390D01*
X87666667Y-44852200D02*
X87809524Y-44899819D01*
X87809524Y-44899819D02*
X88047619Y-44899819D01*
X88047619Y-44899819D02*
X88142857Y-44852200D01*
X88142857Y-44852200D02*
X88190476Y-44804580D01*
X88190476Y-44804580D02*
X88238095Y-44709342D01*
X88238095Y-44709342D02*
X88238095Y-44614104D01*
X88238095Y-44614104D02*
X88190476Y-44518866D01*
X88190476Y-44518866D02*
X88142857Y-44471247D01*
X88142857Y-44471247D02*
X88047619Y-44423628D01*
X88047619Y-44423628D02*
X87857143Y-44376009D01*
X87857143Y-44376009D02*
X87761905Y-44328390D01*
X87761905Y-44328390D02*
X87714286Y-44280771D01*
X87714286Y-44280771D02*
X87666667Y-44185533D01*
X87666667Y-44185533D02*
X87666667Y-44090295D01*
X87666667Y-44090295D02*
X87714286Y-43995057D01*
X87714286Y-43995057D02*
X87761905Y-43947438D01*
X87761905Y-43947438D02*
X87857143Y-43899819D01*
X87857143Y-43899819D02*
X88095238Y-43899819D01*
X88095238Y-43899819D02*
X88238095Y-43947438D01*
X88571429Y-43899819D02*
X88809524Y-44899819D01*
X88809524Y-44899819D02*
X89000000Y-44185533D01*
X89000000Y-44185533D02*
X89190476Y-44899819D01*
X89190476Y-44899819D02*
X89428572Y-43899819D01*
X90285714Y-43899819D02*
X89809524Y-43899819D01*
X89809524Y-43899819D02*
X89761905Y-44376009D01*
X89761905Y-44376009D02*
X89809524Y-44328390D01*
X89809524Y-44328390D02*
X89904762Y-44280771D01*
X89904762Y-44280771D02*
X90142857Y-44280771D01*
X90142857Y-44280771D02*
X90238095Y-44328390D01*
X90238095Y-44328390D02*
X90285714Y-44376009D01*
X90285714Y-44376009D02*
X90333333Y-44471247D01*
X90333333Y-44471247D02*
X90333333Y-44709342D01*
X90333333Y-44709342D02*
X90285714Y-44804580D01*
X90285714Y-44804580D02*
X90238095Y-44852200D01*
X90238095Y-44852200D02*
X90142857Y-44899819D01*
X90142857Y-44899819D02*
X89904762Y-44899819D01*
X89904762Y-44899819D02*
X89809524Y-44852200D01*
X89809524Y-44852200D02*
X89761905Y-44804580D01*
X88181905Y-33424819D02*
X88181905Y-32424819D01*
X88181905Y-32424819D02*
X88420000Y-32424819D01*
X88420000Y-32424819D02*
X88562857Y-32472438D01*
X88562857Y-32472438D02*
X88658095Y-32567676D01*
X88658095Y-32567676D02*
X88705714Y-32662914D01*
X88705714Y-32662914D02*
X88753333Y-32853390D01*
X88753333Y-32853390D02*
X88753333Y-32996247D01*
X88753333Y-32996247D02*
X88705714Y-33186723D01*
X88705714Y-33186723D02*
X88658095Y-33281961D01*
X88658095Y-33281961D02*
X88562857Y-33377200D01*
X88562857Y-33377200D02*
X88420000Y-33424819D01*
X88420000Y-33424819D02*
X88181905Y-33424819D01*
X89658095Y-32424819D02*
X89181905Y-32424819D01*
X89181905Y-32424819D02*
X89134286Y-32901009D01*
X89134286Y-32901009D02*
X89181905Y-32853390D01*
X89181905Y-32853390D02*
X89277143Y-32805771D01*
X89277143Y-32805771D02*
X89515238Y-32805771D01*
X89515238Y-32805771D02*
X89610476Y-32853390D01*
X89610476Y-32853390D02*
X89658095Y-32901009D01*
X89658095Y-32901009D02*
X89705714Y-32996247D01*
X89705714Y-32996247D02*
X89705714Y-33234342D01*
X89705714Y-33234342D02*
X89658095Y-33329580D01*
X89658095Y-33329580D02*
X89610476Y-33377200D01*
X89610476Y-33377200D02*
X89515238Y-33424819D01*
X89515238Y-33424819D02*
X89277143Y-33424819D01*
X89277143Y-33424819D02*
X89181905Y-33377200D01*
X89181905Y-33377200D02*
X89134286Y-33329580D01*
X93738095Y-33054819D02*
X93738095Y-32054819D01*
X94309523Y-33054819D02*
X93880952Y-32483390D01*
X94309523Y-32054819D02*
X93738095Y-32626247D01*
X88181905Y-90424819D02*
X88181905Y-89424819D01*
X88181905Y-89424819D02*
X88420000Y-89424819D01*
X88420000Y-89424819D02*
X88562857Y-89472438D01*
X88562857Y-89472438D02*
X88658095Y-89567676D01*
X88658095Y-89567676D02*
X88705714Y-89662914D01*
X88705714Y-89662914D02*
X88753333Y-89853390D01*
X88753333Y-89853390D02*
X88753333Y-89996247D01*
X88753333Y-89996247D02*
X88705714Y-90186723D01*
X88705714Y-90186723D02*
X88658095Y-90281961D01*
X88658095Y-90281961D02*
X88562857Y-90377200D01*
X88562857Y-90377200D02*
X88420000Y-90424819D01*
X88420000Y-90424819D02*
X88181905Y-90424819D01*
X89610476Y-89758152D02*
X89610476Y-90424819D01*
X89372381Y-89377200D02*
X89134286Y-90091485D01*
X89134286Y-90091485D02*
X89753333Y-90091485D01*
X93738095Y-90054819D02*
X93738095Y-89054819D01*
X94309523Y-90054819D02*
X93880952Y-89483390D01*
X94309523Y-89054819D02*
X93738095Y-89626247D01*
X149989426Y-94967850D02*
X150380157Y-94047346D01*
X150380157Y-94047346D02*
X150599325Y-94140377D01*
X150599325Y-94140377D02*
X150712219Y-94240029D01*
X150712219Y-94240029D02*
X150762674Y-94364909D01*
X150762674Y-94364909D02*
X150769295Y-94471182D01*
X150769295Y-94471182D02*
X150738703Y-94665123D01*
X150738703Y-94665123D02*
X150682885Y-94796623D01*
X150682885Y-94796623D02*
X150564626Y-94953351D01*
X150564626Y-94953351D02*
X150483580Y-95022412D01*
X150483580Y-95022412D02*
X150358700Y-95072867D01*
X150358700Y-95072867D02*
X150208593Y-95060882D01*
X150208593Y-95060882D02*
X149989426Y-94967850D01*
X151392100Y-95563250D02*
X150866097Y-95339975D01*
X151129098Y-95451613D02*
X151519829Y-94531108D01*
X151519829Y-94531108D02*
X151376344Y-94625396D01*
X151376344Y-94625396D02*
X151251464Y-94675851D01*
X151251464Y-94675851D02*
X151145191Y-94682472D01*
X152571835Y-94977658D02*
X152396501Y-94903233D01*
X152396501Y-94903233D02*
X152290227Y-94909854D01*
X152290227Y-94909854D02*
X152227788Y-94935081D01*
X152227788Y-94935081D02*
X152084302Y-95029369D01*
X152084302Y-95029369D02*
X151966043Y-95186097D01*
X151966043Y-95186097D02*
X151817193Y-95536766D01*
X151817193Y-95536766D02*
X151823814Y-95643039D01*
X151823814Y-95643039D02*
X151849042Y-95705479D01*
X151849042Y-95705479D02*
X151918102Y-95786525D01*
X151918102Y-95786525D02*
X152093437Y-95860950D01*
X152093437Y-95860950D02*
X152199710Y-95854329D01*
X152199710Y-95854329D02*
X152262150Y-95829102D01*
X152262150Y-95829102D02*
X152343196Y-95760041D01*
X152343196Y-95760041D02*
X152436227Y-95540873D01*
X152436227Y-95540873D02*
X152429606Y-95434600D01*
X152429606Y-95434600D02*
X152404379Y-95372160D01*
X152404379Y-95372160D02*
X152335318Y-95291114D01*
X152335318Y-95291114D02*
X152159984Y-95216689D01*
X152159984Y-95216689D02*
X152053710Y-95223310D01*
X152053710Y-95223310D02*
X151991270Y-95248537D01*
X151991270Y-95248537D02*
X151910224Y-95317598D01*
X155686833Y-96984302D02*
X156077564Y-96063797D01*
X156212836Y-97207577D02*
X156041609Y-96514118D01*
X156603567Y-96287072D02*
X155854289Y-96589800D01*
X144190476Y-44852200D02*
X144333333Y-44899819D01*
X144333333Y-44899819D02*
X144571428Y-44899819D01*
X144571428Y-44899819D02*
X144666666Y-44852200D01*
X144666666Y-44852200D02*
X144714285Y-44804580D01*
X144714285Y-44804580D02*
X144761904Y-44709342D01*
X144761904Y-44709342D02*
X144761904Y-44614104D01*
X144761904Y-44614104D02*
X144714285Y-44518866D01*
X144714285Y-44518866D02*
X144666666Y-44471247D01*
X144666666Y-44471247D02*
X144571428Y-44423628D01*
X144571428Y-44423628D02*
X144380952Y-44376009D01*
X144380952Y-44376009D02*
X144285714Y-44328390D01*
X144285714Y-44328390D02*
X144238095Y-44280771D01*
X144238095Y-44280771D02*
X144190476Y-44185533D01*
X144190476Y-44185533D02*
X144190476Y-44090295D01*
X144190476Y-44090295D02*
X144238095Y-43995057D01*
X144238095Y-43995057D02*
X144285714Y-43947438D01*
X144285714Y-43947438D02*
X144380952Y-43899819D01*
X144380952Y-43899819D02*
X144619047Y-43899819D01*
X144619047Y-43899819D02*
X144761904Y-43947438D01*
X145095238Y-43899819D02*
X145333333Y-44899819D01*
X145333333Y-44899819D02*
X145523809Y-44185533D01*
X145523809Y-44185533D02*
X145714285Y-44899819D01*
X145714285Y-44899819D02*
X145952381Y-43899819D01*
X146857142Y-44899819D02*
X146285714Y-44899819D01*
X146571428Y-44899819D02*
X146571428Y-43899819D01*
X146571428Y-43899819D02*
X146476190Y-44042676D01*
X146476190Y-44042676D02*
X146380952Y-44137914D01*
X146380952Y-44137914D02*
X146285714Y-44185533D01*
X147190476Y-43899819D02*
X147857142Y-43899819D01*
X147857142Y-43899819D02*
X147428571Y-44899819D01*
X125190476Y-63852200D02*
X125333333Y-63899819D01*
X125333333Y-63899819D02*
X125571428Y-63899819D01*
X125571428Y-63899819D02*
X125666666Y-63852200D01*
X125666666Y-63852200D02*
X125714285Y-63804580D01*
X125714285Y-63804580D02*
X125761904Y-63709342D01*
X125761904Y-63709342D02*
X125761904Y-63614104D01*
X125761904Y-63614104D02*
X125714285Y-63518866D01*
X125714285Y-63518866D02*
X125666666Y-63471247D01*
X125666666Y-63471247D02*
X125571428Y-63423628D01*
X125571428Y-63423628D02*
X125380952Y-63376009D01*
X125380952Y-63376009D02*
X125285714Y-63328390D01*
X125285714Y-63328390D02*
X125238095Y-63280771D01*
X125238095Y-63280771D02*
X125190476Y-63185533D01*
X125190476Y-63185533D02*
X125190476Y-63090295D01*
X125190476Y-63090295D02*
X125238095Y-62995057D01*
X125238095Y-62995057D02*
X125285714Y-62947438D01*
X125285714Y-62947438D02*
X125380952Y-62899819D01*
X125380952Y-62899819D02*
X125619047Y-62899819D01*
X125619047Y-62899819D02*
X125761904Y-62947438D01*
X126095238Y-62899819D02*
X126333333Y-63899819D01*
X126333333Y-63899819D02*
X126523809Y-63185533D01*
X126523809Y-63185533D02*
X126714285Y-63899819D01*
X126714285Y-63899819D02*
X126952381Y-62899819D01*
X127857142Y-63899819D02*
X127285714Y-63899819D01*
X127571428Y-63899819D02*
X127571428Y-62899819D01*
X127571428Y-62899819D02*
X127476190Y-63042676D01*
X127476190Y-63042676D02*
X127380952Y-63137914D01*
X127380952Y-63137914D02*
X127285714Y-63185533D01*
X128714285Y-63233152D02*
X128714285Y-63899819D01*
X128476190Y-62852200D02*
X128238095Y-63566485D01*
X128238095Y-63566485D02*
X128857142Y-63566485D01*
X125190476Y-82852200D02*
X125333333Y-82899819D01*
X125333333Y-82899819D02*
X125571428Y-82899819D01*
X125571428Y-82899819D02*
X125666666Y-82852200D01*
X125666666Y-82852200D02*
X125714285Y-82804580D01*
X125714285Y-82804580D02*
X125761904Y-82709342D01*
X125761904Y-82709342D02*
X125761904Y-82614104D01*
X125761904Y-82614104D02*
X125714285Y-82518866D01*
X125714285Y-82518866D02*
X125666666Y-82471247D01*
X125666666Y-82471247D02*
X125571428Y-82423628D01*
X125571428Y-82423628D02*
X125380952Y-82376009D01*
X125380952Y-82376009D02*
X125285714Y-82328390D01*
X125285714Y-82328390D02*
X125238095Y-82280771D01*
X125238095Y-82280771D02*
X125190476Y-82185533D01*
X125190476Y-82185533D02*
X125190476Y-82090295D01*
X125190476Y-82090295D02*
X125238095Y-81995057D01*
X125238095Y-81995057D02*
X125285714Y-81947438D01*
X125285714Y-81947438D02*
X125380952Y-81899819D01*
X125380952Y-81899819D02*
X125619047Y-81899819D01*
X125619047Y-81899819D02*
X125761904Y-81947438D01*
X126095238Y-81899819D02*
X126333333Y-82899819D01*
X126333333Y-82899819D02*
X126523809Y-82185533D01*
X126523809Y-82185533D02*
X126714285Y-82899819D01*
X126714285Y-82899819D02*
X126952381Y-81899819D01*
X127857142Y-82899819D02*
X127285714Y-82899819D01*
X127571428Y-82899819D02*
X127571428Y-81899819D01*
X127571428Y-81899819D02*
X127476190Y-82042676D01*
X127476190Y-82042676D02*
X127380952Y-82137914D01*
X127380952Y-82137914D02*
X127285714Y-82185533D01*
X128761904Y-81899819D02*
X128285714Y-81899819D01*
X128285714Y-81899819D02*
X128238095Y-82376009D01*
X128238095Y-82376009D02*
X128285714Y-82328390D01*
X128285714Y-82328390D02*
X128380952Y-82280771D01*
X128380952Y-82280771D02*
X128619047Y-82280771D01*
X128619047Y-82280771D02*
X128714285Y-82328390D01*
X128714285Y-82328390D02*
X128761904Y-82376009D01*
X128761904Y-82376009D02*
X128809523Y-82471247D01*
X128809523Y-82471247D02*
X128809523Y-82709342D01*
X128809523Y-82709342D02*
X128761904Y-82804580D01*
X128761904Y-82804580D02*
X128714285Y-82852200D01*
X128714285Y-82852200D02*
X128619047Y-82899819D01*
X128619047Y-82899819D02*
X128380952Y-82899819D01*
X128380952Y-82899819D02*
X128285714Y-82852200D01*
X128285714Y-82852200D02*
X128238095Y-82804580D01*
X163190476Y-44852200D02*
X163333333Y-44899819D01*
X163333333Y-44899819D02*
X163571428Y-44899819D01*
X163571428Y-44899819D02*
X163666666Y-44852200D01*
X163666666Y-44852200D02*
X163714285Y-44804580D01*
X163714285Y-44804580D02*
X163761904Y-44709342D01*
X163761904Y-44709342D02*
X163761904Y-44614104D01*
X163761904Y-44614104D02*
X163714285Y-44518866D01*
X163714285Y-44518866D02*
X163666666Y-44471247D01*
X163666666Y-44471247D02*
X163571428Y-44423628D01*
X163571428Y-44423628D02*
X163380952Y-44376009D01*
X163380952Y-44376009D02*
X163285714Y-44328390D01*
X163285714Y-44328390D02*
X163238095Y-44280771D01*
X163238095Y-44280771D02*
X163190476Y-44185533D01*
X163190476Y-44185533D02*
X163190476Y-44090295D01*
X163190476Y-44090295D02*
X163238095Y-43995057D01*
X163238095Y-43995057D02*
X163285714Y-43947438D01*
X163285714Y-43947438D02*
X163380952Y-43899819D01*
X163380952Y-43899819D02*
X163619047Y-43899819D01*
X163619047Y-43899819D02*
X163761904Y-43947438D01*
X164095238Y-43899819D02*
X164333333Y-44899819D01*
X164333333Y-44899819D02*
X164523809Y-44185533D01*
X164523809Y-44185533D02*
X164714285Y-44899819D01*
X164714285Y-44899819D02*
X164952381Y-43899819D01*
X165285714Y-43995057D02*
X165333333Y-43947438D01*
X165333333Y-43947438D02*
X165428571Y-43899819D01*
X165428571Y-43899819D02*
X165666666Y-43899819D01*
X165666666Y-43899819D02*
X165761904Y-43947438D01*
X165761904Y-43947438D02*
X165809523Y-43995057D01*
X165809523Y-43995057D02*
X165857142Y-44090295D01*
X165857142Y-44090295D02*
X165857142Y-44185533D01*
X165857142Y-44185533D02*
X165809523Y-44328390D01*
X165809523Y-44328390D02*
X165238095Y-44899819D01*
X165238095Y-44899819D02*
X165857142Y-44899819D01*
X166809523Y-44899819D02*
X166238095Y-44899819D01*
X166523809Y-44899819D02*
X166523809Y-43899819D01*
X166523809Y-43899819D02*
X166428571Y-44042676D01*
X166428571Y-44042676D02*
X166333333Y-44137914D01*
X166333333Y-44137914D02*
X166238095Y-44185533D01*
X125705714Y-71424819D02*
X125705714Y-70424819D01*
X125705714Y-70424819D02*
X125943809Y-70424819D01*
X125943809Y-70424819D02*
X126086666Y-70472438D01*
X126086666Y-70472438D02*
X126181904Y-70567676D01*
X126181904Y-70567676D02*
X126229523Y-70662914D01*
X126229523Y-70662914D02*
X126277142Y-70853390D01*
X126277142Y-70853390D02*
X126277142Y-70996247D01*
X126277142Y-70996247D02*
X126229523Y-71186723D01*
X126229523Y-71186723D02*
X126181904Y-71281961D01*
X126181904Y-71281961D02*
X126086666Y-71377200D01*
X126086666Y-71377200D02*
X125943809Y-71424819D01*
X125943809Y-71424819D02*
X125705714Y-71424819D01*
X127229523Y-71424819D02*
X126658095Y-71424819D01*
X126943809Y-71424819D02*
X126943809Y-70424819D01*
X126943809Y-70424819D02*
X126848571Y-70567676D01*
X126848571Y-70567676D02*
X126753333Y-70662914D01*
X126753333Y-70662914D02*
X126658095Y-70710533D01*
X128134285Y-70424819D02*
X127658095Y-70424819D01*
X127658095Y-70424819D02*
X127610476Y-70901009D01*
X127610476Y-70901009D02*
X127658095Y-70853390D01*
X127658095Y-70853390D02*
X127753333Y-70805771D01*
X127753333Y-70805771D02*
X127991428Y-70805771D01*
X127991428Y-70805771D02*
X128086666Y-70853390D01*
X128086666Y-70853390D02*
X128134285Y-70901009D01*
X128134285Y-70901009D02*
X128181904Y-70996247D01*
X128181904Y-70996247D02*
X128181904Y-71234342D01*
X128181904Y-71234342D02*
X128134285Y-71329580D01*
X128134285Y-71329580D02*
X128086666Y-71377200D01*
X128086666Y-71377200D02*
X127991428Y-71424819D01*
X127991428Y-71424819D02*
X127753333Y-71424819D01*
X127753333Y-71424819D02*
X127658095Y-71377200D01*
X127658095Y-71377200D02*
X127610476Y-71329580D01*
X131738095Y-71054819D02*
X131738095Y-70054819D01*
X132309523Y-71054819D02*
X131880952Y-70483390D01*
X132309523Y-70054819D02*
X131738095Y-70626247D01*
X68666667Y-82852200D02*
X68809524Y-82899819D01*
X68809524Y-82899819D02*
X69047619Y-82899819D01*
X69047619Y-82899819D02*
X69142857Y-82852200D01*
X69142857Y-82852200D02*
X69190476Y-82804580D01*
X69190476Y-82804580D02*
X69238095Y-82709342D01*
X69238095Y-82709342D02*
X69238095Y-82614104D01*
X69238095Y-82614104D02*
X69190476Y-82518866D01*
X69190476Y-82518866D02*
X69142857Y-82471247D01*
X69142857Y-82471247D02*
X69047619Y-82423628D01*
X69047619Y-82423628D02*
X68857143Y-82376009D01*
X68857143Y-82376009D02*
X68761905Y-82328390D01*
X68761905Y-82328390D02*
X68714286Y-82280771D01*
X68714286Y-82280771D02*
X68666667Y-82185533D01*
X68666667Y-82185533D02*
X68666667Y-82090295D01*
X68666667Y-82090295D02*
X68714286Y-81995057D01*
X68714286Y-81995057D02*
X68761905Y-81947438D01*
X68761905Y-81947438D02*
X68857143Y-81899819D01*
X68857143Y-81899819D02*
X69095238Y-81899819D01*
X69095238Y-81899819D02*
X69238095Y-81947438D01*
X69571429Y-81899819D02*
X69809524Y-82899819D01*
X69809524Y-82899819D02*
X70000000Y-82185533D01*
X70000000Y-82185533D02*
X70190476Y-82899819D01*
X70190476Y-82899819D02*
X70428572Y-81899819D01*
X70714286Y-81899819D02*
X71333333Y-81899819D01*
X71333333Y-81899819D02*
X71000000Y-82280771D01*
X71000000Y-82280771D02*
X71142857Y-82280771D01*
X71142857Y-82280771D02*
X71238095Y-82328390D01*
X71238095Y-82328390D02*
X71285714Y-82376009D01*
X71285714Y-82376009D02*
X71333333Y-82471247D01*
X71333333Y-82471247D02*
X71333333Y-82709342D01*
X71333333Y-82709342D02*
X71285714Y-82804580D01*
X71285714Y-82804580D02*
X71238095Y-82852200D01*
X71238095Y-82852200D02*
X71142857Y-82899819D01*
X71142857Y-82899819D02*
X70857143Y-82899819D01*
X70857143Y-82899819D02*
X70761905Y-82852200D01*
X70761905Y-82852200D02*
X70714286Y-82804580D01*
X87666667Y-82852200D02*
X87809524Y-82899819D01*
X87809524Y-82899819D02*
X88047619Y-82899819D01*
X88047619Y-82899819D02*
X88142857Y-82852200D01*
X88142857Y-82852200D02*
X88190476Y-82804580D01*
X88190476Y-82804580D02*
X88238095Y-82709342D01*
X88238095Y-82709342D02*
X88238095Y-82614104D01*
X88238095Y-82614104D02*
X88190476Y-82518866D01*
X88190476Y-82518866D02*
X88142857Y-82471247D01*
X88142857Y-82471247D02*
X88047619Y-82423628D01*
X88047619Y-82423628D02*
X87857143Y-82376009D01*
X87857143Y-82376009D02*
X87761905Y-82328390D01*
X87761905Y-82328390D02*
X87714286Y-82280771D01*
X87714286Y-82280771D02*
X87666667Y-82185533D01*
X87666667Y-82185533D02*
X87666667Y-82090295D01*
X87666667Y-82090295D02*
X87714286Y-81995057D01*
X87714286Y-81995057D02*
X87761905Y-81947438D01*
X87761905Y-81947438D02*
X87857143Y-81899819D01*
X87857143Y-81899819D02*
X88095238Y-81899819D01*
X88095238Y-81899819D02*
X88238095Y-81947438D01*
X88571429Y-81899819D02*
X88809524Y-82899819D01*
X88809524Y-82899819D02*
X89000000Y-82185533D01*
X89000000Y-82185533D02*
X89190476Y-82899819D01*
X89190476Y-82899819D02*
X89428572Y-81899819D01*
X89714286Y-81899819D02*
X90380952Y-81899819D01*
X90380952Y-81899819D02*
X89952381Y-82899819D01*
X154738095Y-46754819D02*
X154738095Y-45754819D01*
X154738095Y-46231009D02*
X155309523Y-46231009D01*
X155309523Y-46754819D02*
X155309523Y-45754819D01*
X155690476Y-45754819D02*
X156309523Y-45754819D01*
X156309523Y-45754819D02*
X155976190Y-46135771D01*
X155976190Y-46135771D02*
X156119047Y-46135771D01*
X156119047Y-46135771D02*
X156214285Y-46183390D01*
X156214285Y-46183390D02*
X156261904Y-46231009D01*
X156261904Y-46231009D02*
X156309523Y-46326247D01*
X156309523Y-46326247D02*
X156309523Y-46564342D01*
X156309523Y-46564342D02*
X156261904Y-46659580D01*
X156261904Y-46659580D02*
X156214285Y-46707200D01*
X156214285Y-46707200D02*
X156119047Y-46754819D01*
X156119047Y-46754819D02*
X155833333Y-46754819D01*
X155833333Y-46754819D02*
X155738095Y-46707200D01*
X155738095Y-46707200D02*
X155690476Y-46659580D01*
X179690476Y-79857200D02*
X179833333Y-79904819D01*
X179833333Y-79904819D02*
X180071428Y-79904819D01*
X180071428Y-79904819D02*
X180166666Y-79857200D01*
X180166666Y-79857200D02*
X180214285Y-79809580D01*
X180214285Y-79809580D02*
X180261904Y-79714342D01*
X180261904Y-79714342D02*
X180261904Y-79619104D01*
X180261904Y-79619104D02*
X180214285Y-79523866D01*
X180214285Y-79523866D02*
X180166666Y-79476247D01*
X180166666Y-79476247D02*
X180071428Y-79428628D01*
X180071428Y-79428628D02*
X179880952Y-79381009D01*
X179880952Y-79381009D02*
X179785714Y-79333390D01*
X179785714Y-79333390D02*
X179738095Y-79285771D01*
X179738095Y-79285771D02*
X179690476Y-79190533D01*
X179690476Y-79190533D02*
X179690476Y-79095295D01*
X179690476Y-79095295D02*
X179738095Y-79000057D01*
X179738095Y-79000057D02*
X179785714Y-78952438D01*
X179785714Y-78952438D02*
X179880952Y-78904819D01*
X179880952Y-78904819D02*
X180119047Y-78904819D01*
X180119047Y-78904819D02*
X180261904Y-78952438D01*
X180595238Y-78904819D02*
X180833333Y-79904819D01*
X180833333Y-79904819D02*
X181023809Y-79190533D01*
X181023809Y-79190533D02*
X181214285Y-79904819D01*
X181214285Y-79904819D02*
X181452381Y-78904819D01*
X181785714Y-79000057D02*
X181833333Y-78952438D01*
X181833333Y-78952438D02*
X181928571Y-78904819D01*
X181928571Y-78904819D02*
X182166666Y-78904819D01*
X182166666Y-78904819D02*
X182261904Y-78952438D01*
X182261904Y-78952438D02*
X182309523Y-79000057D01*
X182309523Y-79000057D02*
X182357142Y-79095295D01*
X182357142Y-79095295D02*
X182357142Y-79190533D01*
X182357142Y-79190533D02*
X182309523Y-79333390D01*
X182309523Y-79333390D02*
X181738095Y-79904819D01*
X181738095Y-79904819D02*
X182357142Y-79904819D01*
X183261904Y-78904819D02*
X182785714Y-78904819D01*
X182785714Y-78904819D02*
X182738095Y-79381009D01*
X182738095Y-79381009D02*
X182785714Y-79333390D01*
X182785714Y-79333390D02*
X182880952Y-79285771D01*
X182880952Y-79285771D02*
X183119047Y-79285771D01*
X183119047Y-79285771D02*
X183214285Y-79333390D01*
X183214285Y-79333390D02*
X183261904Y-79381009D01*
X183261904Y-79381009D02*
X183309523Y-79476247D01*
X183309523Y-79476247D02*
X183309523Y-79714342D01*
X183309523Y-79714342D02*
X183261904Y-79809580D01*
X183261904Y-79809580D02*
X183214285Y-79857200D01*
X183214285Y-79857200D02*
X183119047Y-79904819D01*
X183119047Y-79904819D02*
X182880952Y-79904819D01*
X182880952Y-79904819D02*
X182785714Y-79857200D01*
X182785714Y-79857200D02*
X182738095Y-79809580D01*
X183263775Y-128521939D02*
X184197356Y-128163571D01*
X184197356Y-128163571D02*
X184282681Y-128385852D01*
X184282681Y-128385852D02*
X184289421Y-128536286D01*
X184289421Y-128536286D02*
X184234638Y-128659328D01*
X184234638Y-128659328D02*
X184162791Y-128737915D01*
X184162791Y-128737915D02*
X184002031Y-128850631D01*
X184002031Y-128850631D02*
X183868663Y-128901827D01*
X183868663Y-128901827D02*
X183673773Y-128925631D01*
X183673773Y-128925631D02*
X183567795Y-128915305D01*
X183567795Y-128915305D02*
X183444753Y-128860523D01*
X183444753Y-128860523D02*
X183349101Y-128744220D01*
X183349101Y-128744220D02*
X183263775Y-128521939D01*
X184449746Y-129086825D02*
X184511267Y-129114216D01*
X184511267Y-129114216D02*
X184589854Y-129186064D01*
X184589854Y-129186064D02*
X184675180Y-129408345D01*
X184675180Y-129408345D02*
X184664854Y-129514322D01*
X184664854Y-129514322D02*
X184637463Y-129575844D01*
X184637463Y-129575844D02*
X184565615Y-129654430D01*
X184565615Y-129654430D02*
X184476703Y-129688560D01*
X184476703Y-129688560D02*
X184326269Y-129695299D01*
X184326269Y-129695299D02*
X183588013Y-129366607D01*
X183588013Y-129366607D02*
X183809860Y-129944537D01*
X184739419Y-130505837D02*
X184117032Y-130744749D01*
X185009743Y-130147035D02*
X184257574Y-130180731D01*
X184257574Y-130180731D02*
X184479421Y-130758662D01*
X185771012Y-134021056D02*
X186704592Y-133662688D01*
X185975794Y-134554530D02*
X186355682Y-133949643D01*
X186909374Y-134196162D02*
X186171118Y-133867470D01*
X106705714Y-71424819D02*
X106705714Y-70424819D01*
X106705714Y-70424819D02*
X106943809Y-70424819D01*
X106943809Y-70424819D02*
X107086666Y-70472438D01*
X107086666Y-70472438D02*
X107181904Y-70567676D01*
X107181904Y-70567676D02*
X107229523Y-70662914D01*
X107229523Y-70662914D02*
X107277142Y-70853390D01*
X107277142Y-70853390D02*
X107277142Y-70996247D01*
X107277142Y-70996247D02*
X107229523Y-71186723D01*
X107229523Y-71186723D02*
X107181904Y-71281961D01*
X107181904Y-71281961D02*
X107086666Y-71377200D01*
X107086666Y-71377200D02*
X106943809Y-71424819D01*
X106943809Y-71424819D02*
X106705714Y-71424819D01*
X108229523Y-71424819D02*
X107658095Y-71424819D01*
X107943809Y-71424819D02*
X107943809Y-70424819D01*
X107943809Y-70424819D02*
X107848571Y-70567676D01*
X107848571Y-70567676D02*
X107753333Y-70662914D01*
X107753333Y-70662914D02*
X107658095Y-70710533D01*
X109181904Y-71424819D02*
X108610476Y-71424819D01*
X108896190Y-71424819D02*
X108896190Y-70424819D01*
X108896190Y-70424819D02*
X108800952Y-70567676D01*
X108800952Y-70567676D02*
X108705714Y-70662914D01*
X108705714Y-70662914D02*
X108610476Y-70710533D01*
X112738095Y-71054819D02*
X112738095Y-70054819D01*
X113309523Y-71054819D02*
X112880952Y-70483390D01*
X113309523Y-70054819D02*
X112738095Y-70626247D01*
X178203333Y-93174819D02*
X177870000Y-92698628D01*
X177631905Y-93174819D02*
X177631905Y-92174819D01*
X177631905Y-92174819D02*
X178012857Y-92174819D01*
X178012857Y-92174819D02*
X178108095Y-92222438D01*
X178108095Y-92222438D02*
X178155714Y-92270057D01*
X178155714Y-92270057D02*
X178203333Y-92365295D01*
X178203333Y-92365295D02*
X178203333Y-92508152D01*
X178203333Y-92508152D02*
X178155714Y-92603390D01*
X178155714Y-92603390D02*
X178108095Y-92651009D01*
X178108095Y-92651009D02*
X178012857Y-92698628D01*
X178012857Y-92698628D02*
X177631905Y-92698628D01*
X179155714Y-93174819D02*
X178584286Y-93174819D01*
X178870000Y-93174819D02*
X178870000Y-92174819D01*
X178870000Y-92174819D02*
X178774762Y-92317676D01*
X178774762Y-92317676D02*
X178679524Y-92412914D01*
X178679524Y-92412914D02*
X178584286Y-92460533D01*
X161816307Y-115862748D02*
X161881290Y-115998590D01*
X161881290Y-115998590D02*
X162046685Y-116169861D01*
X162046685Y-116169861D02*
X162147097Y-116205291D01*
X162147097Y-116205291D02*
X162214430Y-116206466D01*
X162214430Y-116206466D02*
X162316018Y-116174562D01*
X162316018Y-116174562D02*
X162384526Y-116108404D01*
X162384526Y-116108404D02*
X162419956Y-116007992D01*
X162419956Y-116007992D02*
X162421131Y-115940659D01*
X162421131Y-115940659D02*
X162389228Y-115839071D01*
X162389228Y-115839071D02*
X162291166Y-115668975D01*
X162291166Y-115668975D02*
X162259262Y-115567388D01*
X162259262Y-115567388D02*
X162260438Y-115500055D01*
X162260438Y-115500055D02*
X162295867Y-115399642D01*
X162295867Y-115399642D02*
X162364376Y-115333484D01*
X162364376Y-115333484D02*
X162465963Y-115301581D01*
X162465963Y-115301581D02*
X162533297Y-115302756D01*
X162533297Y-115302756D02*
X162633709Y-115338186D01*
X162633709Y-115338186D02*
X162799104Y-115509457D01*
X162799104Y-115509457D02*
X162864086Y-115645299D01*
X163129893Y-115852000D02*
X162575949Y-116717930D01*
X162575949Y-116717930D02*
X163222079Y-116358762D01*
X163222079Y-116358762D02*
X162840580Y-116991964D01*
X162840580Y-116991964D02*
X163725315Y-116468577D01*
X163888359Y-116774515D02*
X163955692Y-116775690D01*
X163955692Y-116775690D02*
X164056105Y-116811119D01*
X164056105Y-116811119D02*
X164221499Y-116982391D01*
X164221499Y-116982391D02*
X164253403Y-117083978D01*
X164253403Y-117083978D02*
X164252228Y-117151312D01*
X164252228Y-117151312D02*
X164216798Y-117251724D01*
X164216798Y-117251724D02*
X164148290Y-117317882D01*
X164148290Y-117317882D02*
X164012448Y-117382864D01*
X164012448Y-117382864D02*
X163204449Y-117368761D01*
X163204449Y-117368761D02*
X163634475Y-117814066D01*
X164783842Y-117564714D02*
X164850000Y-117633222D01*
X164850000Y-117633222D02*
X164881903Y-117734810D01*
X164881903Y-117734810D02*
X164880728Y-117802143D01*
X164880728Y-117802143D02*
X164845299Y-117902555D01*
X164845299Y-117902555D02*
X164741360Y-118069125D01*
X164741360Y-118069125D02*
X164570089Y-118234520D01*
X164570089Y-118234520D02*
X164399993Y-118332582D01*
X164399993Y-118332582D02*
X164298405Y-118364485D01*
X164298405Y-118364485D02*
X164231072Y-118363310D01*
X164231072Y-118363310D02*
X164130660Y-118327880D01*
X164130660Y-118327880D02*
X164064502Y-118259372D01*
X164064502Y-118259372D02*
X164032598Y-118157784D01*
X164032598Y-118157784D02*
X164033774Y-118090451D01*
X164033774Y-118090451D02*
X164069203Y-117990039D01*
X164069203Y-117990039D02*
X164173141Y-117823469D01*
X164173141Y-117823469D02*
X164344413Y-117658074D01*
X164344413Y-117658074D02*
X164514509Y-117560012D01*
X164514509Y-117560012D02*
X164616096Y-117528109D01*
X164616096Y-117528109D02*
X164683430Y-117529284D01*
X164683430Y-117529284D02*
X164783842Y-117564714D01*
X144705714Y-52424819D02*
X144705714Y-51424819D01*
X144705714Y-51424819D02*
X144943809Y-51424819D01*
X144943809Y-51424819D02*
X145086666Y-51472438D01*
X145086666Y-51472438D02*
X145181904Y-51567676D01*
X145181904Y-51567676D02*
X145229523Y-51662914D01*
X145229523Y-51662914D02*
X145277142Y-51853390D01*
X145277142Y-51853390D02*
X145277142Y-51996247D01*
X145277142Y-51996247D02*
X145229523Y-52186723D01*
X145229523Y-52186723D02*
X145181904Y-52281961D01*
X145181904Y-52281961D02*
X145086666Y-52377200D01*
X145086666Y-52377200D02*
X144943809Y-52424819D01*
X144943809Y-52424819D02*
X144705714Y-52424819D01*
X146229523Y-52424819D02*
X145658095Y-52424819D01*
X145943809Y-52424819D02*
X145943809Y-51424819D01*
X145943809Y-51424819D02*
X145848571Y-51567676D01*
X145848571Y-51567676D02*
X145753333Y-51662914D01*
X145753333Y-51662914D02*
X145658095Y-51710533D01*
X146800952Y-51853390D02*
X146705714Y-51805771D01*
X146705714Y-51805771D02*
X146658095Y-51758152D01*
X146658095Y-51758152D02*
X146610476Y-51662914D01*
X146610476Y-51662914D02*
X146610476Y-51615295D01*
X146610476Y-51615295D02*
X146658095Y-51520057D01*
X146658095Y-51520057D02*
X146705714Y-51472438D01*
X146705714Y-51472438D02*
X146800952Y-51424819D01*
X146800952Y-51424819D02*
X146991428Y-51424819D01*
X146991428Y-51424819D02*
X147086666Y-51472438D01*
X147086666Y-51472438D02*
X147134285Y-51520057D01*
X147134285Y-51520057D02*
X147181904Y-51615295D01*
X147181904Y-51615295D02*
X147181904Y-51662914D01*
X147181904Y-51662914D02*
X147134285Y-51758152D01*
X147134285Y-51758152D02*
X147086666Y-51805771D01*
X147086666Y-51805771D02*
X146991428Y-51853390D01*
X146991428Y-51853390D02*
X146800952Y-51853390D01*
X146800952Y-51853390D02*
X146705714Y-51901009D01*
X146705714Y-51901009D02*
X146658095Y-51948628D01*
X146658095Y-51948628D02*
X146610476Y-52043866D01*
X146610476Y-52043866D02*
X146610476Y-52234342D01*
X146610476Y-52234342D02*
X146658095Y-52329580D01*
X146658095Y-52329580D02*
X146705714Y-52377200D01*
X146705714Y-52377200D02*
X146800952Y-52424819D01*
X146800952Y-52424819D02*
X146991428Y-52424819D01*
X146991428Y-52424819D02*
X147086666Y-52377200D01*
X147086666Y-52377200D02*
X147134285Y-52329580D01*
X147134285Y-52329580D02*
X147181904Y-52234342D01*
X147181904Y-52234342D02*
X147181904Y-52043866D01*
X147181904Y-52043866D02*
X147134285Y-51948628D01*
X147134285Y-51948628D02*
X147086666Y-51901009D01*
X147086666Y-51901009D02*
X146991428Y-51853390D01*
X150738095Y-52054819D02*
X150738095Y-51054819D01*
X151309523Y-52054819D02*
X150880952Y-51483390D01*
X151309523Y-51054819D02*
X150738095Y-51626247D01*
X69261905Y-52424819D02*
X69261905Y-51424819D01*
X69261905Y-51424819D02*
X69500000Y-51424819D01*
X69500000Y-51424819D02*
X69642857Y-51472438D01*
X69642857Y-51472438D02*
X69738095Y-51567676D01*
X69738095Y-51567676D02*
X69785714Y-51662914D01*
X69785714Y-51662914D02*
X69833333Y-51853390D01*
X69833333Y-51853390D02*
X69833333Y-51996247D01*
X69833333Y-51996247D02*
X69785714Y-52186723D01*
X69785714Y-52186723D02*
X69738095Y-52281961D01*
X69738095Y-52281961D02*
X69642857Y-52377200D01*
X69642857Y-52377200D02*
X69500000Y-52424819D01*
X69500000Y-52424819D02*
X69261905Y-52424819D01*
X70214286Y-51520057D02*
X70261905Y-51472438D01*
X70261905Y-51472438D02*
X70357143Y-51424819D01*
X70357143Y-51424819D02*
X70595238Y-51424819D01*
X70595238Y-51424819D02*
X70690476Y-51472438D01*
X70690476Y-51472438D02*
X70738095Y-51520057D01*
X70738095Y-51520057D02*
X70785714Y-51615295D01*
X70785714Y-51615295D02*
X70785714Y-51710533D01*
X70785714Y-51710533D02*
X70738095Y-51853390D01*
X70738095Y-51853390D02*
X70166667Y-52424819D01*
X70166667Y-52424819D02*
X70785714Y-52424819D01*
X74818095Y-52054819D02*
X74818095Y-51054819D01*
X75389523Y-52054819D02*
X74960952Y-51483390D01*
X75389523Y-51054819D02*
X74818095Y-51626247D01*
X88181905Y-52424819D02*
X88181905Y-51424819D01*
X88181905Y-51424819D02*
X88420000Y-51424819D01*
X88420000Y-51424819D02*
X88562857Y-51472438D01*
X88562857Y-51472438D02*
X88658095Y-51567676D01*
X88658095Y-51567676D02*
X88705714Y-51662914D01*
X88705714Y-51662914D02*
X88753333Y-51853390D01*
X88753333Y-51853390D02*
X88753333Y-51996247D01*
X88753333Y-51996247D02*
X88705714Y-52186723D01*
X88705714Y-52186723D02*
X88658095Y-52281961D01*
X88658095Y-52281961D02*
X88562857Y-52377200D01*
X88562857Y-52377200D02*
X88420000Y-52424819D01*
X88420000Y-52424819D02*
X88181905Y-52424819D01*
X89610476Y-51424819D02*
X89420000Y-51424819D01*
X89420000Y-51424819D02*
X89324762Y-51472438D01*
X89324762Y-51472438D02*
X89277143Y-51520057D01*
X89277143Y-51520057D02*
X89181905Y-51662914D01*
X89181905Y-51662914D02*
X89134286Y-51853390D01*
X89134286Y-51853390D02*
X89134286Y-52234342D01*
X89134286Y-52234342D02*
X89181905Y-52329580D01*
X89181905Y-52329580D02*
X89229524Y-52377200D01*
X89229524Y-52377200D02*
X89324762Y-52424819D01*
X89324762Y-52424819D02*
X89515238Y-52424819D01*
X89515238Y-52424819D02*
X89610476Y-52377200D01*
X89610476Y-52377200D02*
X89658095Y-52329580D01*
X89658095Y-52329580D02*
X89705714Y-52234342D01*
X89705714Y-52234342D02*
X89705714Y-51996247D01*
X89705714Y-51996247D02*
X89658095Y-51901009D01*
X89658095Y-51901009D02*
X89610476Y-51853390D01*
X89610476Y-51853390D02*
X89515238Y-51805771D01*
X89515238Y-51805771D02*
X89324762Y-51805771D01*
X89324762Y-51805771D02*
X89229524Y-51853390D01*
X89229524Y-51853390D02*
X89181905Y-51901009D01*
X89181905Y-51901009D02*
X89134286Y-51996247D01*
X93738095Y-52054819D02*
X93738095Y-51054819D01*
X94309523Y-52054819D02*
X93880952Y-51483390D01*
X94309523Y-51054819D02*
X93738095Y-51626247D01*
X125190476Y-101852200D02*
X125333333Y-101899819D01*
X125333333Y-101899819D02*
X125571428Y-101899819D01*
X125571428Y-101899819D02*
X125666666Y-101852200D01*
X125666666Y-101852200D02*
X125714285Y-101804580D01*
X125714285Y-101804580D02*
X125761904Y-101709342D01*
X125761904Y-101709342D02*
X125761904Y-101614104D01*
X125761904Y-101614104D02*
X125714285Y-101518866D01*
X125714285Y-101518866D02*
X125666666Y-101471247D01*
X125666666Y-101471247D02*
X125571428Y-101423628D01*
X125571428Y-101423628D02*
X125380952Y-101376009D01*
X125380952Y-101376009D02*
X125285714Y-101328390D01*
X125285714Y-101328390D02*
X125238095Y-101280771D01*
X125238095Y-101280771D02*
X125190476Y-101185533D01*
X125190476Y-101185533D02*
X125190476Y-101090295D01*
X125190476Y-101090295D02*
X125238095Y-100995057D01*
X125238095Y-100995057D02*
X125285714Y-100947438D01*
X125285714Y-100947438D02*
X125380952Y-100899819D01*
X125380952Y-100899819D02*
X125619047Y-100899819D01*
X125619047Y-100899819D02*
X125761904Y-100947438D01*
X126095238Y-100899819D02*
X126333333Y-101899819D01*
X126333333Y-101899819D02*
X126523809Y-101185533D01*
X126523809Y-101185533D02*
X126714285Y-101899819D01*
X126714285Y-101899819D02*
X126952381Y-100899819D01*
X127857142Y-101899819D02*
X127285714Y-101899819D01*
X127571428Y-101899819D02*
X127571428Y-100899819D01*
X127571428Y-100899819D02*
X127476190Y-101042676D01*
X127476190Y-101042676D02*
X127380952Y-101137914D01*
X127380952Y-101137914D02*
X127285714Y-101185533D01*
X128238095Y-100995057D02*
X128285714Y-100947438D01*
X128285714Y-100947438D02*
X128380952Y-100899819D01*
X128380952Y-100899819D02*
X128619047Y-100899819D01*
X128619047Y-100899819D02*
X128714285Y-100947438D01*
X128714285Y-100947438D02*
X128761904Y-100995057D01*
X128761904Y-100995057D02*
X128809523Y-101090295D01*
X128809523Y-101090295D02*
X128809523Y-101185533D01*
X128809523Y-101185533D02*
X128761904Y-101328390D01*
X128761904Y-101328390D02*
X128190476Y-101899819D01*
X128190476Y-101899819D02*
X128809523Y-101899819D01*
X87666667Y-63852200D02*
X87809524Y-63899819D01*
X87809524Y-63899819D02*
X88047619Y-63899819D01*
X88047619Y-63899819D02*
X88142857Y-63852200D01*
X88142857Y-63852200D02*
X88190476Y-63804580D01*
X88190476Y-63804580D02*
X88238095Y-63709342D01*
X88238095Y-63709342D02*
X88238095Y-63614104D01*
X88238095Y-63614104D02*
X88190476Y-63518866D01*
X88190476Y-63518866D02*
X88142857Y-63471247D01*
X88142857Y-63471247D02*
X88047619Y-63423628D01*
X88047619Y-63423628D02*
X87857143Y-63376009D01*
X87857143Y-63376009D02*
X87761905Y-63328390D01*
X87761905Y-63328390D02*
X87714286Y-63280771D01*
X87714286Y-63280771D02*
X87666667Y-63185533D01*
X87666667Y-63185533D02*
X87666667Y-63090295D01*
X87666667Y-63090295D02*
X87714286Y-62995057D01*
X87714286Y-62995057D02*
X87761905Y-62947438D01*
X87761905Y-62947438D02*
X87857143Y-62899819D01*
X87857143Y-62899819D02*
X88095238Y-62899819D01*
X88095238Y-62899819D02*
X88238095Y-62947438D01*
X88571429Y-62899819D02*
X88809524Y-63899819D01*
X88809524Y-63899819D02*
X89000000Y-63185533D01*
X89000000Y-63185533D02*
X89190476Y-63899819D01*
X89190476Y-63899819D02*
X89428572Y-62899819D01*
X90238095Y-62899819D02*
X90047619Y-62899819D01*
X90047619Y-62899819D02*
X89952381Y-62947438D01*
X89952381Y-62947438D02*
X89904762Y-62995057D01*
X89904762Y-62995057D02*
X89809524Y-63137914D01*
X89809524Y-63137914D02*
X89761905Y-63328390D01*
X89761905Y-63328390D02*
X89761905Y-63709342D01*
X89761905Y-63709342D02*
X89809524Y-63804580D01*
X89809524Y-63804580D02*
X89857143Y-63852200D01*
X89857143Y-63852200D02*
X89952381Y-63899819D01*
X89952381Y-63899819D02*
X90142857Y-63899819D01*
X90142857Y-63899819D02*
X90238095Y-63852200D01*
X90238095Y-63852200D02*
X90285714Y-63804580D01*
X90285714Y-63804580D02*
X90333333Y-63709342D01*
X90333333Y-63709342D02*
X90333333Y-63471247D01*
X90333333Y-63471247D02*
X90285714Y-63376009D01*
X90285714Y-63376009D02*
X90238095Y-63328390D01*
X90238095Y-63328390D02*
X90142857Y-63280771D01*
X90142857Y-63280771D02*
X89952381Y-63280771D01*
X89952381Y-63280771D02*
X89857143Y-63328390D01*
X89857143Y-63328390D02*
X89809524Y-63376009D01*
X89809524Y-63376009D02*
X89761905Y-63471247D01*
X163705714Y-52424819D02*
X163705714Y-51424819D01*
X163705714Y-51424819D02*
X163943809Y-51424819D01*
X163943809Y-51424819D02*
X164086666Y-51472438D01*
X164086666Y-51472438D02*
X164181904Y-51567676D01*
X164181904Y-51567676D02*
X164229523Y-51662914D01*
X164229523Y-51662914D02*
X164277142Y-51853390D01*
X164277142Y-51853390D02*
X164277142Y-51996247D01*
X164277142Y-51996247D02*
X164229523Y-52186723D01*
X164229523Y-52186723D02*
X164181904Y-52281961D01*
X164181904Y-52281961D02*
X164086666Y-52377200D01*
X164086666Y-52377200D02*
X163943809Y-52424819D01*
X163943809Y-52424819D02*
X163705714Y-52424819D01*
X164658095Y-51520057D02*
X164705714Y-51472438D01*
X164705714Y-51472438D02*
X164800952Y-51424819D01*
X164800952Y-51424819D02*
X165039047Y-51424819D01*
X165039047Y-51424819D02*
X165134285Y-51472438D01*
X165134285Y-51472438D02*
X165181904Y-51520057D01*
X165181904Y-51520057D02*
X165229523Y-51615295D01*
X165229523Y-51615295D02*
X165229523Y-51710533D01*
X165229523Y-51710533D02*
X165181904Y-51853390D01*
X165181904Y-51853390D02*
X164610476Y-52424819D01*
X164610476Y-52424819D02*
X165229523Y-52424819D01*
X165610476Y-51520057D02*
X165658095Y-51472438D01*
X165658095Y-51472438D02*
X165753333Y-51424819D01*
X165753333Y-51424819D02*
X165991428Y-51424819D01*
X165991428Y-51424819D02*
X166086666Y-51472438D01*
X166086666Y-51472438D02*
X166134285Y-51520057D01*
X166134285Y-51520057D02*
X166181904Y-51615295D01*
X166181904Y-51615295D02*
X166181904Y-51710533D01*
X166181904Y-51710533D02*
X166134285Y-51853390D01*
X166134285Y-51853390D02*
X165562857Y-52424819D01*
X165562857Y-52424819D02*
X166181904Y-52424819D01*
X169738095Y-52054819D02*
X169738095Y-51054819D01*
X170309523Y-52054819D02*
X169880952Y-51483390D01*
X170309523Y-51054819D02*
X169738095Y-51626247D01*
X179738095Y-103754819D02*
X179738095Y-102754819D01*
X179738095Y-103231009D02*
X180309523Y-103231009D01*
X180309523Y-103754819D02*
X180309523Y-102754819D01*
X181214285Y-103088152D02*
X181214285Y-103754819D01*
X180976190Y-102707200D02*
X180738095Y-103421485D01*
X180738095Y-103421485D02*
X181357142Y-103421485D01*
X163190476Y-82852200D02*
X163333333Y-82899819D01*
X163333333Y-82899819D02*
X163571428Y-82899819D01*
X163571428Y-82899819D02*
X163666666Y-82852200D01*
X163666666Y-82852200D02*
X163714285Y-82804580D01*
X163714285Y-82804580D02*
X163761904Y-82709342D01*
X163761904Y-82709342D02*
X163761904Y-82614104D01*
X163761904Y-82614104D02*
X163714285Y-82518866D01*
X163714285Y-82518866D02*
X163666666Y-82471247D01*
X163666666Y-82471247D02*
X163571428Y-82423628D01*
X163571428Y-82423628D02*
X163380952Y-82376009D01*
X163380952Y-82376009D02*
X163285714Y-82328390D01*
X163285714Y-82328390D02*
X163238095Y-82280771D01*
X163238095Y-82280771D02*
X163190476Y-82185533D01*
X163190476Y-82185533D02*
X163190476Y-82090295D01*
X163190476Y-82090295D02*
X163238095Y-81995057D01*
X163238095Y-81995057D02*
X163285714Y-81947438D01*
X163285714Y-81947438D02*
X163380952Y-81899819D01*
X163380952Y-81899819D02*
X163619047Y-81899819D01*
X163619047Y-81899819D02*
X163761904Y-81947438D01*
X164095238Y-81899819D02*
X164333333Y-82899819D01*
X164333333Y-82899819D02*
X164523809Y-82185533D01*
X164523809Y-82185533D02*
X164714285Y-82899819D01*
X164714285Y-82899819D02*
X164952381Y-81899819D01*
X165285714Y-81995057D02*
X165333333Y-81947438D01*
X165333333Y-81947438D02*
X165428571Y-81899819D01*
X165428571Y-81899819D02*
X165666666Y-81899819D01*
X165666666Y-81899819D02*
X165761904Y-81947438D01*
X165761904Y-81947438D02*
X165809523Y-81995057D01*
X165809523Y-81995057D02*
X165857142Y-82090295D01*
X165857142Y-82090295D02*
X165857142Y-82185533D01*
X165857142Y-82185533D02*
X165809523Y-82328390D01*
X165809523Y-82328390D02*
X165238095Y-82899819D01*
X165238095Y-82899819D02*
X165857142Y-82899819D01*
X166190476Y-81899819D02*
X166809523Y-81899819D01*
X166809523Y-81899819D02*
X166476190Y-82280771D01*
X166476190Y-82280771D02*
X166619047Y-82280771D01*
X166619047Y-82280771D02*
X166714285Y-82328390D01*
X166714285Y-82328390D02*
X166761904Y-82376009D01*
X166761904Y-82376009D02*
X166809523Y-82471247D01*
X166809523Y-82471247D02*
X166809523Y-82709342D01*
X166809523Y-82709342D02*
X166761904Y-82804580D01*
X166761904Y-82804580D02*
X166714285Y-82852200D01*
X166714285Y-82852200D02*
X166619047Y-82899819D01*
X166619047Y-82899819D02*
X166333333Y-82899819D01*
X166333333Y-82899819D02*
X166238095Y-82852200D01*
X166238095Y-82852200D02*
X166190476Y-82804580D01*
X173168528Y-132339300D02*
X173175267Y-132489734D01*
X173175267Y-132489734D02*
X173260593Y-132712015D01*
X173260593Y-132712015D02*
X173339180Y-132783862D01*
X173339180Y-132783862D02*
X173400701Y-132811253D01*
X173400701Y-132811253D02*
X173506679Y-132821579D01*
X173506679Y-132821579D02*
X173595591Y-132787449D01*
X173595591Y-132787449D02*
X173667438Y-132708862D01*
X173667438Y-132708862D02*
X173694829Y-132647341D01*
X173694829Y-132647341D02*
X173705155Y-132541363D01*
X173705155Y-132541363D02*
X173681351Y-132346473D01*
X173681351Y-132346473D02*
X173691677Y-132240496D01*
X173691677Y-132240496D02*
X173719068Y-132178974D01*
X173719068Y-132178974D02*
X173790915Y-132100388D01*
X173790915Y-132100388D02*
X173879828Y-132066258D01*
X173879828Y-132066258D02*
X173985805Y-132076584D01*
X173985805Y-132076584D02*
X174047326Y-132103975D01*
X174047326Y-132103975D02*
X174125913Y-132175822D01*
X174125913Y-132175822D02*
X174211239Y-132398103D01*
X174211239Y-132398103D02*
X174217978Y-132548537D01*
X174381890Y-132842665D02*
X173533635Y-133423314D01*
X173533635Y-133423314D02*
X174268739Y-133345162D01*
X174268739Y-133345162D02*
X173670157Y-133778964D01*
X173670157Y-133778964D02*
X174689063Y-133642877D01*
X174719606Y-133988201D02*
X174781128Y-134015592D01*
X174781128Y-134015592D02*
X174859714Y-134087439D01*
X174859714Y-134087439D02*
X174945040Y-134309720D01*
X174945040Y-134309720D02*
X174934714Y-134415698D01*
X174934714Y-134415698D02*
X174907323Y-134477219D01*
X174907323Y-134477219D02*
X174835475Y-134555805D01*
X174835475Y-134555805D02*
X174746563Y-134589936D01*
X174746563Y-134589936D02*
X174596129Y-134596675D01*
X174596129Y-134596675D02*
X173857873Y-134267982D01*
X173857873Y-134267982D02*
X174079720Y-134845913D01*
X175009279Y-135407213D02*
X174386892Y-135646125D01*
X175279603Y-135048410D02*
X174527434Y-135082107D01*
X174527434Y-135082107D02*
X174749281Y-135660037D01*
X163190476Y-63852200D02*
X163333333Y-63899819D01*
X163333333Y-63899819D02*
X163571428Y-63899819D01*
X163571428Y-63899819D02*
X163666666Y-63852200D01*
X163666666Y-63852200D02*
X163714285Y-63804580D01*
X163714285Y-63804580D02*
X163761904Y-63709342D01*
X163761904Y-63709342D02*
X163761904Y-63614104D01*
X163761904Y-63614104D02*
X163714285Y-63518866D01*
X163714285Y-63518866D02*
X163666666Y-63471247D01*
X163666666Y-63471247D02*
X163571428Y-63423628D01*
X163571428Y-63423628D02*
X163380952Y-63376009D01*
X163380952Y-63376009D02*
X163285714Y-63328390D01*
X163285714Y-63328390D02*
X163238095Y-63280771D01*
X163238095Y-63280771D02*
X163190476Y-63185533D01*
X163190476Y-63185533D02*
X163190476Y-63090295D01*
X163190476Y-63090295D02*
X163238095Y-62995057D01*
X163238095Y-62995057D02*
X163285714Y-62947438D01*
X163285714Y-62947438D02*
X163380952Y-62899819D01*
X163380952Y-62899819D02*
X163619047Y-62899819D01*
X163619047Y-62899819D02*
X163761904Y-62947438D01*
X164095238Y-62899819D02*
X164333333Y-63899819D01*
X164333333Y-63899819D02*
X164523809Y-63185533D01*
X164523809Y-63185533D02*
X164714285Y-63899819D01*
X164714285Y-63899819D02*
X164952381Y-62899819D01*
X165285714Y-62995057D02*
X165333333Y-62947438D01*
X165333333Y-62947438D02*
X165428571Y-62899819D01*
X165428571Y-62899819D02*
X165666666Y-62899819D01*
X165666666Y-62899819D02*
X165761904Y-62947438D01*
X165761904Y-62947438D02*
X165809523Y-62995057D01*
X165809523Y-62995057D02*
X165857142Y-63090295D01*
X165857142Y-63090295D02*
X165857142Y-63185533D01*
X165857142Y-63185533D02*
X165809523Y-63328390D01*
X165809523Y-63328390D02*
X165238095Y-63899819D01*
X165238095Y-63899819D02*
X165857142Y-63899819D01*
X166238095Y-62995057D02*
X166285714Y-62947438D01*
X166285714Y-62947438D02*
X166380952Y-62899819D01*
X166380952Y-62899819D02*
X166619047Y-62899819D01*
X166619047Y-62899819D02*
X166714285Y-62947438D01*
X166714285Y-62947438D02*
X166761904Y-62995057D01*
X166761904Y-62995057D02*
X166809523Y-63090295D01*
X166809523Y-63090295D02*
X166809523Y-63185533D01*
X166809523Y-63185533D02*
X166761904Y-63328390D01*
X166761904Y-63328390D02*
X166190476Y-63899819D01*
X166190476Y-63899819D02*
X166809523Y-63899819D01*
X69261905Y-33424819D02*
X69261905Y-32424819D01*
X69261905Y-32424819D02*
X69500000Y-32424819D01*
X69500000Y-32424819D02*
X69642857Y-32472438D01*
X69642857Y-32472438D02*
X69738095Y-32567676D01*
X69738095Y-32567676D02*
X69785714Y-32662914D01*
X69785714Y-32662914D02*
X69833333Y-32853390D01*
X69833333Y-32853390D02*
X69833333Y-32996247D01*
X69833333Y-32996247D02*
X69785714Y-33186723D01*
X69785714Y-33186723D02*
X69738095Y-33281961D01*
X69738095Y-33281961D02*
X69642857Y-33377200D01*
X69642857Y-33377200D02*
X69500000Y-33424819D01*
X69500000Y-33424819D02*
X69261905Y-33424819D01*
X70785714Y-33424819D02*
X70214286Y-33424819D01*
X70500000Y-33424819D02*
X70500000Y-32424819D01*
X70500000Y-32424819D02*
X70404762Y-32567676D01*
X70404762Y-32567676D02*
X70309524Y-32662914D01*
X70309524Y-32662914D02*
X70214286Y-32710533D01*
X74818095Y-33054819D02*
X74818095Y-32054819D01*
X75389523Y-33054819D02*
X74960952Y-32483390D01*
X75389523Y-32054819D02*
X74818095Y-32626247D01*
X106705714Y-52424819D02*
X106705714Y-51424819D01*
X106705714Y-51424819D02*
X106943809Y-51424819D01*
X106943809Y-51424819D02*
X107086666Y-51472438D01*
X107086666Y-51472438D02*
X107181904Y-51567676D01*
X107181904Y-51567676D02*
X107229523Y-51662914D01*
X107229523Y-51662914D02*
X107277142Y-51853390D01*
X107277142Y-51853390D02*
X107277142Y-51996247D01*
X107277142Y-51996247D02*
X107229523Y-52186723D01*
X107229523Y-52186723D02*
X107181904Y-52281961D01*
X107181904Y-52281961D02*
X107086666Y-52377200D01*
X107086666Y-52377200D02*
X106943809Y-52424819D01*
X106943809Y-52424819D02*
X106705714Y-52424819D01*
X108229523Y-52424819D02*
X107658095Y-52424819D01*
X107943809Y-52424819D02*
X107943809Y-51424819D01*
X107943809Y-51424819D02*
X107848571Y-51567676D01*
X107848571Y-51567676D02*
X107753333Y-51662914D01*
X107753333Y-51662914D02*
X107658095Y-51710533D01*
X108848571Y-51424819D02*
X108943809Y-51424819D01*
X108943809Y-51424819D02*
X109039047Y-51472438D01*
X109039047Y-51472438D02*
X109086666Y-51520057D01*
X109086666Y-51520057D02*
X109134285Y-51615295D01*
X109134285Y-51615295D02*
X109181904Y-51805771D01*
X109181904Y-51805771D02*
X109181904Y-52043866D01*
X109181904Y-52043866D02*
X109134285Y-52234342D01*
X109134285Y-52234342D02*
X109086666Y-52329580D01*
X109086666Y-52329580D02*
X109039047Y-52377200D01*
X109039047Y-52377200D02*
X108943809Y-52424819D01*
X108943809Y-52424819D02*
X108848571Y-52424819D01*
X108848571Y-52424819D02*
X108753333Y-52377200D01*
X108753333Y-52377200D02*
X108705714Y-52329580D01*
X108705714Y-52329580D02*
X108658095Y-52234342D01*
X108658095Y-52234342D02*
X108610476Y-52043866D01*
X108610476Y-52043866D02*
X108610476Y-51805771D01*
X108610476Y-51805771D02*
X108658095Y-51615295D01*
X108658095Y-51615295D02*
X108705714Y-51520057D01*
X108705714Y-51520057D02*
X108753333Y-51472438D01*
X108753333Y-51472438D02*
X108848571Y-51424819D01*
X112738095Y-52054819D02*
X112738095Y-51054819D01*
X113309523Y-52054819D02*
X112880952Y-51483390D01*
X113309523Y-51054819D02*
X112738095Y-51626247D01*
X144928630Y-105131669D02*
X145041525Y-105231321D01*
X145041525Y-105231321D02*
X145260693Y-105324352D01*
X145260693Y-105324352D02*
X145366966Y-105317731D01*
X145366966Y-105317731D02*
X145429406Y-105292504D01*
X145429406Y-105292504D02*
X145510452Y-105223443D01*
X145510452Y-105223443D02*
X145547664Y-105135776D01*
X145547664Y-105135776D02*
X145541043Y-105029503D01*
X145541043Y-105029503D02*
X145515816Y-104967063D01*
X145515816Y-104967063D02*
X145446755Y-104886017D01*
X145446755Y-104886017D02*
X145290027Y-104767758D01*
X145290027Y-104767758D02*
X145220966Y-104686712D01*
X145220966Y-104686712D02*
X145195739Y-104624272D01*
X145195739Y-104624272D02*
X145189118Y-104517999D01*
X145189118Y-104517999D02*
X145226330Y-104430332D01*
X145226330Y-104430332D02*
X145307376Y-104361271D01*
X145307376Y-104361271D02*
X145369816Y-104336044D01*
X145369816Y-104336044D02*
X145476089Y-104329422D01*
X145476089Y-104329422D02*
X145695257Y-104422454D01*
X145695257Y-104422454D02*
X145808152Y-104522106D01*
X146133593Y-104608516D02*
X145962030Y-105622052D01*
X145962030Y-105622052D02*
X146416458Y-105038974D01*
X146416458Y-105038974D02*
X146312698Y-105770902D01*
X146312698Y-105770902D02*
X146922597Y-104943429D01*
X147364704Y-106217452D02*
X146838701Y-105994177D01*
X147101702Y-106105815D02*
X147492433Y-105185310D01*
X147492433Y-105185310D02*
X147348947Y-105279598D01*
X147348947Y-105279598D02*
X147224068Y-105330053D01*
X147224068Y-105330053D02*
X147117795Y-105336674D01*
X148544439Y-105631860D02*
X148369105Y-105557435D01*
X148369105Y-105557435D02*
X148262831Y-105564056D01*
X148262831Y-105564056D02*
X148200392Y-105589283D01*
X148200392Y-105589283D02*
X148056906Y-105683571D01*
X148056906Y-105683571D02*
X147938647Y-105840299D01*
X147938647Y-105840299D02*
X147789797Y-106190968D01*
X147789797Y-106190968D02*
X147796418Y-106297241D01*
X147796418Y-106297241D02*
X147821646Y-106359681D01*
X147821646Y-106359681D02*
X147890706Y-106440727D01*
X147890706Y-106440727D02*
X148066041Y-106515152D01*
X148066041Y-106515152D02*
X148172314Y-106508531D01*
X148172314Y-106508531D02*
X148234754Y-106483304D01*
X148234754Y-106483304D02*
X148315800Y-106414243D01*
X148315800Y-106414243D02*
X148408831Y-106195075D01*
X148408831Y-106195075D02*
X148402210Y-106088801D01*
X148402210Y-106088801D02*
X148376983Y-106026362D01*
X148376983Y-106026362D02*
X148307922Y-105945316D01*
X148307922Y-105945316D02*
X148132588Y-105870891D01*
X148132588Y-105870891D02*
X148026314Y-105877512D01*
X148026314Y-105877512D02*
X147963874Y-105902739D01*
X147963874Y-105902739D02*
X147882828Y-105971800D01*
X106190476Y-82852200D02*
X106333333Y-82899819D01*
X106333333Y-82899819D02*
X106571428Y-82899819D01*
X106571428Y-82899819D02*
X106666666Y-82852200D01*
X106666666Y-82852200D02*
X106714285Y-82804580D01*
X106714285Y-82804580D02*
X106761904Y-82709342D01*
X106761904Y-82709342D02*
X106761904Y-82614104D01*
X106761904Y-82614104D02*
X106714285Y-82518866D01*
X106714285Y-82518866D02*
X106666666Y-82471247D01*
X106666666Y-82471247D02*
X106571428Y-82423628D01*
X106571428Y-82423628D02*
X106380952Y-82376009D01*
X106380952Y-82376009D02*
X106285714Y-82328390D01*
X106285714Y-82328390D02*
X106238095Y-82280771D01*
X106238095Y-82280771D02*
X106190476Y-82185533D01*
X106190476Y-82185533D02*
X106190476Y-82090295D01*
X106190476Y-82090295D02*
X106238095Y-81995057D01*
X106238095Y-81995057D02*
X106285714Y-81947438D01*
X106285714Y-81947438D02*
X106380952Y-81899819D01*
X106380952Y-81899819D02*
X106619047Y-81899819D01*
X106619047Y-81899819D02*
X106761904Y-81947438D01*
X107095238Y-81899819D02*
X107333333Y-82899819D01*
X107333333Y-82899819D02*
X107523809Y-82185533D01*
X107523809Y-82185533D02*
X107714285Y-82899819D01*
X107714285Y-82899819D02*
X107952381Y-81899819D01*
X108857142Y-82899819D02*
X108285714Y-82899819D01*
X108571428Y-82899819D02*
X108571428Y-81899819D01*
X108571428Y-81899819D02*
X108476190Y-82042676D01*
X108476190Y-82042676D02*
X108380952Y-82137914D01*
X108380952Y-82137914D02*
X108285714Y-82185533D01*
X109809523Y-82899819D02*
X109238095Y-82899819D01*
X109523809Y-82899819D02*
X109523809Y-81899819D01*
X109523809Y-81899819D02*
X109428571Y-82042676D01*
X109428571Y-82042676D02*
X109333333Y-82137914D01*
X109333333Y-82137914D02*
X109238095Y-82185533D01*
X185238095Y-68774819D02*
X185238095Y-69584342D01*
X185238095Y-69584342D02*
X185285714Y-69679580D01*
X185285714Y-69679580D02*
X185333333Y-69727200D01*
X185333333Y-69727200D02*
X185428571Y-69774819D01*
X185428571Y-69774819D02*
X185619047Y-69774819D01*
X185619047Y-69774819D02*
X185714285Y-69727200D01*
X185714285Y-69727200D02*
X185761904Y-69679580D01*
X185761904Y-69679580D02*
X185809523Y-69584342D01*
X185809523Y-69584342D02*
X185809523Y-68774819D01*
X186809523Y-69774819D02*
X186238095Y-69774819D01*
X186523809Y-69774819D02*
X186523809Y-68774819D01*
X186523809Y-68774819D02*
X186428571Y-68917676D01*
X186428571Y-68917676D02*
X186333333Y-69012914D01*
X186333333Y-69012914D02*
X186238095Y-69060533D01*
D11*
X180493646Y-48457419D02*
X181112693Y-48457419D01*
X181112693Y-48457419D02*
X180779360Y-48838371D01*
X180779360Y-48838371D02*
X180922217Y-48838371D01*
X180922217Y-48838371D02*
X181017455Y-48885990D01*
X181017455Y-48885990D02*
X181065074Y-48933609D01*
X181065074Y-48933609D02*
X181112693Y-49028847D01*
X181112693Y-49028847D02*
X181112693Y-49266942D01*
X181112693Y-49266942D02*
X181065074Y-49362180D01*
X181065074Y-49362180D02*
X181017455Y-49409800D01*
X181017455Y-49409800D02*
X180922217Y-49457419D01*
X180922217Y-49457419D02*
X180636503Y-49457419D01*
X180636503Y-49457419D02*
X180541265Y-49409800D01*
X180541265Y-49409800D02*
X180493646Y-49362180D01*
X182255550Y-48409800D02*
X181398408Y-49695514D01*
X182588884Y-49457419D02*
X182588884Y-48457419D01*
X182588884Y-48457419D02*
X182826979Y-48457419D01*
X182826979Y-48457419D02*
X182969836Y-48505038D01*
X182969836Y-48505038D02*
X183065074Y-48600276D01*
X183065074Y-48600276D02*
X183112693Y-48695514D01*
X183112693Y-48695514D02*
X183160312Y-48885990D01*
X183160312Y-48885990D02*
X183160312Y-49028847D01*
X183160312Y-49028847D02*
X183112693Y-49219323D01*
X183112693Y-49219323D02*
X183065074Y-49314561D01*
X183065074Y-49314561D02*
X182969836Y-49409800D01*
X182969836Y-49409800D02*
X182826979Y-49457419D01*
X182826979Y-49457419D02*
X182588884Y-49457419D01*
X183779360Y-48457419D02*
X183874598Y-48457419D01*
X183874598Y-48457419D02*
X183969836Y-48505038D01*
X183969836Y-48505038D02*
X184017455Y-48552657D01*
X184017455Y-48552657D02*
X184065074Y-48647895D01*
X184065074Y-48647895D02*
X184112693Y-48838371D01*
X184112693Y-48838371D02*
X184112693Y-49076466D01*
X184112693Y-49076466D02*
X184065074Y-49266942D01*
X184065074Y-49266942D02*
X184017455Y-49362180D01*
X184017455Y-49362180D02*
X183969836Y-49409800D01*
X183969836Y-49409800D02*
X183874598Y-49457419D01*
X183874598Y-49457419D02*
X183779360Y-49457419D01*
X183779360Y-49457419D02*
X183684122Y-49409800D01*
X183684122Y-49409800D02*
X183636503Y-49362180D01*
X183636503Y-49362180D02*
X183588884Y-49266942D01*
X183588884Y-49266942D02*
X183541265Y-49076466D01*
X183541265Y-49076466D02*
X183541265Y-48838371D01*
X183541265Y-48838371D02*
X183588884Y-48647895D01*
X183588884Y-48647895D02*
X183636503Y-48552657D01*
X183636503Y-48552657D02*
X183684122Y-48505038D01*
X183684122Y-48505038D02*
X183779360Y-48457419D01*
X181017455Y-51330752D02*
X181017455Y-51997419D01*
X180779360Y-50949800D02*
X180541265Y-51664085D01*
X180541265Y-51664085D02*
X181160312Y-51664085D01*
X182255550Y-50949800D02*
X181398408Y-52235514D01*
X182588884Y-51997419D02*
X182588884Y-50997419D01*
X182588884Y-50997419D02*
X182826979Y-50997419D01*
X182826979Y-50997419D02*
X182969836Y-51045038D01*
X182969836Y-51045038D02*
X183065074Y-51140276D01*
X183065074Y-51140276D02*
X183112693Y-51235514D01*
X183112693Y-51235514D02*
X183160312Y-51425990D01*
X183160312Y-51425990D02*
X183160312Y-51568847D01*
X183160312Y-51568847D02*
X183112693Y-51759323D01*
X183112693Y-51759323D02*
X183065074Y-51854561D01*
X183065074Y-51854561D02*
X182969836Y-51949800D01*
X182969836Y-51949800D02*
X182826979Y-51997419D01*
X182826979Y-51997419D02*
X182588884Y-51997419D01*
X184017455Y-51330752D02*
X184017455Y-51997419D01*
X183779360Y-50949800D02*
X183541265Y-51664085D01*
X183541265Y-51664085D02*
X184160312Y-51664085D01*
X180731741Y-61585990D02*
X180636503Y-61538371D01*
X180636503Y-61538371D02*
X180588884Y-61490752D01*
X180588884Y-61490752D02*
X180541265Y-61395514D01*
X180541265Y-61395514D02*
X180541265Y-61347895D01*
X180541265Y-61347895D02*
X180588884Y-61252657D01*
X180588884Y-61252657D02*
X180636503Y-61205038D01*
X180636503Y-61205038D02*
X180731741Y-61157419D01*
X180731741Y-61157419D02*
X180922217Y-61157419D01*
X180922217Y-61157419D02*
X181017455Y-61205038D01*
X181017455Y-61205038D02*
X181065074Y-61252657D01*
X181065074Y-61252657D02*
X181112693Y-61347895D01*
X181112693Y-61347895D02*
X181112693Y-61395514D01*
X181112693Y-61395514D02*
X181065074Y-61490752D01*
X181065074Y-61490752D02*
X181017455Y-61538371D01*
X181017455Y-61538371D02*
X180922217Y-61585990D01*
X180922217Y-61585990D02*
X180731741Y-61585990D01*
X180731741Y-61585990D02*
X180636503Y-61633609D01*
X180636503Y-61633609D02*
X180588884Y-61681228D01*
X180588884Y-61681228D02*
X180541265Y-61776466D01*
X180541265Y-61776466D02*
X180541265Y-61966942D01*
X180541265Y-61966942D02*
X180588884Y-62062180D01*
X180588884Y-62062180D02*
X180636503Y-62109800D01*
X180636503Y-62109800D02*
X180731741Y-62157419D01*
X180731741Y-62157419D02*
X180922217Y-62157419D01*
X180922217Y-62157419D02*
X181017455Y-62109800D01*
X181017455Y-62109800D02*
X181065074Y-62062180D01*
X181065074Y-62062180D02*
X181112693Y-61966942D01*
X181112693Y-61966942D02*
X181112693Y-61776466D01*
X181112693Y-61776466D02*
X181065074Y-61681228D01*
X181065074Y-61681228D02*
X181017455Y-61633609D01*
X181017455Y-61633609D02*
X180922217Y-61585990D01*
X182255550Y-61109800D02*
X181398408Y-62395514D01*
X182922217Y-61633609D02*
X183065074Y-61681228D01*
X183065074Y-61681228D02*
X183112693Y-61728847D01*
X183112693Y-61728847D02*
X183160312Y-61824085D01*
X183160312Y-61824085D02*
X183160312Y-61966942D01*
X183160312Y-61966942D02*
X183112693Y-62062180D01*
X183112693Y-62062180D02*
X183065074Y-62109800D01*
X183065074Y-62109800D02*
X182969836Y-62157419D01*
X182969836Y-62157419D02*
X182588884Y-62157419D01*
X182588884Y-62157419D02*
X182588884Y-61157419D01*
X182588884Y-61157419D02*
X182922217Y-61157419D01*
X182922217Y-61157419D02*
X183017455Y-61205038D01*
X183017455Y-61205038D02*
X183065074Y-61252657D01*
X183065074Y-61252657D02*
X183112693Y-61347895D01*
X183112693Y-61347895D02*
X183112693Y-61443133D01*
X183112693Y-61443133D02*
X183065074Y-61538371D01*
X183065074Y-61538371D02*
X183017455Y-61585990D01*
X183017455Y-61585990D02*
X182922217Y-61633609D01*
X182922217Y-61633609D02*
X182588884Y-61633609D01*
X184017455Y-61490752D02*
X184017455Y-62157419D01*
X183779360Y-61109800D02*
X183541265Y-61824085D01*
X183541265Y-61824085D02*
X184160312Y-61824085D01*
X187506353Y-62157419D02*
X186934925Y-62157419D01*
X187220639Y-62157419D02*
X187220639Y-61157419D01*
X187220639Y-61157419D02*
X187125401Y-61300276D01*
X187125401Y-61300276D02*
X187030163Y-61395514D01*
X187030163Y-61395514D02*
X186934925Y-61443133D01*
X188363496Y-61157419D02*
X188173020Y-61157419D01*
X188173020Y-61157419D02*
X188077782Y-61205038D01*
X188077782Y-61205038D02*
X188030163Y-61252657D01*
X188030163Y-61252657D02*
X187934925Y-61395514D01*
X187934925Y-61395514D02*
X187887306Y-61585990D01*
X187887306Y-61585990D02*
X187887306Y-61966942D01*
X187887306Y-61966942D02*
X187934925Y-62062180D01*
X187934925Y-62062180D02*
X187982544Y-62109800D01*
X187982544Y-62109800D02*
X188077782Y-62157419D01*
X188077782Y-62157419D02*
X188268258Y-62157419D01*
X188268258Y-62157419D02*
X188363496Y-62109800D01*
X188363496Y-62109800D02*
X188411115Y-62062180D01*
X188411115Y-62062180D02*
X188458734Y-61966942D01*
X188458734Y-61966942D02*
X188458734Y-61728847D01*
X188458734Y-61728847D02*
X188411115Y-61633609D01*
X188411115Y-61633609D02*
X188363496Y-61585990D01*
X188363496Y-61585990D02*
X188268258Y-61538371D01*
X188268258Y-61538371D02*
X188077782Y-61538371D01*
X188077782Y-61538371D02*
X187982544Y-61585990D01*
X187982544Y-61585990D02*
X187934925Y-61633609D01*
X187934925Y-61633609D02*
X187887306Y-61728847D01*
X189601591Y-61109800D02*
X188744449Y-62395514D01*
X190268258Y-61633609D02*
X190411115Y-61681228D01*
X190411115Y-61681228D02*
X190458734Y-61728847D01*
X190458734Y-61728847D02*
X190506353Y-61824085D01*
X190506353Y-61824085D02*
X190506353Y-61966942D01*
X190506353Y-61966942D02*
X190458734Y-62062180D01*
X190458734Y-62062180D02*
X190411115Y-62109800D01*
X190411115Y-62109800D02*
X190315877Y-62157419D01*
X190315877Y-62157419D02*
X189934925Y-62157419D01*
X189934925Y-62157419D02*
X189934925Y-61157419D01*
X189934925Y-61157419D02*
X190268258Y-61157419D01*
X190268258Y-61157419D02*
X190363496Y-61205038D01*
X190363496Y-61205038D02*
X190411115Y-61252657D01*
X190411115Y-61252657D02*
X190458734Y-61347895D01*
X190458734Y-61347895D02*
X190458734Y-61443133D01*
X190458734Y-61443133D02*
X190411115Y-61538371D01*
X190411115Y-61538371D02*
X190363496Y-61585990D01*
X190363496Y-61585990D02*
X190268258Y-61633609D01*
X190268258Y-61633609D02*
X189934925Y-61633609D01*
X190887306Y-61252657D02*
X190934925Y-61205038D01*
X190934925Y-61205038D02*
X191030163Y-61157419D01*
X191030163Y-61157419D02*
X191268258Y-61157419D01*
X191268258Y-61157419D02*
X191363496Y-61205038D01*
X191363496Y-61205038D02*
X191411115Y-61252657D01*
X191411115Y-61252657D02*
X191458734Y-61347895D01*
X191458734Y-61347895D02*
X191458734Y-61443133D01*
X191458734Y-61443133D02*
X191411115Y-61585990D01*
X191411115Y-61585990D02*
X190839687Y-62157419D01*
X190839687Y-62157419D02*
X191458734Y-62157419D01*
X181065074Y-53537419D02*
X180588884Y-53537419D01*
X180588884Y-53537419D02*
X180541265Y-54013609D01*
X180541265Y-54013609D02*
X180588884Y-53965990D01*
X180588884Y-53965990D02*
X180684122Y-53918371D01*
X180684122Y-53918371D02*
X180922217Y-53918371D01*
X180922217Y-53918371D02*
X181017455Y-53965990D01*
X181017455Y-53965990D02*
X181065074Y-54013609D01*
X181065074Y-54013609D02*
X181112693Y-54108847D01*
X181112693Y-54108847D02*
X181112693Y-54346942D01*
X181112693Y-54346942D02*
X181065074Y-54442180D01*
X181065074Y-54442180D02*
X181017455Y-54489800D01*
X181017455Y-54489800D02*
X180922217Y-54537419D01*
X180922217Y-54537419D02*
X180684122Y-54537419D01*
X180684122Y-54537419D02*
X180588884Y-54489800D01*
X180588884Y-54489800D02*
X180541265Y-54442180D01*
X182255550Y-53489800D02*
X181398408Y-54775514D01*
X183160312Y-54442180D02*
X183112693Y-54489800D01*
X183112693Y-54489800D02*
X182969836Y-54537419D01*
X182969836Y-54537419D02*
X182874598Y-54537419D01*
X182874598Y-54537419D02*
X182731741Y-54489800D01*
X182731741Y-54489800D02*
X182636503Y-54394561D01*
X182636503Y-54394561D02*
X182588884Y-54299323D01*
X182588884Y-54299323D02*
X182541265Y-54108847D01*
X182541265Y-54108847D02*
X182541265Y-53965990D01*
X182541265Y-53965990D02*
X182588884Y-53775514D01*
X182588884Y-53775514D02*
X182636503Y-53680276D01*
X182636503Y-53680276D02*
X182731741Y-53585038D01*
X182731741Y-53585038D02*
X182874598Y-53537419D01*
X182874598Y-53537419D02*
X182969836Y-53537419D01*
X182969836Y-53537419D02*
X183112693Y-53585038D01*
X183112693Y-53585038D02*
X183160312Y-53632657D01*
X184017455Y-53537419D02*
X183826979Y-53537419D01*
X183826979Y-53537419D02*
X183731741Y-53585038D01*
X183731741Y-53585038D02*
X183684122Y-53632657D01*
X183684122Y-53632657D02*
X183588884Y-53775514D01*
X183588884Y-53775514D02*
X183541265Y-53965990D01*
X183541265Y-53965990D02*
X183541265Y-54346942D01*
X183541265Y-54346942D02*
X183588884Y-54442180D01*
X183588884Y-54442180D02*
X183636503Y-54489800D01*
X183636503Y-54489800D02*
X183731741Y-54537419D01*
X183731741Y-54537419D02*
X183922217Y-54537419D01*
X183922217Y-54537419D02*
X184017455Y-54489800D01*
X184017455Y-54489800D02*
X184065074Y-54442180D01*
X184065074Y-54442180D02*
X184112693Y-54346942D01*
X184112693Y-54346942D02*
X184112693Y-54108847D01*
X184112693Y-54108847D02*
X184065074Y-54013609D01*
X184065074Y-54013609D02*
X184017455Y-53965990D01*
X184017455Y-53965990D02*
X183922217Y-53918371D01*
X183922217Y-53918371D02*
X183731741Y-53918371D01*
X183731741Y-53918371D02*
X183636503Y-53965990D01*
X183636503Y-53965990D02*
X183588884Y-54013609D01*
X183588884Y-54013609D02*
X183541265Y-54108847D01*
X181112693Y-40885038D02*
X181017455Y-40837419D01*
X181017455Y-40837419D02*
X180874598Y-40837419D01*
X180874598Y-40837419D02*
X180731741Y-40885038D01*
X180731741Y-40885038D02*
X180636503Y-40980276D01*
X180636503Y-40980276D02*
X180588884Y-41075514D01*
X180588884Y-41075514D02*
X180541265Y-41265990D01*
X180541265Y-41265990D02*
X180541265Y-41408847D01*
X180541265Y-41408847D02*
X180588884Y-41599323D01*
X180588884Y-41599323D02*
X180636503Y-41694561D01*
X180636503Y-41694561D02*
X180731741Y-41789800D01*
X180731741Y-41789800D02*
X180874598Y-41837419D01*
X180874598Y-41837419D02*
X180969836Y-41837419D01*
X180969836Y-41837419D02*
X181112693Y-41789800D01*
X181112693Y-41789800D02*
X181160312Y-41742180D01*
X181160312Y-41742180D02*
X181160312Y-41408847D01*
X181160312Y-41408847D02*
X180969836Y-41408847D01*
X181588884Y-41837419D02*
X181588884Y-40837419D01*
X181588884Y-40837419D02*
X182160312Y-41837419D01*
X182160312Y-41837419D02*
X182160312Y-40837419D01*
X182636503Y-41837419D02*
X182636503Y-40837419D01*
X182636503Y-40837419D02*
X182874598Y-40837419D01*
X182874598Y-40837419D02*
X183017455Y-40885038D01*
X183017455Y-40885038D02*
X183112693Y-40980276D01*
X183112693Y-40980276D02*
X183160312Y-41075514D01*
X183160312Y-41075514D02*
X183207931Y-41265990D01*
X183207931Y-41265990D02*
X183207931Y-41408847D01*
X183207931Y-41408847D02*
X183160312Y-41599323D01*
X183160312Y-41599323D02*
X183112693Y-41694561D01*
X183112693Y-41694561D02*
X183017455Y-41789800D01*
X183017455Y-41789800D02*
X182874598Y-41837419D01*
X182874598Y-41837419D02*
X182636503Y-41837419D01*
X181112693Y-43425038D02*
X181017455Y-43377419D01*
X181017455Y-43377419D02*
X180874598Y-43377419D01*
X180874598Y-43377419D02*
X180731741Y-43425038D01*
X180731741Y-43425038D02*
X180636503Y-43520276D01*
X180636503Y-43520276D02*
X180588884Y-43615514D01*
X180588884Y-43615514D02*
X180541265Y-43805990D01*
X180541265Y-43805990D02*
X180541265Y-43948847D01*
X180541265Y-43948847D02*
X180588884Y-44139323D01*
X180588884Y-44139323D02*
X180636503Y-44234561D01*
X180636503Y-44234561D02*
X180731741Y-44329800D01*
X180731741Y-44329800D02*
X180874598Y-44377419D01*
X180874598Y-44377419D02*
X180969836Y-44377419D01*
X180969836Y-44377419D02*
X181112693Y-44329800D01*
X181112693Y-44329800D02*
X181160312Y-44282180D01*
X181160312Y-44282180D02*
X181160312Y-43948847D01*
X181160312Y-43948847D02*
X180969836Y-43948847D01*
X181588884Y-44377419D02*
X181588884Y-43377419D01*
X181588884Y-43377419D02*
X182160312Y-44377419D01*
X182160312Y-44377419D02*
X182160312Y-43377419D01*
X182636503Y-44377419D02*
X182636503Y-43377419D01*
X182636503Y-43377419D02*
X182874598Y-43377419D01*
X182874598Y-43377419D02*
X183017455Y-43425038D01*
X183017455Y-43425038D02*
X183112693Y-43520276D01*
X183112693Y-43520276D02*
X183160312Y-43615514D01*
X183160312Y-43615514D02*
X183207931Y-43805990D01*
X183207931Y-43805990D02*
X183207931Y-43948847D01*
X183207931Y-43948847D02*
X183160312Y-44139323D01*
X183160312Y-44139323D02*
X183112693Y-44234561D01*
X183112693Y-44234561D02*
X183017455Y-44329800D01*
X183017455Y-44329800D02*
X182874598Y-44377419D01*
X182874598Y-44377419D02*
X182636503Y-44377419D01*
X180541265Y-46012657D02*
X180588884Y-45965038D01*
X180588884Y-45965038D02*
X180684122Y-45917419D01*
X180684122Y-45917419D02*
X180922217Y-45917419D01*
X180922217Y-45917419D02*
X181017455Y-45965038D01*
X181017455Y-45965038D02*
X181065074Y-46012657D01*
X181065074Y-46012657D02*
X181112693Y-46107895D01*
X181112693Y-46107895D02*
X181112693Y-46203133D01*
X181112693Y-46203133D02*
X181065074Y-46345990D01*
X181065074Y-46345990D02*
X180493646Y-46917419D01*
X180493646Y-46917419D02*
X181112693Y-46917419D01*
X182255550Y-45869800D02*
X181398408Y-47155514D01*
X182588884Y-46917419D02*
X182588884Y-45917419D01*
X182588884Y-45917419D02*
X182826979Y-45917419D01*
X182826979Y-45917419D02*
X182969836Y-45965038D01*
X182969836Y-45965038D02*
X183065074Y-46060276D01*
X183065074Y-46060276D02*
X183112693Y-46155514D01*
X183112693Y-46155514D02*
X183160312Y-46345990D01*
X183160312Y-46345990D02*
X183160312Y-46488847D01*
X183160312Y-46488847D02*
X183112693Y-46679323D01*
X183112693Y-46679323D02*
X183065074Y-46774561D01*
X183065074Y-46774561D02*
X182969836Y-46869800D01*
X182969836Y-46869800D02*
X182826979Y-46917419D01*
X182826979Y-46917419D02*
X182588884Y-46917419D01*
X184112693Y-46917419D02*
X183541265Y-46917419D01*
X183826979Y-46917419D02*
X183826979Y-45917419D01*
X183826979Y-45917419D02*
X183731741Y-46060276D01*
X183731741Y-46060276D02*
X183636503Y-46155514D01*
X183636503Y-46155514D02*
X183541265Y-46203133D01*
X180446027Y-35757419D02*
X181017455Y-35757419D01*
X180731741Y-36757419D02*
X180731741Y-35757419D01*
X181255551Y-35757419D02*
X181922217Y-36757419D01*
X181922217Y-35757419D02*
X181255551Y-36757419D01*
X187506353Y-57077419D02*
X186934925Y-57077419D01*
X187220639Y-57077419D02*
X187220639Y-56077419D01*
X187220639Y-56077419D02*
X187125401Y-56220276D01*
X187125401Y-56220276D02*
X187030163Y-56315514D01*
X187030163Y-56315514D02*
X186934925Y-56363133D01*
X188411115Y-56077419D02*
X187934925Y-56077419D01*
X187934925Y-56077419D02*
X187887306Y-56553609D01*
X187887306Y-56553609D02*
X187934925Y-56505990D01*
X187934925Y-56505990D02*
X188030163Y-56458371D01*
X188030163Y-56458371D02*
X188268258Y-56458371D01*
X188268258Y-56458371D02*
X188363496Y-56505990D01*
X188363496Y-56505990D02*
X188411115Y-56553609D01*
X188411115Y-56553609D02*
X188458734Y-56648847D01*
X188458734Y-56648847D02*
X188458734Y-56886942D01*
X188458734Y-56886942D02*
X188411115Y-56982180D01*
X188411115Y-56982180D02*
X188363496Y-57029800D01*
X188363496Y-57029800D02*
X188268258Y-57077419D01*
X188268258Y-57077419D02*
X188030163Y-57077419D01*
X188030163Y-57077419D02*
X187934925Y-57029800D01*
X187934925Y-57029800D02*
X187887306Y-56982180D01*
X189601591Y-56029800D02*
X188744449Y-57315514D01*
X190268258Y-56553609D02*
X190411115Y-56601228D01*
X190411115Y-56601228D02*
X190458734Y-56648847D01*
X190458734Y-56648847D02*
X190506353Y-56744085D01*
X190506353Y-56744085D02*
X190506353Y-56886942D01*
X190506353Y-56886942D02*
X190458734Y-56982180D01*
X190458734Y-56982180D02*
X190411115Y-57029800D01*
X190411115Y-57029800D02*
X190315877Y-57077419D01*
X190315877Y-57077419D02*
X189934925Y-57077419D01*
X189934925Y-57077419D02*
X189934925Y-56077419D01*
X189934925Y-56077419D02*
X190268258Y-56077419D01*
X190268258Y-56077419D02*
X190363496Y-56125038D01*
X190363496Y-56125038D02*
X190411115Y-56172657D01*
X190411115Y-56172657D02*
X190458734Y-56267895D01*
X190458734Y-56267895D02*
X190458734Y-56363133D01*
X190458734Y-56363133D02*
X190411115Y-56458371D01*
X190411115Y-56458371D02*
X190363496Y-56505990D01*
X190363496Y-56505990D02*
X190268258Y-56553609D01*
X190268258Y-56553609D02*
X189934925Y-56553609D01*
X191458734Y-57077419D02*
X190887306Y-57077419D01*
X191173020Y-57077419D02*
X191173020Y-56077419D01*
X191173020Y-56077419D02*
X191077782Y-56220276D01*
X191077782Y-56220276D02*
X190982544Y-56315514D01*
X190982544Y-56315514D02*
X190887306Y-56363133D01*
X188887306Y-43377419D02*
X189220639Y-44377419D01*
X189220639Y-44377419D02*
X189553972Y-43377419D01*
X190458734Y-44282180D02*
X190411115Y-44329800D01*
X190411115Y-44329800D02*
X190268258Y-44377419D01*
X190268258Y-44377419D02*
X190173020Y-44377419D01*
X190173020Y-44377419D02*
X190030163Y-44329800D01*
X190030163Y-44329800D02*
X189934925Y-44234561D01*
X189934925Y-44234561D02*
X189887306Y-44139323D01*
X189887306Y-44139323D02*
X189839687Y-43948847D01*
X189839687Y-43948847D02*
X189839687Y-43805990D01*
X189839687Y-43805990D02*
X189887306Y-43615514D01*
X189887306Y-43615514D02*
X189934925Y-43520276D01*
X189934925Y-43520276D02*
X190030163Y-43425038D01*
X190030163Y-43425038D02*
X190173020Y-43377419D01*
X190173020Y-43377419D02*
X190268258Y-43377419D01*
X190268258Y-43377419D02*
X190411115Y-43425038D01*
X190411115Y-43425038D02*
X190458734Y-43472657D01*
X191458734Y-44282180D02*
X191411115Y-44329800D01*
X191411115Y-44329800D02*
X191268258Y-44377419D01*
X191268258Y-44377419D02*
X191173020Y-44377419D01*
X191173020Y-44377419D02*
X191030163Y-44329800D01*
X191030163Y-44329800D02*
X190934925Y-44234561D01*
X190934925Y-44234561D02*
X190887306Y-44139323D01*
X190887306Y-44139323D02*
X190839687Y-43948847D01*
X190839687Y-43948847D02*
X190839687Y-43805990D01*
X190839687Y-43805990D02*
X190887306Y-43615514D01*
X190887306Y-43615514D02*
X190934925Y-43520276D01*
X190934925Y-43520276D02*
X191030163Y-43425038D01*
X191030163Y-43425038D02*
X191173020Y-43377419D01*
X191173020Y-43377419D02*
X191268258Y-43377419D01*
X191268258Y-43377419D02*
X191411115Y-43425038D01*
X191411115Y-43425038D02*
X191458734Y-43472657D01*
X187077782Y-46012657D02*
X187125401Y-45965038D01*
X187125401Y-45965038D02*
X187220639Y-45917419D01*
X187220639Y-45917419D02*
X187458734Y-45917419D01*
X187458734Y-45917419D02*
X187553972Y-45965038D01*
X187553972Y-45965038D02*
X187601591Y-46012657D01*
X187601591Y-46012657D02*
X187649210Y-46107895D01*
X187649210Y-46107895D02*
X187649210Y-46203133D01*
X187649210Y-46203133D02*
X187601591Y-46345990D01*
X187601591Y-46345990D02*
X187030163Y-46917419D01*
X187030163Y-46917419D02*
X187649210Y-46917419D01*
X188601591Y-46917419D02*
X188030163Y-46917419D01*
X188315877Y-46917419D02*
X188315877Y-45917419D01*
X188315877Y-45917419D02*
X188220639Y-46060276D01*
X188220639Y-46060276D02*
X188125401Y-46155514D01*
X188125401Y-46155514D02*
X188030163Y-46203133D01*
X189744448Y-45869800D02*
X188887306Y-47155514D01*
X190411115Y-46393609D02*
X190077782Y-46393609D01*
X190077782Y-46917419D02*
X190077782Y-45917419D01*
X190077782Y-45917419D02*
X190553972Y-45917419D01*
X191363496Y-46250752D02*
X191363496Y-46917419D01*
X191125401Y-45869800D02*
X190887306Y-46584085D01*
X190887306Y-46584085D02*
X191506353Y-46584085D01*
X181160312Y-39297419D02*
X180826979Y-38821228D01*
X180588884Y-39297419D02*
X180588884Y-38297419D01*
X180588884Y-38297419D02*
X180969836Y-38297419D01*
X180969836Y-38297419D02*
X181065074Y-38345038D01*
X181065074Y-38345038D02*
X181112693Y-38392657D01*
X181112693Y-38392657D02*
X181160312Y-38487895D01*
X181160312Y-38487895D02*
X181160312Y-38630752D01*
X181160312Y-38630752D02*
X181112693Y-38725990D01*
X181112693Y-38725990D02*
X181065074Y-38773609D01*
X181065074Y-38773609D02*
X180969836Y-38821228D01*
X180969836Y-38821228D02*
X180588884Y-38821228D01*
X181493646Y-38297419D02*
X182160312Y-39297419D01*
X182160312Y-38297419D02*
X181493646Y-39297419D01*
X187506353Y-64697419D02*
X186934925Y-64697419D01*
X187220639Y-64697419D02*
X187220639Y-63697419D01*
X187220639Y-63697419D02*
X187125401Y-63840276D01*
X187125401Y-63840276D02*
X187030163Y-63935514D01*
X187030163Y-63935514D02*
X186934925Y-63983133D01*
X188125401Y-63697419D02*
X188220639Y-63697419D01*
X188220639Y-63697419D02*
X188315877Y-63745038D01*
X188315877Y-63745038D02*
X188363496Y-63792657D01*
X188363496Y-63792657D02*
X188411115Y-63887895D01*
X188411115Y-63887895D02*
X188458734Y-64078371D01*
X188458734Y-64078371D02*
X188458734Y-64316466D01*
X188458734Y-64316466D02*
X188411115Y-64506942D01*
X188411115Y-64506942D02*
X188363496Y-64602180D01*
X188363496Y-64602180D02*
X188315877Y-64649800D01*
X188315877Y-64649800D02*
X188220639Y-64697419D01*
X188220639Y-64697419D02*
X188125401Y-64697419D01*
X188125401Y-64697419D02*
X188030163Y-64649800D01*
X188030163Y-64649800D02*
X187982544Y-64602180D01*
X187982544Y-64602180D02*
X187934925Y-64506942D01*
X187934925Y-64506942D02*
X187887306Y-64316466D01*
X187887306Y-64316466D02*
X187887306Y-64078371D01*
X187887306Y-64078371D02*
X187934925Y-63887895D01*
X187934925Y-63887895D02*
X187982544Y-63792657D01*
X187982544Y-63792657D02*
X188030163Y-63745038D01*
X188030163Y-63745038D02*
X188125401Y-63697419D01*
X189601591Y-63649800D02*
X188744449Y-64935514D01*
X190268258Y-64173609D02*
X190411115Y-64221228D01*
X190411115Y-64221228D02*
X190458734Y-64268847D01*
X190458734Y-64268847D02*
X190506353Y-64364085D01*
X190506353Y-64364085D02*
X190506353Y-64506942D01*
X190506353Y-64506942D02*
X190458734Y-64602180D01*
X190458734Y-64602180D02*
X190411115Y-64649800D01*
X190411115Y-64649800D02*
X190315877Y-64697419D01*
X190315877Y-64697419D02*
X189934925Y-64697419D01*
X189934925Y-64697419D02*
X189934925Y-63697419D01*
X189934925Y-63697419D02*
X190268258Y-63697419D01*
X190268258Y-63697419D02*
X190363496Y-63745038D01*
X190363496Y-63745038D02*
X190411115Y-63792657D01*
X190411115Y-63792657D02*
X190458734Y-63887895D01*
X190458734Y-63887895D02*
X190458734Y-63983133D01*
X190458734Y-63983133D02*
X190411115Y-64078371D01*
X190411115Y-64078371D02*
X190363496Y-64125990D01*
X190363496Y-64125990D02*
X190268258Y-64173609D01*
X190268258Y-64173609D02*
X189934925Y-64173609D01*
X191363496Y-63697419D02*
X191173020Y-63697419D01*
X191173020Y-63697419D02*
X191077782Y-63745038D01*
X191077782Y-63745038D02*
X191030163Y-63792657D01*
X191030163Y-63792657D02*
X190934925Y-63935514D01*
X190934925Y-63935514D02*
X190887306Y-64125990D01*
X190887306Y-64125990D02*
X190887306Y-64506942D01*
X190887306Y-64506942D02*
X190934925Y-64602180D01*
X190934925Y-64602180D02*
X190982544Y-64649800D01*
X190982544Y-64649800D02*
X191077782Y-64697419D01*
X191077782Y-64697419D02*
X191268258Y-64697419D01*
X191268258Y-64697419D02*
X191363496Y-64649800D01*
X191363496Y-64649800D02*
X191411115Y-64602180D01*
X191411115Y-64602180D02*
X191458734Y-64506942D01*
X191458734Y-64506942D02*
X191458734Y-64268847D01*
X191458734Y-64268847D02*
X191411115Y-64173609D01*
X191411115Y-64173609D02*
X191363496Y-64125990D01*
X191363496Y-64125990D02*
X191268258Y-64078371D01*
X191268258Y-64078371D02*
X191077782Y-64078371D01*
X191077782Y-64078371D02*
X190982544Y-64125990D01*
X190982544Y-64125990D02*
X190934925Y-64173609D01*
X190934925Y-64173609D02*
X190887306Y-64268847D01*
X187649210Y-54537419D02*
X187077782Y-54537419D01*
X187363496Y-54537419D02*
X187363496Y-53537419D01*
X187363496Y-53537419D02*
X187268258Y-53680276D01*
X187268258Y-53680276D02*
X187173020Y-53775514D01*
X187173020Y-53775514D02*
X187077782Y-53823133D01*
X188220639Y-53965990D02*
X188125401Y-53918371D01*
X188125401Y-53918371D02*
X188077782Y-53870752D01*
X188077782Y-53870752D02*
X188030163Y-53775514D01*
X188030163Y-53775514D02*
X188030163Y-53727895D01*
X188030163Y-53727895D02*
X188077782Y-53632657D01*
X188077782Y-53632657D02*
X188125401Y-53585038D01*
X188125401Y-53585038D02*
X188220639Y-53537419D01*
X188220639Y-53537419D02*
X188411115Y-53537419D01*
X188411115Y-53537419D02*
X188506353Y-53585038D01*
X188506353Y-53585038D02*
X188553972Y-53632657D01*
X188553972Y-53632657D02*
X188601591Y-53727895D01*
X188601591Y-53727895D02*
X188601591Y-53775514D01*
X188601591Y-53775514D02*
X188553972Y-53870752D01*
X188553972Y-53870752D02*
X188506353Y-53918371D01*
X188506353Y-53918371D02*
X188411115Y-53965990D01*
X188411115Y-53965990D02*
X188220639Y-53965990D01*
X188220639Y-53965990D02*
X188125401Y-54013609D01*
X188125401Y-54013609D02*
X188077782Y-54061228D01*
X188077782Y-54061228D02*
X188030163Y-54156466D01*
X188030163Y-54156466D02*
X188030163Y-54346942D01*
X188030163Y-54346942D02*
X188077782Y-54442180D01*
X188077782Y-54442180D02*
X188125401Y-54489800D01*
X188125401Y-54489800D02*
X188220639Y-54537419D01*
X188220639Y-54537419D02*
X188411115Y-54537419D01*
X188411115Y-54537419D02*
X188506353Y-54489800D01*
X188506353Y-54489800D02*
X188553972Y-54442180D01*
X188553972Y-54442180D02*
X188601591Y-54346942D01*
X188601591Y-54346942D02*
X188601591Y-54156466D01*
X188601591Y-54156466D02*
X188553972Y-54061228D01*
X188553972Y-54061228D02*
X188506353Y-54013609D01*
X188506353Y-54013609D02*
X188411115Y-53965990D01*
X189744448Y-53489800D02*
X188887306Y-54775514D01*
X190411115Y-54013609D02*
X190077782Y-54013609D01*
X190077782Y-54537419D02*
X190077782Y-53537419D01*
X190077782Y-53537419D02*
X190553972Y-53537419D01*
X190839687Y-53537419D02*
X191506353Y-53537419D01*
X191506353Y-53537419D02*
X191077782Y-54537419D01*
X181017455Y-56077419D02*
X180826979Y-56077419D01*
X180826979Y-56077419D02*
X180731741Y-56125038D01*
X180731741Y-56125038D02*
X180684122Y-56172657D01*
X180684122Y-56172657D02*
X180588884Y-56315514D01*
X180588884Y-56315514D02*
X180541265Y-56505990D01*
X180541265Y-56505990D02*
X180541265Y-56886942D01*
X180541265Y-56886942D02*
X180588884Y-56982180D01*
X180588884Y-56982180D02*
X180636503Y-57029800D01*
X180636503Y-57029800D02*
X180731741Y-57077419D01*
X180731741Y-57077419D02*
X180922217Y-57077419D01*
X180922217Y-57077419D02*
X181017455Y-57029800D01*
X181017455Y-57029800D02*
X181065074Y-56982180D01*
X181065074Y-56982180D02*
X181112693Y-56886942D01*
X181112693Y-56886942D02*
X181112693Y-56648847D01*
X181112693Y-56648847D02*
X181065074Y-56553609D01*
X181065074Y-56553609D02*
X181017455Y-56505990D01*
X181017455Y-56505990D02*
X180922217Y-56458371D01*
X180922217Y-56458371D02*
X180731741Y-56458371D01*
X180731741Y-56458371D02*
X180636503Y-56505990D01*
X180636503Y-56505990D02*
X180588884Y-56553609D01*
X180588884Y-56553609D02*
X180541265Y-56648847D01*
X182255550Y-56029800D02*
X181398408Y-57315514D01*
X182588884Y-57077419D02*
X182588884Y-56077419D01*
X182588884Y-56077419D02*
X182826979Y-56077419D01*
X182826979Y-56077419D02*
X182969836Y-56125038D01*
X182969836Y-56125038D02*
X183065074Y-56220276D01*
X183065074Y-56220276D02*
X183112693Y-56315514D01*
X183112693Y-56315514D02*
X183160312Y-56505990D01*
X183160312Y-56505990D02*
X183160312Y-56648847D01*
X183160312Y-56648847D02*
X183112693Y-56839323D01*
X183112693Y-56839323D02*
X183065074Y-56934561D01*
X183065074Y-56934561D02*
X182969836Y-57029800D01*
X182969836Y-57029800D02*
X182826979Y-57077419D01*
X182826979Y-57077419D02*
X182588884Y-57077419D01*
X183493646Y-56077419D02*
X184160312Y-56077419D01*
X184160312Y-56077419D02*
X183731741Y-57077419D01*
X189744448Y-41837419D02*
X189411115Y-41361228D01*
X189173020Y-41837419D02*
X189173020Y-40837419D01*
X189173020Y-40837419D02*
X189553972Y-40837419D01*
X189553972Y-40837419D02*
X189649210Y-40885038D01*
X189649210Y-40885038D02*
X189696829Y-40932657D01*
X189696829Y-40932657D02*
X189744448Y-41027895D01*
X189744448Y-41027895D02*
X189744448Y-41170752D01*
X189744448Y-41170752D02*
X189696829Y-41265990D01*
X189696829Y-41265990D02*
X189649210Y-41313609D01*
X189649210Y-41313609D02*
X189553972Y-41361228D01*
X189553972Y-41361228D02*
X189173020Y-41361228D01*
X190125401Y-41789800D02*
X190268258Y-41837419D01*
X190268258Y-41837419D02*
X190506353Y-41837419D01*
X190506353Y-41837419D02*
X190601591Y-41789800D01*
X190601591Y-41789800D02*
X190649210Y-41742180D01*
X190649210Y-41742180D02*
X190696829Y-41646942D01*
X190696829Y-41646942D02*
X190696829Y-41551704D01*
X190696829Y-41551704D02*
X190649210Y-41456466D01*
X190649210Y-41456466D02*
X190601591Y-41408847D01*
X190601591Y-41408847D02*
X190506353Y-41361228D01*
X190506353Y-41361228D02*
X190315877Y-41313609D01*
X190315877Y-41313609D02*
X190220639Y-41265990D01*
X190220639Y-41265990D02*
X190173020Y-41218371D01*
X190173020Y-41218371D02*
X190125401Y-41123133D01*
X190125401Y-41123133D02*
X190125401Y-41027895D01*
X190125401Y-41027895D02*
X190173020Y-40932657D01*
X190173020Y-40932657D02*
X190220639Y-40885038D01*
X190220639Y-40885038D02*
X190315877Y-40837419D01*
X190315877Y-40837419D02*
X190553972Y-40837419D01*
X190553972Y-40837419D02*
X190696829Y-40885038D01*
X190982544Y-40837419D02*
X191553972Y-40837419D01*
X191268258Y-41837419D02*
X191268258Y-40837419D01*
X189458734Y-36757419D02*
X189125401Y-36281228D01*
X188887306Y-36757419D02*
X188887306Y-35757419D01*
X188887306Y-35757419D02*
X189268258Y-35757419D01*
X189268258Y-35757419D02*
X189363496Y-35805038D01*
X189363496Y-35805038D02*
X189411115Y-35852657D01*
X189411115Y-35852657D02*
X189458734Y-35947895D01*
X189458734Y-35947895D02*
X189458734Y-36090752D01*
X189458734Y-36090752D02*
X189411115Y-36185990D01*
X189411115Y-36185990D02*
X189363496Y-36233609D01*
X189363496Y-36233609D02*
X189268258Y-36281228D01*
X189268258Y-36281228D02*
X188887306Y-36281228D01*
X189839687Y-36471704D02*
X190315877Y-36471704D01*
X189744449Y-36757419D02*
X190077782Y-35757419D01*
X190077782Y-35757419D02*
X190411115Y-36757419D01*
X190649211Y-35757419D02*
X190887306Y-36757419D01*
X190887306Y-36757419D02*
X191077782Y-36043133D01*
X191077782Y-36043133D02*
X191268258Y-36757419D01*
X191268258Y-36757419D02*
X191506354Y-35757419D01*
X180636503Y-64697419D02*
X180826979Y-64697419D01*
X180826979Y-64697419D02*
X180922217Y-64649800D01*
X180922217Y-64649800D02*
X180969836Y-64602180D01*
X180969836Y-64602180D02*
X181065074Y-64459323D01*
X181065074Y-64459323D02*
X181112693Y-64268847D01*
X181112693Y-64268847D02*
X181112693Y-63887895D01*
X181112693Y-63887895D02*
X181065074Y-63792657D01*
X181065074Y-63792657D02*
X181017455Y-63745038D01*
X181017455Y-63745038D02*
X180922217Y-63697419D01*
X180922217Y-63697419D02*
X180731741Y-63697419D01*
X180731741Y-63697419D02*
X180636503Y-63745038D01*
X180636503Y-63745038D02*
X180588884Y-63792657D01*
X180588884Y-63792657D02*
X180541265Y-63887895D01*
X180541265Y-63887895D02*
X180541265Y-64125990D01*
X180541265Y-64125990D02*
X180588884Y-64221228D01*
X180588884Y-64221228D02*
X180636503Y-64268847D01*
X180636503Y-64268847D02*
X180731741Y-64316466D01*
X180731741Y-64316466D02*
X180922217Y-64316466D01*
X180922217Y-64316466D02*
X181017455Y-64268847D01*
X181017455Y-64268847D02*
X181065074Y-64221228D01*
X181065074Y-64221228D02*
X181112693Y-64125990D01*
X182255550Y-63649800D02*
X181398408Y-64935514D01*
X182922217Y-64173609D02*
X183065074Y-64221228D01*
X183065074Y-64221228D02*
X183112693Y-64268847D01*
X183112693Y-64268847D02*
X183160312Y-64364085D01*
X183160312Y-64364085D02*
X183160312Y-64506942D01*
X183160312Y-64506942D02*
X183112693Y-64602180D01*
X183112693Y-64602180D02*
X183065074Y-64649800D01*
X183065074Y-64649800D02*
X182969836Y-64697419D01*
X182969836Y-64697419D02*
X182588884Y-64697419D01*
X182588884Y-64697419D02*
X182588884Y-63697419D01*
X182588884Y-63697419D02*
X182922217Y-63697419D01*
X182922217Y-63697419D02*
X183017455Y-63745038D01*
X183017455Y-63745038D02*
X183065074Y-63792657D01*
X183065074Y-63792657D02*
X183112693Y-63887895D01*
X183112693Y-63887895D02*
X183112693Y-63983133D01*
X183112693Y-63983133D02*
X183065074Y-64078371D01*
X183065074Y-64078371D02*
X183017455Y-64125990D01*
X183017455Y-64125990D02*
X182922217Y-64173609D01*
X182922217Y-64173609D02*
X182588884Y-64173609D01*
X184065074Y-63697419D02*
X183588884Y-63697419D01*
X183588884Y-63697419D02*
X183541265Y-64173609D01*
X183541265Y-64173609D02*
X183588884Y-64125990D01*
X183588884Y-64125990D02*
X183684122Y-64078371D01*
X183684122Y-64078371D02*
X183922217Y-64078371D01*
X183922217Y-64078371D02*
X184017455Y-64125990D01*
X184017455Y-64125990D02*
X184065074Y-64173609D01*
X184065074Y-64173609D02*
X184112693Y-64268847D01*
X184112693Y-64268847D02*
X184112693Y-64506942D01*
X184112693Y-64506942D02*
X184065074Y-64602180D01*
X184065074Y-64602180D02*
X184017455Y-64649800D01*
X184017455Y-64649800D02*
X183922217Y-64697419D01*
X183922217Y-64697419D02*
X183684122Y-64697419D01*
X183684122Y-64697419D02*
X183588884Y-64649800D01*
X183588884Y-64649800D02*
X183541265Y-64602180D01*
X180493646Y-58617419D02*
X181160312Y-58617419D01*
X181160312Y-58617419D02*
X180731741Y-59617419D01*
X182255550Y-58569800D02*
X181398408Y-59855514D01*
X182588884Y-59093609D02*
X182922217Y-59093609D01*
X183065074Y-59617419D02*
X182588884Y-59617419D01*
X182588884Y-59617419D02*
X182588884Y-58617419D01*
X182588884Y-58617419D02*
X183065074Y-58617419D01*
X183922217Y-58617419D02*
X183731741Y-58617419D01*
X183731741Y-58617419D02*
X183636503Y-58665038D01*
X183636503Y-58665038D02*
X183588884Y-58712657D01*
X183588884Y-58712657D02*
X183493646Y-58855514D01*
X183493646Y-58855514D02*
X183446027Y-59045990D01*
X183446027Y-59045990D02*
X183446027Y-59426942D01*
X183446027Y-59426942D02*
X183493646Y-59522180D01*
X183493646Y-59522180D02*
X183541265Y-59569800D01*
X183541265Y-59569800D02*
X183636503Y-59617419D01*
X183636503Y-59617419D02*
X183826979Y-59617419D01*
X183826979Y-59617419D02*
X183922217Y-59569800D01*
X183922217Y-59569800D02*
X183969836Y-59522180D01*
X183969836Y-59522180D02*
X184017455Y-59426942D01*
X184017455Y-59426942D02*
X184017455Y-59188847D01*
X184017455Y-59188847D02*
X183969836Y-59093609D01*
X183969836Y-59093609D02*
X183922217Y-59045990D01*
X183922217Y-59045990D02*
X183826979Y-58998371D01*
X183826979Y-58998371D02*
X183636503Y-58998371D01*
X183636503Y-58998371D02*
X183541265Y-59045990D01*
X183541265Y-59045990D02*
X183493646Y-59093609D01*
X183493646Y-59093609D02*
X183446027Y-59188847D01*
X187649210Y-51997419D02*
X187077782Y-51997419D01*
X187363496Y-51997419D02*
X187363496Y-50997419D01*
X187363496Y-50997419D02*
X187268258Y-51140276D01*
X187268258Y-51140276D02*
X187173020Y-51235514D01*
X187173020Y-51235514D02*
X187077782Y-51283133D01*
X188125401Y-51997419D02*
X188315877Y-51997419D01*
X188315877Y-51997419D02*
X188411115Y-51949800D01*
X188411115Y-51949800D02*
X188458734Y-51902180D01*
X188458734Y-51902180D02*
X188553972Y-51759323D01*
X188553972Y-51759323D02*
X188601591Y-51568847D01*
X188601591Y-51568847D02*
X188601591Y-51187895D01*
X188601591Y-51187895D02*
X188553972Y-51092657D01*
X188553972Y-51092657D02*
X188506353Y-51045038D01*
X188506353Y-51045038D02*
X188411115Y-50997419D01*
X188411115Y-50997419D02*
X188220639Y-50997419D01*
X188220639Y-50997419D02*
X188125401Y-51045038D01*
X188125401Y-51045038D02*
X188077782Y-51092657D01*
X188077782Y-51092657D02*
X188030163Y-51187895D01*
X188030163Y-51187895D02*
X188030163Y-51425990D01*
X188030163Y-51425990D02*
X188077782Y-51521228D01*
X188077782Y-51521228D02*
X188125401Y-51568847D01*
X188125401Y-51568847D02*
X188220639Y-51616466D01*
X188220639Y-51616466D02*
X188411115Y-51616466D01*
X188411115Y-51616466D02*
X188506353Y-51568847D01*
X188506353Y-51568847D02*
X188553972Y-51521228D01*
X188553972Y-51521228D02*
X188601591Y-51425990D01*
X189744448Y-50949800D02*
X188887306Y-52235514D01*
X190411115Y-51473609D02*
X190077782Y-51473609D01*
X190077782Y-51997419D02*
X190077782Y-50997419D01*
X190077782Y-50997419D02*
X190553972Y-50997419D01*
X191363496Y-50997419D02*
X191173020Y-50997419D01*
X191173020Y-50997419D02*
X191077782Y-51045038D01*
X191077782Y-51045038D02*
X191030163Y-51092657D01*
X191030163Y-51092657D02*
X190934925Y-51235514D01*
X190934925Y-51235514D02*
X190887306Y-51425990D01*
X190887306Y-51425990D02*
X190887306Y-51806942D01*
X190887306Y-51806942D02*
X190934925Y-51902180D01*
X190934925Y-51902180D02*
X190982544Y-51949800D01*
X190982544Y-51949800D02*
X191077782Y-51997419D01*
X191077782Y-51997419D02*
X191268258Y-51997419D01*
X191268258Y-51997419D02*
X191363496Y-51949800D01*
X191363496Y-51949800D02*
X191411115Y-51902180D01*
X191411115Y-51902180D02*
X191458734Y-51806942D01*
X191458734Y-51806942D02*
X191458734Y-51568847D01*
X191458734Y-51568847D02*
X191411115Y-51473609D01*
X191411115Y-51473609D02*
X191363496Y-51425990D01*
X191363496Y-51425990D02*
X191268258Y-51378371D01*
X191268258Y-51378371D02*
X191077782Y-51378371D01*
X191077782Y-51378371D02*
X190982544Y-51425990D01*
X190982544Y-51425990D02*
X190934925Y-51473609D01*
X190934925Y-51473609D02*
X190887306Y-51568847D01*
X187077782Y-48552657D02*
X187125401Y-48505038D01*
X187125401Y-48505038D02*
X187220639Y-48457419D01*
X187220639Y-48457419D02*
X187458734Y-48457419D01*
X187458734Y-48457419D02*
X187553972Y-48505038D01*
X187553972Y-48505038D02*
X187601591Y-48552657D01*
X187601591Y-48552657D02*
X187649210Y-48647895D01*
X187649210Y-48647895D02*
X187649210Y-48743133D01*
X187649210Y-48743133D02*
X187601591Y-48885990D01*
X187601591Y-48885990D02*
X187030163Y-49457419D01*
X187030163Y-49457419D02*
X187649210Y-49457419D01*
X188268258Y-48457419D02*
X188363496Y-48457419D01*
X188363496Y-48457419D02*
X188458734Y-48505038D01*
X188458734Y-48505038D02*
X188506353Y-48552657D01*
X188506353Y-48552657D02*
X188553972Y-48647895D01*
X188553972Y-48647895D02*
X188601591Y-48838371D01*
X188601591Y-48838371D02*
X188601591Y-49076466D01*
X188601591Y-49076466D02*
X188553972Y-49266942D01*
X188553972Y-49266942D02*
X188506353Y-49362180D01*
X188506353Y-49362180D02*
X188458734Y-49409800D01*
X188458734Y-49409800D02*
X188363496Y-49457419D01*
X188363496Y-49457419D02*
X188268258Y-49457419D01*
X188268258Y-49457419D02*
X188173020Y-49409800D01*
X188173020Y-49409800D02*
X188125401Y-49362180D01*
X188125401Y-49362180D02*
X188077782Y-49266942D01*
X188077782Y-49266942D02*
X188030163Y-49076466D01*
X188030163Y-49076466D02*
X188030163Y-48838371D01*
X188030163Y-48838371D02*
X188077782Y-48647895D01*
X188077782Y-48647895D02*
X188125401Y-48552657D01*
X188125401Y-48552657D02*
X188173020Y-48505038D01*
X188173020Y-48505038D02*
X188268258Y-48457419D01*
X189744448Y-48409800D02*
X188887306Y-49695514D01*
X190411115Y-48933609D02*
X190077782Y-48933609D01*
X190077782Y-49457419D02*
X190077782Y-48457419D01*
X190077782Y-48457419D02*
X190553972Y-48457419D01*
X191411115Y-48457419D02*
X190934925Y-48457419D01*
X190934925Y-48457419D02*
X190887306Y-48933609D01*
X190887306Y-48933609D02*
X190934925Y-48885990D01*
X190934925Y-48885990D02*
X191030163Y-48838371D01*
X191030163Y-48838371D02*
X191268258Y-48838371D01*
X191268258Y-48838371D02*
X191363496Y-48885990D01*
X191363496Y-48885990D02*
X191411115Y-48933609D01*
X191411115Y-48933609D02*
X191458734Y-49028847D01*
X191458734Y-49028847D02*
X191458734Y-49266942D01*
X191458734Y-49266942D02*
X191411115Y-49362180D01*
X191411115Y-49362180D02*
X191363496Y-49409800D01*
X191363496Y-49409800D02*
X191268258Y-49457419D01*
X191268258Y-49457419D02*
X191030163Y-49457419D01*
X191030163Y-49457419D02*
X190934925Y-49409800D01*
X190934925Y-49409800D02*
X190887306Y-49362180D01*
X187506353Y-59617419D02*
X186934925Y-59617419D01*
X187220639Y-59617419D02*
X187220639Y-58617419D01*
X187220639Y-58617419D02*
X187125401Y-58760276D01*
X187125401Y-58760276D02*
X187030163Y-58855514D01*
X187030163Y-58855514D02*
X186934925Y-58903133D01*
X188363496Y-58950752D02*
X188363496Y-59617419D01*
X188125401Y-58569800D02*
X187887306Y-59284085D01*
X187887306Y-59284085D02*
X188506353Y-59284085D01*
X189601591Y-58569800D02*
X188744449Y-59855514D01*
X190268258Y-59093609D02*
X190411115Y-59141228D01*
X190411115Y-59141228D02*
X190458734Y-59188847D01*
X190458734Y-59188847D02*
X190506353Y-59284085D01*
X190506353Y-59284085D02*
X190506353Y-59426942D01*
X190506353Y-59426942D02*
X190458734Y-59522180D01*
X190458734Y-59522180D02*
X190411115Y-59569800D01*
X190411115Y-59569800D02*
X190315877Y-59617419D01*
X190315877Y-59617419D02*
X189934925Y-59617419D01*
X189934925Y-59617419D02*
X189934925Y-58617419D01*
X189934925Y-58617419D02*
X190268258Y-58617419D01*
X190268258Y-58617419D02*
X190363496Y-58665038D01*
X190363496Y-58665038D02*
X190411115Y-58712657D01*
X190411115Y-58712657D02*
X190458734Y-58807895D01*
X190458734Y-58807895D02*
X190458734Y-58903133D01*
X190458734Y-58903133D02*
X190411115Y-58998371D01*
X190411115Y-58998371D02*
X190363496Y-59045990D01*
X190363496Y-59045990D02*
X190268258Y-59093609D01*
X190268258Y-59093609D02*
X189934925Y-59093609D01*
X190839687Y-58617419D02*
X191458734Y-58617419D01*
X191458734Y-58617419D02*
X191125401Y-58998371D01*
X191125401Y-58998371D02*
X191268258Y-58998371D01*
X191268258Y-58998371D02*
X191363496Y-59045990D01*
X191363496Y-59045990D02*
X191411115Y-59093609D01*
X191411115Y-59093609D02*
X191458734Y-59188847D01*
X191458734Y-59188847D02*
X191458734Y-59426942D01*
X191458734Y-59426942D02*
X191411115Y-59522180D01*
X191411115Y-59522180D02*
X191363496Y-59569800D01*
X191363496Y-59569800D02*
X191268258Y-59617419D01*
X191268258Y-59617419D02*
X190982544Y-59617419D01*
X190982544Y-59617419D02*
X190887306Y-59569800D01*
X190887306Y-59569800D02*
X190839687Y-59522180D01*
X189363496Y-38345038D02*
X189268258Y-38297419D01*
X189268258Y-38297419D02*
X189125401Y-38297419D01*
X189125401Y-38297419D02*
X188982544Y-38345038D01*
X188982544Y-38345038D02*
X188887306Y-38440276D01*
X188887306Y-38440276D02*
X188839687Y-38535514D01*
X188839687Y-38535514D02*
X188792068Y-38725990D01*
X188792068Y-38725990D02*
X188792068Y-38868847D01*
X188792068Y-38868847D02*
X188839687Y-39059323D01*
X188839687Y-39059323D02*
X188887306Y-39154561D01*
X188887306Y-39154561D02*
X188982544Y-39249800D01*
X188982544Y-39249800D02*
X189125401Y-39297419D01*
X189125401Y-39297419D02*
X189220639Y-39297419D01*
X189220639Y-39297419D02*
X189363496Y-39249800D01*
X189363496Y-39249800D02*
X189411115Y-39202180D01*
X189411115Y-39202180D02*
X189411115Y-38868847D01*
X189411115Y-38868847D02*
X189220639Y-38868847D01*
X189839687Y-39297419D02*
X189839687Y-38297419D01*
X189839687Y-38297419D02*
X190411115Y-39297419D01*
X190411115Y-39297419D02*
X190411115Y-38297419D01*
X190887306Y-39297419D02*
X190887306Y-38297419D01*
X190887306Y-38297419D02*
X191125401Y-38297419D01*
X191125401Y-38297419D02*
X191268258Y-38345038D01*
X191268258Y-38345038D02*
X191363496Y-38440276D01*
X191363496Y-38440276D02*
X191411115Y-38535514D01*
X191411115Y-38535514D02*
X191458734Y-38725990D01*
X191458734Y-38725990D02*
X191458734Y-38868847D01*
X191458734Y-38868847D02*
X191411115Y-39059323D01*
X191411115Y-39059323D02*
X191363496Y-39154561D01*
X191363496Y-39154561D02*
X191268258Y-39249800D01*
X191268258Y-39249800D02*
X191125401Y-39297419D01*
X191125401Y-39297419D02*
X190887306Y-39297419D01*
D10*
X125705714Y-52424819D02*
X125705714Y-51424819D01*
X125705714Y-51424819D02*
X125943809Y-51424819D01*
X125943809Y-51424819D02*
X126086666Y-51472438D01*
X126086666Y-51472438D02*
X126181904Y-51567676D01*
X126181904Y-51567676D02*
X126229523Y-51662914D01*
X126229523Y-51662914D02*
X126277142Y-51853390D01*
X126277142Y-51853390D02*
X126277142Y-51996247D01*
X126277142Y-51996247D02*
X126229523Y-52186723D01*
X126229523Y-52186723D02*
X126181904Y-52281961D01*
X126181904Y-52281961D02*
X126086666Y-52377200D01*
X126086666Y-52377200D02*
X125943809Y-52424819D01*
X125943809Y-52424819D02*
X125705714Y-52424819D01*
X127229523Y-52424819D02*
X126658095Y-52424819D01*
X126943809Y-52424819D02*
X126943809Y-51424819D01*
X126943809Y-51424819D02*
X126848571Y-51567676D01*
X126848571Y-51567676D02*
X126753333Y-51662914D01*
X126753333Y-51662914D02*
X126658095Y-51710533D01*
X128086666Y-51758152D02*
X128086666Y-52424819D01*
X127848571Y-51377200D02*
X127610476Y-52091485D01*
X127610476Y-52091485D02*
X128229523Y-52091485D01*
X131738095Y-52054819D02*
X131738095Y-51054819D01*
X132309523Y-52054819D02*
X131880952Y-51483390D01*
X132309523Y-51054819D02*
X131738095Y-51626247D01*
X183383333Y-80395180D02*
X183383333Y-79680895D01*
X183383333Y-79680895D02*
X183430952Y-79538038D01*
X183430952Y-79538038D02*
X183526190Y-79442800D01*
X183526190Y-79442800D02*
X183669047Y-79395180D01*
X183669047Y-79395180D02*
X183764285Y-79395180D01*
X182383333Y-79395180D02*
X182954761Y-79395180D01*
X182669047Y-79395180D02*
X182669047Y-80395180D01*
X182669047Y-80395180D02*
X182764285Y-80252323D01*
X182764285Y-80252323D02*
X182859523Y-80157085D01*
X182859523Y-80157085D02*
X182954761Y-80109466D01*
X69181905Y-71424819D02*
X69181905Y-70424819D01*
X69181905Y-70424819D02*
X69420000Y-70424819D01*
X69420000Y-70424819D02*
X69562857Y-70472438D01*
X69562857Y-70472438D02*
X69658095Y-70567676D01*
X69658095Y-70567676D02*
X69705714Y-70662914D01*
X69705714Y-70662914D02*
X69753333Y-70853390D01*
X69753333Y-70853390D02*
X69753333Y-70996247D01*
X69753333Y-70996247D02*
X69705714Y-71186723D01*
X69705714Y-71186723D02*
X69658095Y-71281961D01*
X69658095Y-71281961D02*
X69562857Y-71377200D01*
X69562857Y-71377200D02*
X69420000Y-71424819D01*
X69420000Y-71424819D02*
X69181905Y-71424819D01*
X70086667Y-70424819D02*
X70705714Y-70424819D01*
X70705714Y-70424819D02*
X70372381Y-70805771D01*
X70372381Y-70805771D02*
X70515238Y-70805771D01*
X70515238Y-70805771D02*
X70610476Y-70853390D01*
X70610476Y-70853390D02*
X70658095Y-70901009D01*
X70658095Y-70901009D02*
X70705714Y-70996247D01*
X70705714Y-70996247D02*
X70705714Y-71234342D01*
X70705714Y-71234342D02*
X70658095Y-71329580D01*
X70658095Y-71329580D02*
X70610476Y-71377200D01*
X70610476Y-71377200D02*
X70515238Y-71424819D01*
X70515238Y-71424819D02*
X70229524Y-71424819D01*
X70229524Y-71424819D02*
X70134286Y-71377200D01*
X70134286Y-71377200D02*
X70086667Y-71329580D01*
X74738095Y-71054819D02*
X74738095Y-70054819D01*
X75309523Y-71054819D02*
X74880952Y-70483390D01*
X75309523Y-70054819D02*
X74738095Y-70626247D01*
X68666667Y-44852200D02*
X68809524Y-44899819D01*
X68809524Y-44899819D02*
X69047619Y-44899819D01*
X69047619Y-44899819D02*
X69142857Y-44852200D01*
X69142857Y-44852200D02*
X69190476Y-44804580D01*
X69190476Y-44804580D02*
X69238095Y-44709342D01*
X69238095Y-44709342D02*
X69238095Y-44614104D01*
X69238095Y-44614104D02*
X69190476Y-44518866D01*
X69190476Y-44518866D02*
X69142857Y-44471247D01*
X69142857Y-44471247D02*
X69047619Y-44423628D01*
X69047619Y-44423628D02*
X68857143Y-44376009D01*
X68857143Y-44376009D02*
X68761905Y-44328390D01*
X68761905Y-44328390D02*
X68714286Y-44280771D01*
X68714286Y-44280771D02*
X68666667Y-44185533D01*
X68666667Y-44185533D02*
X68666667Y-44090295D01*
X68666667Y-44090295D02*
X68714286Y-43995057D01*
X68714286Y-43995057D02*
X68761905Y-43947438D01*
X68761905Y-43947438D02*
X68857143Y-43899819D01*
X68857143Y-43899819D02*
X69095238Y-43899819D01*
X69095238Y-43899819D02*
X69238095Y-43947438D01*
X69571429Y-43899819D02*
X69809524Y-44899819D01*
X69809524Y-44899819D02*
X70000000Y-44185533D01*
X70000000Y-44185533D02*
X70190476Y-44899819D01*
X70190476Y-44899819D02*
X70428572Y-43899819D01*
X71333333Y-44899819D02*
X70761905Y-44899819D01*
X71047619Y-44899819D02*
X71047619Y-43899819D01*
X71047619Y-43899819D02*
X70952381Y-44042676D01*
X70952381Y-44042676D02*
X70857143Y-44137914D01*
X70857143Y-44137914D02*
X70761905Y-44185533D01*
X178203333Y-96224819D02*
X177870000Y-95748628D01*
X177631905Y-96224819D02*
X177631905Y-95224819D01*
X177631905Y-95224819D02*
X178012857Y-95224819D01*
X178012857Y-95224819D02*
X178108095Y-95272438D01*
X178108095Y-95272438D02*
X178155714Y-95320057D01*
X178155714Y-95320057D02*
X178203333Y-95415295D01*
X178203333Y-95415295D02*
X178203333Y-95558152D01*
X178203333Y-95558152D02*
X178155714Y-95653390D01*
X178155714Y-95653390D02*
X178108095Y-95701009D01*
X178108095Y-95701009D02*
X178012857Y-95748628D01*
X178012857Y-95748628D02*
X177631905Y-95748628D01*
X178584286Y-95320057D02*
X178631905Y-95272438D01*
X178631905Y-95272438D02*
X178727143Y-95224819D01*
X178727143Y-95224819D02*
X178965238Y-95224819D01*
X178965238Y-95224819D02*
X179060476Y-95272438D01*
X179060476Y-95272438D02*
X179108095Y-95320057D01*
X179108095Y-95320057D02*
X179155714Y-95415295D01*
X179155714Y-95415295D02*
X179155714Y-95510533D01*
X179155714Y-95510533D02*
X179108095Y-95653390D01*
X179108095Y-95653390D02*
X178536667Y-96224819D01*
X178536667Y-96224819D02*
X179155714Y-96224819D01*
X107181905Y-33424819D02*
X107181905Y-32424819D01*
X107181905Y-32424819D02*
X107420000Y-32424819D01*
X107420000Y-32424819D02*
X107562857Y-32472438D01*
X107562857Y-32472438D02*
X107658095Y-32567676D01*
X107658095Y-32567676D02*
X107705714Y-32662914D01*
X107705714Y-32662914D02*
X107753333Y-32853390D01*
X107753333Y-32853390D02*
X107753333Y-32996247D01*
X107753333Y-32996247D02*
X107705714Y-33186723D01*
X107705714Y-33186723D02*
X107658095Y-33281961D01*
X107658095Y-33281961D02*
X107562857Y-33377200D01*
X107562857Y-33377200D02*
X107420000Y-33424819D01*
X107420000Y-33424819D02*
X107181905Y-33424819D01*
X108229524Y-33424819D02*
X108420000Y-33424819D01*
X108420000Y-33424819D02*
X108515238Y-33377200D01*
X108515238Y-33377200D02*
X108562857Y-33329580D01*
X108562857Y-33329580D02*
X108658095Y-33186723D01*
X108658095Y-33186723D02*
X108705714Y-32996247D01*
X108705714Y-32996247D02*
X108705714Y-32615295D01*
X108705714Y-32615295D02*
X108658095Y-32520057D01*
X108658095Y-32520057D02*
X108610476Y-32472438D01*
X108610476Y-32472438D02*
X108515238Y-32424819D01*
X108515238Y-32424819D02*
X108324762Y-32424819D01*
X108324762Y-32424819D02*
X108229524Y-32472438D01*
X108229524Y-32472438D02*
X108181905Y-32520057D01*
X108181905Y-32520057D02*
X108134286Y-32615295D01*
X108134286Y-32615295D02*
X108134286Y-32853390D01*
X108134286Y-32853390D02*
X108181905Y-32948628D01*
X108181905Y-32948628D02*
X108229524Y-32996247D01*
X108229524Y-32996247D02*
X108324762Y-33043866D01*
X108324762Y-33043866D02*
X108515238Y-33043866D01*
X108515238Y-33043866D02*
X108610476Y-32996247D01*
X108610476Y-32996247D02*
X108658095Y-32948628D01*
X108658095Y-32948628D02*
X108705714Y-32853390D01*
X112738095Y-33054819D02*
X112738095Y-32054819D01*
X113309523Y-33054819D02*
X112880952Y-32483390D01*
X113309523Y-32054819D02*
X112738095Y-32626247D01*
X170302547Y-108158265D02*
X171021887Y-107463607D01*
X171021887Y-107463607D02*
X171187282Y-107634878D01*
X171187282Y-107634878D02*
X171252265Y-107770720D01*
X171252265Y-107770720D02*
X171249914Y-107905387D01*
X171249914Y-107905387D02*
X171214484Y-108005799D01*
X171214484Y-108005799D02*
X171110546Y-108172369D01*
X171110546Y-108172369D02*
X171007783Y-108271606D01*
X171007783Y-108271606D02*
X170837687Y-108369667D01*
X170837687Y-108369667D02*
X170736100Y-108401571D01*
X170736100Y-108401571D02*
X170601433Y-108399221D01*
X170601433Y-108399221D02*
X170467942Y-108329537D01*
X170467942Y-108329537D02*
X170302547Y-108158265D01*
X171614958Y-108214850D02*
X171682291Y-108216026D01*
X171682291Y-108216026D02*
X171782703Y-108251455D01*
X171782703Y-108251455D02*
X171948098Y-108422727D01*
X171948098Y-108422727D02*
X171980002Y-108524314D01*
X171980002Y-108524314D02*
X171978827Y-108591647D01*
X171978827Y-108591647D02*
X171943397Y-108692060D01*
X171943397Y-108692060D02*
X171874888Y-108758218D01*
X171874888Y-108758218D02*
X171739047Y-108823200D01*
X171739047Y-108823200D02*
X170931048Y-108809097D01*
X170931048Y-108809097D02*
X171361074Y-109254402D01*
X172510441Y-109005049D02*
X172576599Y-109073558D01*
X172576599Y-109073558D02*
X172608502Y-109175145D01*
X172608502Y-109175145D02*
X172607327Y-109242479D01*
X172607327Y-109242479D02*
X172571897Y-109342891D01*
X172571897Y-109342891D02*
X172467959Y-109509461D01*
X172467959Y-109509461D02*
X172296688Y-109674856D01*
X172296688Y-109674856D02*
X172126592Y-109772918D01*
X172126592Y-109772918D02*
X172025004Y-109804821D01*
X172025004Y-109804821D02*
X171957671Y-109803646D01*
X171957671Y-109803646D02*
X171857259Y-109768216D01*
X171857259Y-109768216D02*
X171791101Y-109699708D01*
X171791101Y-109699708D02*
X171759197Y-109598120D01*
X171759197Y-109598120D02*
X171760373Y-109530787D01*
X171760373Y-109530787D02*
X171795802Y-109430375D01*
X171795802Y-109430375D02*
X171899740Y-109263805D01*
X171899740Y-109263805D02*
X172071012Y-109098410D01*
X172071012Y-109098410D02*
X172241108Y-109000348D01*
X172241108Y-109000348D02*
X172342695Y-108968444D01*
X172342695Y-108968444D02*
X172410029Y-108969620D01*
X172410029Y-108969620D02*
X172510441Y-109005049D01*
X174759147Y-112240574D02*
X175478487Y-111545915D01*
X175156094Y-112651625D02*
X175269435Y-111946389D01*
X175875434Y-111956967D02*
X175067435Y-111942863D01*
X78738095Y-84754819D02*
X78738095Y-83754819D01*
X78738095Y-84231009D02*
X79309523Y-84231009D01*
X79309523Y-84754819D02*
X79309523Y-83754819D01*
X79738095Y-83850057D02*
X79785714Y-83802438D01*
X79785714Y-83802438D02*
X79880952Y-83754819D01*
X79880952Y-83754819D02*
X80119047Y-83754819D01*
X80119047Y-83754819D02*
X80214285Y-83802438D01*
X80214285Y-83802438D02*
X80261904Y-83850057D01*
X80261904Y-83850057D02*
X80309523Y-83945295D01*
X80309523Y-83945295D02*
X80309523Y-84040533D01*
X80309523Y-84040533D02*
X80261904Y-84183390D01*
X80261904Y-84183390D02*
X79690476Y-84754819D01*
X79690476Y-84754819D02*
X80309523Y-84754819D01*
X68666667Y-63852200D02*
X68809524Y-63899819D01*
X68809524Y-63899819D02*
X69047619Y-63899819D01*
X69047619Y-63899819D02*
X69142857Y-63852200D01*
X69142857Y-63852200D02*
X69190476Y-63804580D01*
X69190476Y-63804580D02*
X69238095Y-63709342D01*
X69238095Y-63709342D02*
X69238095Y-63614104D01*
X69238095Y-63614104D02*
X69190476Y-63518866D01*
X69190476Y-63518866D02*
X69142857Y-63471247D01*
X69142857Y-63471247D02*
X69047619Y-63423628D01*
X69047619Y-63423628D02*
X68857143Y-63376009D01*
X68857143Y-63376009D02*
X68761905Y-63328390D01*
X68761905Y-63328390D02*
X68714286Y-63280771D01*
X68714286Y-63280771D02*
X68666667Y-63185533D01*
X68666667Y-63185533D02*
X68666667Y-63090295D01*
X68666667Y-63090295D02*
X68714286Y-62995057D01*
X68714286Y-62995057D02*
X68761905Y-62947438D01*
X68761905Y-62947438D02*
X68857143Y-62899819D01*
X68857143Y-62899819D02*
X69095238Y-62899819D01*
X69095238Y-62899819D02*
X69238095Y-62947438D01*
X69571429Y-62899819D02*
X69809524Y-63899819D01*
X69809524Y-63899819D02*
X70000000Y-63185533D01*
X70000000Y-63185533D02*
X70190476Y-63899819D01*
X70190476Y-63899819D02*
X70428572Y-62899819D01*
X70761905Y-62995057D02*
X70809524Y-62947438D01*
X70809524Y-62947438D02*
X70904762Y-62899819D01*
X70904762Y-62899819D02*
X71142857Y-62899819D01*
X71142857Y-62899819D02*
X71238095Y-62947438D01*
X71238095Y-62947438D02*
X71285714Y-62995057D01*
X71285714Y-62995057D02*
X71333333Y-63090295D01*
X71333333Y-63090295D02*
X71333333Y-63185533D01*
X71333333Y-63185533D02*
X71285714Y-63328390D01*
X71285714Y-63328390D02*
X70714286Y-63899819D01*
X70714286Y-63899819D02*
X71333333Y-63899819D01*
X106190476Y-63852200D02*
X106333333Y-63899819D01*
X106333333Y-63899819D02*
X106571428Y-63899819D01*
X106571428Y-63899819D02*
X106666666Y-63852200D01*
X106666666Y-63852200D02*
X106714285Y-63804580D01*
X106714285Y-63804580D02*
X106761904Y-63709342D01*
X106761904Y-63709342D02*
X106761904Y-63614104D01*
X106761904Y-63614104D02*
X106714285Y-63518866D01*
X106714285Y-63518866D02*
X106666666Y-63471247D01*
X106666666Y-63471247D02*
X106571428Y-63423628D01*
X106571428Y-63423628D02*
X106380952Y-63376009D01*
X106380952Y-63376009D02*
X106285714Y-63328390D01*
X106285714Y-63328390D02*
X106238095Y-63280771D01*
X106238095Y-63280771D02*
X106190476Y-63185533D01*
X106190476Y-63185533D02*
X106190476Y-63090295D01*
X106190476Y-63090295D02*
X106238095Y-62995057D01*
X106238095Y-62995057D02*
X106285714Y-62947438D01*
X106285714Y-62947438D02*
X106380952Y-62899819D01*
X106380952Y-62899819D02*
X106619047Y-62899819D01*
X106619047Y-62899819D02*
X106761904Y-62947438D01*
X107095238Y-62899819D02*
X107333333Y-63899819D01*
X107333333Y-63899819D02*
X107523809Y-63185533D01*
X107523809Y-63185533D02*
X107714285Y-63899819D01*
X107714285Y-63899819D02*
X107952381Y-62899819D01*
X108857142Y-63899819D02*
X108285714Y-63899819D01*
X108571428Y-63899819D02*
X108571428Y-62899819D01*
X108571428Y-62899819D02*
X108476190Y-63042676D01*
X108476190Y-63042676D02*
X108380952Y-63137914D01*
X108380952Y-63137914D02*
X108285714Y-63185533D01*
X109476190Y-62899819D02*
X109571428Y-62899819D01*
X109571428Y-62899819D02*
X109666666Y-62947438D01*
X109666666Y-62947438D02*
X109714285Y-62995057D01*
X109714285Y-62995057D02*
X109761904Y-63090295D01*
X109761904Y-63090295D02*
X109809523Y-63280771D01*
X109809523Y-63280771D02*
X109809523Y-63518866D01*
X109809523Y-63518866D02*
X109761904Y-63709342D01*
X109761904Y-63709342D02*
X109714285Y-63804580D01*
X109714285Y-63804580D02*
X109666666Y-63852200D01*
X109666666Y-63852200D02*
X109571428Y-63899819D01*
X109571428Y-63899819D02*
X109476190Y-63899819D01*
X109476190Y-63899819D02*
X109380952Y-63852200D01*
X109380952Y-63852200D02*
X109333333Y-63804580D01*
X109333333Y-63804580D02*
X109285714Y-63709342D01*
X109285714Y-63709342D02*
X109238095Y-63518866D01*
X109238095Y-63518866D02*
X109238095Y-63280771D01*
X109238095Y-63280771D02*
X109285714Y-63090295D01*
X109285714Y-63090295D02*
X109333333Y-62995057D01*
X109333333Y-62995057D02*
X109380952Y-62947438D01*
X109380952Y-62947438D02*
X109476190Y-62899819D01*
X125705714Y-33424819D02*
X125705714Y-32424819D01*
X125705714Y-32424819D02*
X125943809Y-32424819D01*
X125943809Y-32424819D02*
X126086666Y-32472438D01*
X126086666Y-32472438D02*
X126181904Y-32567676D01*
X126181904Y-32567676D02*
X126229523Y-32662914D01*
X126229523Y-32662914D02*
X126277142Y-32853390D01*
X126277142Y-32853390D02*
X126277142Y-32996247D01*
X126277142Y-32996247D02*
X126229523Y-33186723D01*
X126229523Y-33186723D02*
X126181904Y-33281961D01*
X126181904Y-33281961D02*
X126086666Y-33377200D01*
X126086666Y-33377200D02*
X125943809Y-33424819D01*
X125943809Y-33424819D02*
X125705714Y-33424819D01*
X127229523Y-33424819D02*
X126658095Y-33424819D01*
X126943809Y-33424819D02*
X126943809Y-32424819D01*
X126943809Y-32424819D02*
X126848571Y-32567676D01*
X126848571Y-32567676D02*
X126753333Y-32662914D01*
X126753333Y-32662914D02*
X126658095Y-32710533D01*
X127562857Y-32424819D02*
X128181904Y-32424819D01*
X128181904Y-32424819D02*
X127848571Y-32805771D01*
X127848571Y-32805771D02*
X127991428Y-32805771D01*
X127991428Y-32805771D02*
X128086666Y-32853390D01*
X128086666Y-32853390D02*
X128134285Y-32901009D01*
X128134285Y-32901009D02*
X128181904Y-32996247D01*
X128181904Y-32996247D02*
X128181904Y-33234342D01*
X128181904Y-33234342D02*
X128134285Y-33329580D01*
X128134285Y-33329580D02*
X128086666Y-33377200D01*
X128086666Y-33377200D02*
X127991428Y-33424819D01*
X127991428Y-33424819D02*
X127705714Y-33424819D01*
X127705714Y-33424819D02*
X127610476Y-33377200D01*
X127610476Y-33377200D02*
X127562857Y-33329580D01*
X131738095Y-33054819D02*
X131738095Y-32054819D01*
X132309523Y-33054819D02*
X131880952Y-32483390D01*
X132309523Y-32054819D02*
X131738095Y-32626247D01*
X144190476Y-63852200D02*
X144333333Y-63899819D01*
X144333333Y-63899819D02*
X144571428Y-63899819D01*
X144571428Y-63899819D02*
X144666666Y-63852200D01*
X144666666Y-63852200D02*
X144714285Y-63804580D01*
X144714285Y-63804580D02*
X144761904Y-63709342D01*
X144761904Y-63709342D02*
X144761904Y-63614104D01*
X144761904Y-63614104D02*
X144714285Y-63518866D01*
X144714285Y-63518866D02*
X144666666Y-63471247D01*
X144666666Y-63471247D02*
X144571428Y-63423628D01*
X144571428Y-63423628D02*
X144380952Y-63376009D01*
X144380952Y-63376009D02*
X144285714Y-63328390D01*
X144285714Y-63328390D02*
X144238095Y-63280771D01*
X144238095Y-63280771D02*
X144190476Y-63185533D01*
X144190476Y-63185533D02*
X144190476Y-63090295D01*
X144190476Y-63090295D02*
X144238095Y-62995057D01*
X144238095Y-62995057D02*
X144285714Y-62947438D01*
X144285714Y-62947438D02*
X144380952Y-62899819D01*
X144380952Y-62899819D02*
X144619047Y-62899819D01*
X144619047Y-62899819D02*
X144761904Y-62947438D01*
X145095238Y-62899819D02*
X145333333Y-63899819D01*
X145333333Y-63899819D02*
X145523809Y-63185533D01*
X145523809Y-63185533D02*
X145714285Y-63899819D01*
X145714285Y-63899819D02*
X145952381Y-62899819D01*
X146857142Y-63899819D02*
X146285714Y-63899819D01*
X146571428Y-63899819D02*
X146571428Y-62899819D01*
X146571428Y-62899819D02*
X146476190Y-63042676D01*
X146476190Y-63042676D02*
X146380952Y-63137914D01*
X146380952Y-63137914D02*
X146285714Y-63185533D01*
X147428571Y-63328390D02*
X147333333Y-63280771D01*
X147333333Y-63280771D02*
X147285714Y-63233152D01*
X147285714Y-63233152D02*
X147238095Y-63137914D01*
X147238095Y-63137914D02*
X147238095Y-63090295D01*
X147238095Y-63090295D02*
X147285714Y-62995057D01*
X147285714Y-62995057D02*
X147333333Y-62947438D01*
X147333333Y-62947438D02*
X147428571Y-62899819D01*
X147428571Y-62899819D02*
X147619047Y-62899819D01*
X147619047Y-62899819D02*
X147714285Y-62947438D01*
X147714285Y-62947438D02*
X147761904Y-62995057D01*
X147761904Y-62995057D02*
X147809523Y-63090295D01*
X147809523Y-63090295D02*
X147809523Y-63137914D01*
X147809523Y-63137914D02*
X147761904Y-63233152D01*
X147761904Y-63233152D02*
X147714285Y-63280771D01*
X147714285Y-63280771D02*
X147619047Y-63328390D01*
X147619047Y-63328390D02*
X147428571Y-63328390D01*
X147428571Y-63328390D02*
X147333333Y-63376009D01*
X147333333Y-63376009D02*
X147285714Y-63423628D01*
X147285714Y-63423628D02*
X147238095Y-63518866D01*
X147238095Y-63518866D02*
X147238095Y-63709342D01*
X147238095Y-63709342D02*
X147285714Y-63804580D01*
X147285714Y-63804580D02*
X147333333Y-63852200D01*
X147333333Y-63852200D02*
X147428571Y-63899819D01*
X147428571Y-63899819D02*
X147619047Y-63899819D01*
X147619047Y-63899819D02*
X147714285Y-63852200D01*
X147714285Y-63852200D02*
X147761904Y-63804580D01*
X147761904Y-63804580D02*
X147809523Y-63709342D01*
X147809523Y-63709342D02*
X147809523Y-63518866D01*
X147809523Y-63518866D02*
X147761904Y-63423628D01*
X147761904Y-63423628D02*
X147714285Y-63376009D01*
X147714285Y-63376009D02*
X147619047Y-63328390D01*
X144705714Y-71424819D02*
X144705714Y-70424819D01*
X144705714Y-70424819D02*
X144943809Y-70424819D01*
X144943809Y-70424819D02*
X145086666Y-70472438D01*
X145086666Y-70472438D02*
X145181904Y-70567676D01*
X145181904Y-70567676D02*
X145229523Y-70662914D01*
X145229523Y-70662914D02*
X145277142Y-70853390D01*
X145277142Y-70853390D02*
X145277142Y-70996247D01*
X145277142Y-70996247D02*
X145229523Y-71186723D01*
X145229523Y-71186723D02*
X145181904Y-71281961D01*
X145181904Y-71281961D02*
X145086666Y-71377200D01*
X145086666Y-71377200D02*
X144943809Y-71424819D01*
X144943809Y-71424819D02*
X144705714Y-71424819D01*
X146229523Y-71424819D02*
X145658095Y-71424819D01*
X145943809Y-71424819D02*
X145943809Y-70424819D01*
X145943809Y-70424819D02*
X145848571Y-70567676D01*
X145848571Y-70567676D02*
X145753333Y-70662914D01*
X145753333Y-70662914D02*
X145658095Y-70710533D01*
X146705714Y-71424819D02*
X146896190Y-71424819D01*
X146896190Y-71424819D02*
X146991428Y-71377200D01*
X146991428Y-71377200D02*
X147039047Y-71329580D01*
X147039047Y-71329580D02*
X147134285Y-71186723D01*
X147134285Y-71186723D02*
X147181904Y-70996247D01*
X147181904Y-70996247D02*
X147181904Y-70615295D01*
X147181904Y-70615295D02*
X147134285Y-70520057D01*
X147134285Y-70520057D02*
X147086666Y-70472438D01*
X147086666Y-70472438D02*
X146991428Y-70424819D01*
X146991428Y-70424819D02*
X146800952Y-70424819D01*
X146800952Y-70424819D02*
X146705714Y-70472438D01*
X146705714Y-70472438D02*
X146658095Y-70520057D01*
X146658095Y-70520057D02*
X146610476Y-70615295D01*
X146610476Y-70615295D02*
X146610476Y-70853390D01*
X146610476Y-70853390D02*
X146658095Y-70948628D01*
X146658095Y-70948628D02*
X146705714Y-70996247D01*
X146705714Y-70996247D02*
X146800952Y-71043866D01*
X146800952Y-71043866D02*
X146991428Y-71043866D01*
X146991428Y-71043866D02*
X147086666Y-70996247D01*
X147086666Y-70996247D02*
X147134285Y-70948628D01*
X147134285Y-70948628D02*
X147181904Y-70853390D01*
X150738095Y-71054819D02*
X150738095Y-70054819D01*
X151309523Y-71054819D02*
X150880952Y-70483390D01*
X151309523Y-70054819D02*
X150738095Y-70626247D01*
X88181905Y-71424819D02*
X88181905Y-70424819D01*
X88181905Y-70424819D02*
X88420000Y-70424819D01*
X88420000Y-70424819D02*
X88562857Y-70472438D01*
X88562857Y-70472438D02*
X88658095Y-70567676D01*
X88658095Y-70567676D02*
X88705714Y-70662914D01*
X88705714Y-70662914D02*
X88753333Y-70853390D01*
X88753333Y-70853390D02*
X88753333Y-70996247D01*
X88753333Y-70996247D02*
X88705714Y-71186723D01*
X88705714Y-71186723D02*
X88658095Y-71281961D01*
X88658095Y-71281961D02*
X88562857Y-71377200D01*
X88562857Y-71377200D02*
X88420000Y-71424819D01*
X88420000Y-71424819D02*
X88181905Y-71424819D01*
X89086667Y-70424819D02*
X89753333Y-70424819D01*
X89753333Y-70424819D02*
X89324762Y-71424819D01*
X93738095Y-71054819D02*
X93738095Y-70054819D01*
X94309523Y-71054819D02*
X93880952Y-70483390D01*
X94309523Y-70054819D02*
X93738095Y-70626247D01*
X106666667Y-101852200D02*
X106809524Y-101899819D01*
X106809524Y-101899819D02*
X107047619Y-101899819D01*
X107047619Y-101899819D02*
X107142857Y-101852200D01*
X107142857Y-101852200D02*
X107190476Y-101804580D01*
X107190476Y-101804580D02*
X107238095Y-101709342D01*
X107238095Y-101709342D02*
X107238095Y-101614104D01*
X107238095Y-101614104D02*
X107190476Y-101518866D01*
X107190476Y-101518866D02*
X107142857Y-101471247D01*
X107142857Y-101471247D02*
X107047619Y-101423628D01*
X107047619Y-101423628D02*
X106857143Y-101376009D01*
X106857143Y-101376009D02*
X106761905Y-101328390D01*
X106761905Y-101328390D02*
X106714286Y-101280771D01*
X106714286Y-101280771D02*
X106666667Y-101185533D01*
X106666667Y-101185533D02*
X106666667Y-101090295D01*
X106666667Y-101090295D02*
X106714286Y-100995057D01*
X106714286Y-100995057D02*
X106761905Y-100947438D01*
X106761905Y-100947438D02*
X106857143Y-100899819D01*
X106857143Y-100899819D02*
X107095238Y-100899819D01*
X107095238Y-100899819D02*
X107238095Y-100947438D01*
X107571429Y-100899819D02*
X107809524Y-101899819D01*
X107809524Y-101899819D02*
X108000000Y-101185533D01*
X108000000Y-101185533D02*
X108190476Y-101899819D01*
X108190476Y-101899819D02*
X108428572Y-100899819D01*
X108952381Y-101328390D02*
X108857143Y-101280771D01*
X108857143Y-101280771D02*
X108809524Y-101233152D01*
X108809524Y-101233152D02*
X108761905Y-101137914D01*
X108761905Y-101137914D02*
X108761905Y-101090295D01*
X108761905Y-101090295D02*
X108809524Y-100995057D01*
X108809524Y-100995057D02*
X108857143Y-100947438D01*
X108857143Y-100947438D02*
X108952381Y-100899819D01*
X108952381Y-100899819D02*
X109142857Y-100899819D01*
X109142857Y-100899819D02*
X109238095Y-100947438D01*
X109238095Y-100947438D02*
X109285714Y-100995057D01*
X109285714Y-100995057D02*
X109333333Y-101090295D01*
X109333333Y-101090295D02*
X109333333Y-101137914D01*
X109333333Y-101137914D02*
X109285714Y-101233152D01*
X109285714Y-101233152D02*
X109238095Y-101280771D01*
X109238095Y-101280771D02*
X109142857Y-101328390D01*
X109142857Y-101328390D02*
X108952381Y-101328390D01*
X108952381Y-101328390D02*
X108857143Y-101376009D01*
X108857143Y-101376009D02*
X108809524Y-101423628D01*
X108809524Y-101423628D02*
X108761905Y-101518866D01*
X108761905Y-101518866D02*
X108761905Y-101709342D01*
X108761905Y-101709342D02*
X108809524Y-101804580D01*
X108809524Y-101804580D02*
X108857143Y-101852200D01*
X108857143Y-101852200D02*
X108952381Y-101899819D01*
X108952381Y-101899819D02*
X109142857Y-101899819D01*
X109142857Y-101899819D02*
X109238095Y-101852200D01*
X109238095Y-101852200D02*
X109285714Y-101804580D01*
X109285714Y-101804580D02*
X109333333Y-101709342D01*
X109333333Y-101709342D02*
X109333333Y-101518866D01*
X109333333Y-101518866D02*
X109285714Y-101423628D01*
X109285714Y-101423628D02*
X109238095Y-101376009D01*
X109238095Y-101376009D02*
X109142857Y-101328390D01*
X163705714Y-71424819D02*
X163705714Y-70424819D01*
X163705714Y-70424819D02*
X163943809Y-70424819D01*
X163943809Y-70424819D02*
X164086666Y-70472438D01*
X164086666Y-70472438D02*
X164181904Y-70567676D01*
X164181904Y-70567676D02*
X164229523Y-70662914D01*
X164229523Y-70662914D02*
X164277142Y-70853390D01*
X164277142Y-70853390D02*
X164277142Y-70996247D01*
X164277142Y-70996247D02*
X164229523Y-71186723D01*
X164229523Y-71186723D02*
X164181904Y-71281961D01*
X164181904Y-71281961D02*
X164086666Y-71377200D01*
X164086666Y-71377200D02*
X163943809Y-71424819D01*
X163943809Y-71424819D02*
X163705714Y-71424819D01*
X164658095Y-70520057D02*
X164705714Y-70472438D01*
X164705714Y-70472438D02*
X164800952Y-70424819D01*
X164800952Y-70424819D02*
X165039047Y-70424819D01*
X165039047Y-70424819D02*
X165134285Y-70472438D01*
X165134285Y-70472438D02*
X165181904Y-70520057D01*
X165181904Y-70520057D02*
X165229523Y-70615295D01*
X165229523Y-70615295D02*
X165229523Y-70710533D01*
X165229523Y-70710533D02*
X165181904Y-70853390D01*
X165181904Y-70853390D02*
X164610476Y-71424819D01*
X164610476Y-71424819D02*
X165229523Y-71424819D01*
X165562857Y-70424819D02*
X166181904Y-70424819D01*
X166181904Y-70424819D02*
X165848571Y-70805771D01*
X165848571Y-70805771D02*
X165991428Y-70805771D01*
X165991428Y-70805771D02*
X166086666Y-70853390D01*
X166086666Y-70853390D02*
X166134285Y-70901009D01*
X166134285Y-70901009D02*
X166181904Y-70996247D01*
X166181904Y-70996247D02*
X166181904Y-71234342D01*
X166181904Y-71234342D02*
X166134285Y-71329580D01*
X166134285Y-71329580D02*
X166086666Y-71377200D01*
X166086666Y-71377200D02*
X165991428Y-71424819D01*
X165991428Y-71424819D02*
X165705714Y-71424819D01*
X165705714Y-71424819D02*
X165610476Y-71377200D01*
X165610476Y-71377200D02*
X165562857Y-71329580D01*
X169738095Y-71054819D02*
X169738095Y-70054819D01*
X170309523Y-71054819D02*
X169880952Y-70483390D01*
X170309523Y-70054819D02*
X169738095Y-70626247D01*
D12*
%TO.C,D12*%
X130660000Y-87500000D02*
X129640000Y-87500000D01*
X129640000Y-88970000D02*
X129640000Y-86030000D01*
X129640000Y-86030000D02*
X124200000Y-86030000D01*
X128860000Y-88970000D02*
X128860000Y-86030000D01*
X128740000Y-88970000D02*
X128740000Y-86030000D01*
X128620000Y-88970000D02*
X128620000Y-86030000D01*
X124200000Y-88970000D02*
X129640000Y-88970000D01*
X124200000Y-86030000D02*
X124200000Y-88970000D01*
X123180000Y-87500000D02*
X124200000Y-87500000D01*
D10*
%TO.C,SW4*%
X82000000Y-90000000D02*
X83000000Y-90000000D01*
X82000000Y-91000000D02*
X82000000Y-90000000D01*
X82000000Y-104000000D02*
X82000000Y-103000000D01*
X83000000Y-104000000D02*
X82000000Y-104000000D01*
X95000000Y-90000000D02*
X96000000Y-90000000D01*
X96000000Y-90000000D02*
X96000000Y-91000000D01*
X96000000Y-103000000D02*
X96000000Y-104000000D01*
X96000000Y-104000000D02*
X95000000Y-104000000D01*
D12*
%TO.C,D8*%
X111660000Y-87500000D02*
X110640000Y-87500000D01*
X110640000Y-88970000D02*
X110640000Y-86030000D01*
X110640000Y-86030000D02*
X105200000Y-86030000D01*
X109860000Y-88970000D02*
X109860000Y-86030000D01*
X109740000Y-88970000D02*
X109740000Y-86030000D01*
X109620000Y-88970000D02*
X109620000Y-86030000D01*
X105200000Y-88970000D02*
X110640000Y-88970000D01*
X105200000Y-86030000D02*
X105200000Y-88970000D01*
X104180000Y-87500000D02*
X105200000Y-87500000D01*
D10*
%TO.C,SW19*%
X139000000Y-71000000D02*
X140000000Y-71000000D01*
X139000000Y-72000000D02*
X139000000Y-71000000D01*
X139000000Y-85000000D02*
X139000000Y-84000000D01*
X140000000Y-85000000D02*
X139000000Y-85000000D01*
X152000000Y-71000000D02*
X153000000Y-71000000D01*
X153000000Y-71000000D02*
X153000000Y-72000000D01*
X153000000Y-84000000D02*
X153000000Y-85000000D01*
X153000000Y-85000000D02*
X152000000Y-85000000D01*
D12*
%TO.C,D17*%
X149660000Y-30500000D02*
X148640000Y-30500000D01*
X148640000Y-31970000D02*
X148640000Y-29030000D01*
X148640000Y-29030000D02*
X143200000Y-29030000D01*
X147860000Y-31970000D02*
X147860000Y-29030000D01*
X147740000Y-31970000D02*
X147740000Y-29030000D01*
X147620000Y-31970000D02*
X147620000Y-29030000D01*
X143200000Y-31970000D02*
X148640000Y-31970000D01*
X143200000Y-29030000D02*
X143200000Y-31970000D01*
X142180000Y-30500000D02*
X143200000Y-30500000D01*
%TO.C,D21*%
X168660000Y-30500000D02*
X167640000Y-30500000D01*
X167640000Y-31970000D02*
X167640000Y-29030000D01*
X167640000Y-29030000D02*
X162200000Y-29030000D01*
X166860000Y-31970000D02*
X166860000Y-29030000D01*
X166740000Y-31970000D02*
X166740000Y-29030000D01*
X166620000Y-31970000D02*
X166620000Y-29030000D01*
X162200000Y-31970000D02*
X167640000Y-31970000D01*
X162200000Y-29030000D02*
X162200000Y-31970000D01*
X161180000Y-30500000D02*
X162200000Y-30500000D01*
D10*
%TO.C,SW13*%
X120000000Y-33000000D02*
X121000000Y-33000000D01*
X120000000Y-34000000D02*
X120000000Y-33000000D01*
X120000000Y-47000000D02*
X120000000Y-46000000D01*
X121000000Y-47000000D02*
X120000000Y-47000000D01*
X133000000Y-33000000D02*
X134000000Y-33000000D01*
X134000000Y-33000000D02*
X134000000Y-34000000D01*
X134000000Y-46000000D02*
X134000000Y-47000000D01*
X134000000Y-47000000D02*
X133000000Y-47000000D01*
%TO.C,SW9*%
X101000000Y-33000000D02*
X102000000Y-33000000D01*
X101000000Y-34000000D02*
X101000000Y-33000000D01*
X101000000Y-47000000D02*
X101000000Y-46000000D01*
X102000000Y-47000000D02*
X101000000Y-47000000D01*
X114000000Y-33000000D02*
X115000000Y-33000000D01*
X115000000Y-33000000D02*
X115000000Y-34000000D01*
X115000000Y-46000000D02*
X115000000Y-47000000D01*
X115000000Y-47000000D02*
X114000000Y-47000000D01*
%TO.C,SW5*%
X82000000Y-33000000D02*
X83000000Y-33000000D01*
X82000000Y-34000000D02*
X82000000Y-33000000D01*
X82000000Y-47000000D02*
X82000000Y-46000000D01*
X83000000Y-47000000D02*
X82000000Y-47000000D01*
X95000000Y-33000000D02*
X96000000Y-33000000D01*
X96000000Y-33000000D02*
X96000000Y-34000000D01*
X96000000Y-46000000D02*
X96000000Y-47000000D01*
X96000000Y-47000000D02*
X95000000Y-47000000D01*
D12*
%TO.C,D5*%
X92660000Y-30500000D02*
X91640000Y-30500000D01*
X91640000Y-31970000D02*
X91640000Y-29030000D01*
X91640000Y-29030000D02*
X86200000Y-29030000D01*
X90860000Y-31970000D02*
X90860000Y-29030000D01*
X90740000Y-31970000D02*
X90740000Y-29030000D01*
X90620000Y-31970000D02*
X90620000Y-29030000D01*
X86200000Y-31970000D02*
X91640000Y-31970000D01*
X86200000Y-29030000D02*
X86200000Y-31970000D01*
X85180000Y-30500000D02*
X86200000Y-30500000D01*
%TO.C,D4*%
X92660000Y-87500000D02*
X91640000Y-87500000D01*
X91640000Y-88970000D02*
X91640000Y-86030000D01*
X91640000Y-86030000D02*
X86200000Y-86030000D01*
X90860000Y-88970000D02*
X90860000Y-86030000D01*
X90740000Y-88970000D02*
X90740000Y-86030000D01*
X90620000Y-88970000D02*
X90620000Y-86030000D01*
X86200000Y-88970000D02*
X91640000Y-88970000D01*
X86200000Y-86030000D02*
X86200000Y-88970000D01*
X85180000Y-87500000D02*
X86200000Y-87500000D01*
%TO.C,D16*%
X155692688Y-94211334D02*
X154753774Y-93812789D01*
X154179399Y-95165931D02*
X155328148Y-92459646D01*
X155328148Y-92459646D02*
X150320602Y-90334069D01*
X153461405Y-94861160D02*
X154610155Y-92154876D01*
X153350944Y-94814273D02*
X154499694Y-92107988D01*
X153240484Y-94767385D02*
X154389233Y-92061101D01*
X149171852Y-93040353D02*
X154179399Y-95165931D01*
X150320602Y-90334069D02*
X149171852Y-93040353D01*
X148807312Y-91288665D02*
X149746227Y-91687211D01*
D10*
%TO.C,SW17*%
X139000000Y-33000000D02*
X140000000Y-33000000D01*
X139000000Y-34000000D02*
X139000000Y-33000000D01*
X139000000Y-47000000D02*
X139000000Y-46000000D01*
X140000000Y-47000000D02*
X139000000Y-47000000D01*
X152000000Y-33000000D02*
X153000000Y-33000000D01*
X153000000Y-33000000D02*
X153000000Y-34000000D01*
X153000000Y-46000000D02*
X153000000Y-47000000D01*
X153000000Y-47000000D02*
X152000000Y-47000000D01*
%TO.C,SW14*%
X120000000Y-52000000D02*
X121000000Y-52000000D01*
X120000000Y-53000000D02*
X120000000Y-52000000D01*
X120000000Y-66000000D02*
X120000000Y-65000000D01*
X121000000Y-66000000D02*
X120000000Y-66000000D01*
X133000000Y-52000000D02*
X134000000Y-52000000D01*
X134000000Y-52000000D02*
X134000000Y-53000000D01*
X134000000Y-65000000D02*
X134000000Y-66000000D01*
X134000000Y-66000000D02*
X133000000Y-66000000D01*
%TO.C,SW15*%
X120000000Y-71000000D02*
X121000000Y-71000000D01*
X120000000Y-72000000D02*
X120000000Y-71000000D01*
X120000000Y-85000000D02*
X120000000Y-84000000D01*
X121000000Y-85000000D02*
X120000000Y-85000000D01*
X133000000Y-71000000D02*
X134000000Y-71000000D01*
X134000000Y-71000000D02*
X134000000Y-72000000D01*
X134000000Y-84000000D02*
X134000000Y-85000000D01*
X134000000Y-85000000D02*
X133000000Y-85000000D01*
%TO.C,SW21*%
X158000000Y-33000000D02*
X159000000Y-33000000D01*
X158000000Y-34000000D02*
X158000000Y-33000000D01*
X158000000Y-47000000D02*
X158000000Y-46000000D01*
X159000000Y-47000000D02*
X158000000Y-47000000D01*
X171000000Y-33000000D02*
X172000000Y-33000000D01*
X172000000Y-33000000D02*
X172000000Y-34000000D01*
X172000000Y-46000000D02*
X172000000Y-47000000D01*
X172000000Y-47000000D02*
X171000000Y-47000000D01*
D12*
%TO.C,D15*%
X130660000Y-68500000D02*
X129640000Y-68500000D01*
X129640000Y-69970000D02*
X129640000Y-67030000D01*
X129640000Y-67030000D02*
X124200000Y-67030000D01*
X128860000Y-69970000D02*
X128860000Y-67030000D01*
X128740000Y-69970000D02*
X128740000Y-67030000D01*
X128620000Y-69970000D02*
X128620000Y-67030000D01*
X124200000Y-69970000D02*
X129640000Y-69970000D01*
X124200000Y-67030000D02*
X124200000Y-69970000D01*
X123180000Y-68500000D02*
X124200000Y-68500000D01*
D10*
%TO.C,SW3*%
X63000000Y-71000000D02*
X64000000Y-71000000D01*
X63000000Y-72000000D02*
X63000000Y-71000000D01*
X63000000Y-85000000D02*
X63000000Y-84000000D01*
X64000000Y-85000000D02*
X63000000Y-85000000D01*
X76000000Y-71000000D02*
X77000000Y-71000000D01*
X77000000Y-71000000D02*
X77000000Y-72000000D01*
X77000000Y-84000000D02*
X77000000Y-85000000D01*
X77000000Y-85000000D02*
X76000000Y-85000000D01*
%TO.C,SW7*%
X82000000Y-71000000D02*
X83000000Y-71000000D01*
X82000000Y-72000000D02*
X82000000Y-71000000D01*
X82000000Y-85000000D02*
X82000000Y-84000000D01*
X83000000Y-85000000D02*
X82000000Y-85000000D01*
X95000000Y-71000000D02*
X96000000Y-71000000D01*
X96000000Y-71000000D02*
X96000000Y-72000000D01*
X96000000Y-84000000D02*
X96000000Y-85000000D01*
X96000000Y-85000000D02*
X95000000Y-85000000D01*
D12*
%TO.C,SW25*%
X178000000Y-82950000D02*
X178000000Y-84450000D01*
X179250000Y-86950000D02*
X183750000Y-86950000D01*
X183750000Y-80450000D02*
X179250000Y-80450000D01*
X185000000Y-84450000D02*
X185000000Y-82950000D01*
%TO.C,D24*%
X187769787Y-132099002D02*
X187404252Y-131146750D01*
X186031888Y-131673551D02*
X188776615Y-130619949D01*
X188776615Y-130619949D02*
X186827093Y-125541272D01*
X185752361Y-130945358D02*
X188497088Y-129891757D01*
X185709357Y-130833329D02*
X188454084Y-129779727D01*
X185666353Y-130721299D02*
X188411080Y-129667697D01*
X184082367Y-126594874D02*
X186031888Y-131673551D01*
X186827093Y-125541272D02*
X184082367Y-126594874D01*
X185089195Y-125115821D02*
X185454730Y-126068073D01*
%TO.C,D11*%
X111660000Y-68500000D02*
X110640000Y-68500000D01*
X110640000Y-69970000D02*
X110640000Y-67030000D01*
X110640000Y-67030000D02*
X105200000Y-67030000D01*
X109860000Y-69970000D02*
X109860000Y-67030000D01*
X109740000Y-69970000D02*
X109740000Y-67030000D01*
X109620000Y-69970000D02*
X109620000Y-67030000D01*
X105200000Y-69970000D02*
X110640000Y-69970000D01*
X105200000Y-67030000D02*
X105200000Y-69970000D01*
X104180000Y-68500000D02*
X105200000Y-68500000D01*
%TO.C,R1*%
X182410000Y-90350000D02*
X181640000Y-90350000D01*
X181640000Y-91720000D02*
X181640000Y-88980000D01*
X181640000Y-88980000D02*
X175100000Y-88980000D01*
X175100000Y-91720000D02*
X181640000Y-91720000D01*
X175100000Y-88980000D02*
X175100000Y-91720000D01*
X174330000Y-90350000D02*
X175100000Y-90350000D01*
D10*
%TO.C,SW20*%
X166736459Y-103895803D02*
X167431117Y-104615143D01*
X166017119Y-104590461D02*
X166736459Y-103895803D01*
X156665702Y-113621020D02*
X157385042Y-112926362D01*
X157360360Y-114340360D02*
X156665702Y-113621020D01*
X175767018Y-113247220D02*
X176461676Y-113966560D01*
X176461676Y-113966560D02*
X175742336Y-114661218D01*
X167110259Y-122997119D02*
X166390919Y-123691777D01*
X166390919Y-123691777D02*
X165696261Y-122972437D01*
D12*
%TO.C,D18*%
X149660000Y-49500000D02*
X148640000Y-49500000D01*
X148640000Y-50970000D02*
X148640000Y-48030000D01*
X148640000Y-48030000D02*
X143200000Y-48030000D01*
X147860000Y-50970000D02*
X147860000Y-48030000D01*
X147740000Y-50970000D02*
X147740000Y-48030000D01*
X147620000Y-50970000D02*
X147620000Y-48030000D01*
X143200000Y-50970000D02*
X148640000Y-50970000D01*
X143200000Y-48030000D02*
X143200000Y-50970000D01*
X142180000Y-49500000D02*
X143200000Y-49500000D01*
%TO.C,D2*%
X73740000Y-49500000D02*
X72720000Y-49500000D01*
X72720000Y-50970000D02*
X72720000Y-48030000D01*
X72720000Y-48030000D02*
X67280000Y-48030000D01*
X71940000Y-50970000D02*
X71940000Y-48030000D01*
X71820000Y-50970000D02*
X71820000Y-48030000D01*
X71700000Y-50970000D02*
X71700000Y-48030000D01*
X67280000Y-50970000D02*
X72720000Y-50970000D01*
X67280000Y-48030000D02*
X67280000Y-50970000D01*
X66260000Y-49500000D02*
X67280000Y-49500000D01*
%TO.C,D6*%
X92660000Y-49500000D02*
X91640000Y-49500000D01*
X91640000Y-50970000D02*
X91640000Y-48030000D01*
X91640000Y-48030000D02*
X86200000Y-48030000D01*
X90860000Y-50970000D02*
X90860000Y-48030000D01*
X90740000Y-50970000D02*
X90740000Y-48030000D01*
X90620000Y-50970000D02*
X90620000Y-48030000D01*
X86200000Y-50970000D02*
X91640000Y-50970000D01*
X86200000Y-48030000D02*
X86200000Y-50970000D01*
X85180000Y-49500000D02*
X86200000Y-49500000D01*
D10*
%TO.C,SW12*%
X120000000Y-90000000D02*
X121000000Y-90000000D01*
X120000000Y-91000000D02*
X120000000Y-90000000D01*
X120000000Y-104000000D02*
X120000000Y-103000000D01*
X121000000Y-104000000D02*
X120000000Y-104000000D01*
X133000000Y-90000000D02*
X134000000Y-90000000D01*
X134000000Y-90000000D02*
X134000000Y-91000000D01*
X134000000Y-103000000D02*
X134000000Y-104000000D01*
X134000000Y-104000000D02*
X133000000Y-104000000D01*
%TO.C,SW6*%
X82000000Y-52000000D02*
X83000000Y-52000000D01*
X82000000Y-53000000D02*
X82000000Y-52000000D01*
X82000000Y-66000000D02*
X82000000Y-65000000D01*
X83000000Y-66000000D02*
X82000000Y-66000000D01*
X95000000Y-52000000D02*
X96000000Y-52000000D01*
X96000000Y-52000000D02*
X96000000Y-53000000D01*
X96000000Y-65000000D02*
X96000000Y-66000000D01*
X96000000Y-66000000D02*
X95000000Y-66000000D01*
D12*
%TO.C,D22*%
X168660000Y-49500000D02*
X167640000Y-49500000D01*
X167640000Y-50970000D02*
X167640000Y-48030000D01*
X167640000Y-48030000D02*
X162200000Y-48030000D01*
X166860000Y-50970000D02*
X166860000Y-48030000D01*
X166740000Y-50970000D02*
X166740000Y-48030000D01*
X166620000Y-50970000D02*
X166620000Y-48030000D01*
X162200000Y-50970000D02*
X167640000Y-50970000D01*
X162200000Y-48030000D02*
X162200000Y-50970000D01*
X161180000Y-49500000D02*
X162200000Y-49500000D01*
%TO.C,G\u002A\u002A\u002A*%
G36*
X71818907Y-94697269D02*
G01*
X71899750Y-94800869D01*
X71903104Y-94934883D01*
X71830308Y-95054621D01*
X71707878Y-95131622D01*
X71590097Y-95103525D01*
X71520268Y-95040804D01*
X71443121Y-94898625D01*
X71457124Y-94769335D01*
X71551508Y-94680077D01*
X71673045Y-94655708D01*
X71818907Y-94697269D01*
G37*
G36*
X68635399Y-99950884D02*
G01*
X68666554Y-99972566D01*
X68734896Y-100089729D01*
X68735926Y-100234826D01*
X68681966Y-100337146D01*
X68558507Y-100395316D01*
X68413917Y-100384099D01*
X68317387Y-100321733D01*
X68269664Y-100198079D01*
X68302088Y-100074682D01*
X68390175Y-99976028D01*
X68509440Y-99926600D01*
X68635399Y-99950884D01*
G37*
G36*
X71848161Y-93140401D02*
G01*
X71910377Y-93255189D01*
X71902422Y-93384883D01*
X71850254Y-93463573D01*
X71726794Y-93521743D01*
X71582204Y-93510526D01*
X71485674Y-93448161D01*
X71444204Y-93326795D01*
X71471870Y-93190441D01*
X71554731Y-93089056D01*
X71590591Y-93072169D01*
X71735119Y-93069676D01*
X71848161Y-93140401D01*
G37*
G36*
X74950786Y-99938343D02*
G01*
X75049312Y-100026663D01*
X75082981Y-100159937D01*
X75041420Y-100305799D01*
X74937820Y-100386642D01*
X74803807Y-100389996D01*
X74684068Y-100317200D01*
X74615599Y-100218322D01*
X74599683Y-100159937D01*
X74634894Y-100065593D01*
X74684068Y-100002673D01*
X74818496Y-99926191D01*
X74950786Y-99938343D01*
G37*
G36*
X74986923Y-98405381D02*
G01*
X75063553Y-98519976D01*
X75062715Y-98649229D01*
X74988079Y-98768937D01*
X74862966Y-98808746D01*
X74717629Y-98759589D01*
X74710557Y-98754761D01*
X74616394Y-98639892D01*
X74610478Y-98515093D01*
X74681990Y-98411926D01*
X74820117Y-98361951D01*
X74845497Y-98360994D01*
X74986923Y-98405381D01*
G37*
G36*
X75743279Y-99147593D02*
G01*
X75841699Y-99240512D01*
X75868088Y-99307361D01*
X75861673Y-99460204D01*
X75771582Y-99564840D01*
X75646829Y-99596089D01*
X75520567Y-99562587D01*
X75459458Y-99516237D01*
X75419547Y-99402602D01*
X75426158Y-99305017D01*
X75500239Y-99179658D01*
X75617702Y-99127246D01*
X75743279Y-99147593D01*
G37*
G36*
X68650622Y-98400602D02*
G01*
X68725476Y-98498557D01*
X68725773Y-98623549D01*
X68643802Y-98744272D01*
X68609666Y-98770041D01*
X68511789Y-98814424D01*
X68419660Y-98785274D01*
X68381442Y-98759987D01*
X68282704Y-98642263D01*
X68273547Y-98515753D01*
X68343945Y-98411836D01*
X68483873Y-98361893D01*
X68508922Y-98360994D01*
X68650622Y-98400602D01*
G37*
G36*
X72616922Y-93893928D02*
G01*
X72664601Y-93954081D01*
X72715275Y-94087374D01*
X72687940Y-94188404D01*
X72635805Y-94249124D01*
X72500752Y-94325158D01*
X72361456Y-94311236D01*
X72301332Y-94269070D01*
X72247532Y-94164378D01*
X72236892Y-94091861D01*
X72277566Y-93957467D01*
X72377025Y-93872413D01*
X72501425Y-93847599D01*
X72616922Y-93893928D01*
G37*
G36*
X69405372Y-99161209D02*
G01*
X69456437Y-99208257D01*
X69533054Y-99306225D01*
X69532871Y-99399786D01*
X69509011Y-99459563D01*
X69410752Y-99566968D01*
X69274881Y-99597080D01*
X69143824Y-99541763D01*
X69133045Y-99531649D01*
X69069090Y-99403290D01*
X69091346Y-99266038D01*
X69191677Y-99162322D01*
X69205131Y-99155683D01*
X69316544Y-99122869D01*
X69405372Y-99161209D01*
G37*
G36*
X72026591Y-90682617D02*
G01*
X72419600Y-90880273D01*
X72782480Y-91066316D01*
X73103819Y-91234621D01*
X73372204Y-91379065D01*
X73576223Y-91493522D01*
X73704463Y-91571870D01*
X73744984Y-91604715D01*
X73756763Y-91678565D01*
X73767530Y-91846510D01*
X73776938Y-92095249D01*
X73784640Y-92411481D01*
X73790286Y-92781904D01*
X73793530Y-93193216D01*
X73794186Y-93485851D01*
X73794186Y-95276543D01*
X75300458Y-96025427D01*
X75675017Y-96213121D01*
X76020580Y-96389094D01*
X76324787Y-96546833D01*
X76575276Y-96679823D01*
X76759689Y-96781550D01*
X76865665Y-96845499D01*
X76884602Y-96860359D01*
X76905895Y-96899123D01*
X76923063Y-96970352D01*
X76936517Y-97084332D01*
X76946666Y-97251346D01*
X76953921Y-97481679D01*
X76958692Y-97785616D01*
X76961390Y-98173441D01*
X76962426Y-98655438D01*
X76962474Y-98811776D01*
X76960804Y-99369499D01*
X76955875Y-99841246D01*
X76947809Y-100222724D01*
X76936730Y-100509640D01*
X76922759Y-100697702D01*
X76906321Y-100782069D01*
X76846387Y-100829884D01*
X76703367Y-100917108D01*
X76491039Y-101036755D01*
X76223177Y-101181841D01*
X75913559Y-101345379D01*
X75575962Y-101520384D01*
X75224161Y-101699872D01*
X74871934Y-101876858D01*
X74533056Y-102044355D01*
X74221304Y-102195379D01*
X73950456Y-102322944D01*
X73734286Y-102420066D01*
X73586573Y-102479758D01*
X73526279Y-102495878D01*
X73453251Y-102472540D01*
X73296877Y-102406395D01*
X73069584Y-102303242D01*
X72783796Y-102168883D01*
X72451938Y-102009117D01*
X72086436Y-101829746D01*
X71888089Y-101731094D01*
X70357400Y-100966310D01*
X68826710Y-101731094D01*
X68448022Y-101918370D01*
X68095858Y-102088854D01*
X67782768Y-102236756D01*
X67521303Y-102356285D01*
X67324012Y-102441651D01*
X67203446Y-102487065D01*
X67175442Y-102492974D01*
X67099754Y-102468787D01*
X66940648Y-102401489D01*
X66710357Y-102296817D01*
X66421111Y-102160504D01*
X66085142Y-101998286D01*
X65714682Y-101815899D01*
X65459745Y-101688526D01*
X65039710Y-101475172D01*
X64665818Y-101280724D01*
X64347503Y-101110361D01*
X64094198Y-100969261D01*
X63915337Y-100862602D01*
X63820354Y-100795564D01*
X63808476Y-100782063D01*
X63796354Y-100707199D01*
X63785445Y-100540255D01*
X63775847Y-100296545D01*
X63767662Y-99991383D01*
X63760990Y-99640084D01*
X63755930Y-99257960D01*
X63752584Y-98860327D01*
X63751052Y-98462498D01*
X63751401Y-98111746D01*
X64244926Y-98111746D01*
X64245120Y-98459874D01*
X64247259Y-98848935D01*
X64248238Y-98965116D01*
X64262474Y-100535835D01*
X65551269Y-101191086D01*
X65893664Y-101364527D01*
X66204826Y-101520923D01*
X66471907Y-101653917D01*
X66682061Y-101757149D01*
X66822442Y-101824262D01*
X66880203Y-101848897D01*
X66880338Y-101848908D01*
X66890547Y-101798095D01*
X66899804Y-101653145D01*
X66907307Y-101440409D01*
X67457611Y-101440409D01*
X67460779Y-101635126D01*
X67469169Y-101779998D01*
X67481117Y-101849044D01*
X67483987Y-101851480D01*
X67538525Y-101828714D01*
X67672361Y-101765774D01*
X67868826Y-101670702D01*
X68111249Y-101551535D01*
X68289484Y-101463015D01*
X68591312Y-101309984D01*
X68807592Y-101193357D01*
X68950621Y-101105253D01*
X69032694Y-101037789D01*
X69066107Y-100983085D01*
X69068605Y-100963607D01*
X69112213Y-100828080D01*
X69219009Y-100741504D01*
X69352950Y-100719780D01*
X69477995Y-100778809D01*
X69480936Y-100781697D01*
X69552590Y-100800407D01*
X69684602Y-100760883D01*
X69813874Y-100700242D01*
X69994283Y-100594754D01*
X70075325Y-100506809D01*
X70061609Y-100427057D01*
X69981501Y-100360348D01*
X69895460Y-100254359D01*
X69874102Y-100159937D01*
X69916191Y-100026829D01*
X69981501Y-99959525D01*
X70031610Y-99917087D01*
X70063310Y-99850620D01*
X70080684Y-99737719D01*
X70087815Y-99555978D01*
X70088901Y-99370262D01*
X70086728Y-99126094D01*
X70077491Y-98967284D01*
X70057115Y-98871832D01*
X70021523Y-98817736D01*
X69981501Y-98790592D01*
X69891747Y-98684294D01*
X69874102Y-98568876D01*
X69898289Y-98436259D01*
X69980083Y-98376929D01*
X69981501Y-98376553D01*
X70033027Y-98353350D01*
X70064888Y-98302102D01*
X70081711Y-98201010D01*
X70088124Y-98028272D01*
X70088901Y-97870528D01*
X70088901Y-97401811D01*
X70625899Y-97401811D01*
X70625899Y-98982027D01*
X70625899Y-100562243D01*
X71901269Y-101203978D01*
X72242184Y-101374889D01*
X72551742Y-101528877D01*
X72816980Y-101659593D01*
X73024939Y-101760686D01*
X73162657Y-101825805D01*
X73216913Y-101848596D01*
X73227085Y-101797853D01*
X73236313Y-101652919D01*
X73244261Y-101427004D01*
X73244629Y-101409933D01*
X73794186Y-101409933D01*
X73797144Y-101612485D01*
X73805020Y-101766103D01*
X73816315Y-101845719D01*
X73820562Y-101851480D01*
X73875100Y-101828714D01*
X74008936Y-101765774D01*
X74205401Y-101670702D01*
X74447824Y-101551535D01*
X74626059Y-101463015D01*
X74927887Y-101309984D01*
X75144167Y-101193357D01*
X75287196Y-101105253D01*
X75369269Y-101037789D01*
X75402682Y-100983085D01*
X75405180Y-100963607D01*
X75448705Y-100828469D01*
X75555253Y-100741715D01*
X75688783Y-100719381D01*
X75813253Y-100777502D01*
X75816441Y-100780627D01*
X75889897Y-100796947D01*
X76029754Y-100755374D01*
X76176229Y-100688891D01*
X76366161Y-100585528D01*
X76458605Y-100505387D01*
X76458612Y-100439736D01*
X76371231Y-100379847D01*
X76358351Y-100374045D01*
X76262537Y-100290698D01*
X76237527Y-100159937D01*
X76268510Y-100018592D01*
X76358351Y-99945829D01*
X76413948Y-99914369D01*
X76449257Y-99864414D01*
X76468850Y-99774072D01*
X76477298Y-99621449D01*
X76479172Y-99384653D01*
X76479176Y-99367227D01*
X76477932Y-99125784D01*
X76470814Y-98969929D01*
X76452746Y-98877852D01*
X76418651Y-98827745D01*
X76363449Y-98797800D01*
X76344926Y-98790592D01*
X76243211Y-98721450D01*
X76211035Y-98597803D01*
X76210677Y-98575793D01*
X76235657Y-98442224D01*
X76326994Y-98368249D01*
X76344926Y-98360994D01*
X76411678Y-98329079D01*
X76451618Y-98279619D01*
X76471601Y-98188004D01*
X76478482Y-98029627D01*
X76479176Y-97879025D01*
X76473136Y-97673194D01*
X76456895Y-97522797D01*
X76433265Y-97451040D01*
X76426912Y-97448097D01*
X76351267Y-97470019D01*
X76217704Y-97525762D01*
X76136628Y-97563737D01*
X75969700Y-97664666D01*
X75885567Y-97772851D01*
X75868899Y-97827917D01*
X75797271Y-97964338D01*
X75669758Y-98021107D01*
X75514133Y-97985925D01*
X75513208Y-97985432D01*
X75457763Y-97969532D01*
X75378264Y-97977196D01*
X75259788Y-98013769D01*
X75087411Y-98084600D01*
X74846212Y-98195035D01*
X74598284Y-98313272D01*
X73794186Y-98700424D01*
X73798426Y-99027432D01*
X73804510Y-99185787D01*
X73816241Y-99278466D01*
X73829956Y-99286700D01*
X73919649Y-99174468D01*
X74042927Y-99138802D01*
X74165784Y-99172808D01*
X74254211Y-99269592D01*
X74277484Y-99377434D01*
X74235003Y-99506828D01*
X74131741Y-99585468D01*
X74003973Y-99602719D01*
X73887973Y-99547946D01*
X73852187Y-99502114D01*
X73829139Y-99497002D01*
X73812761Y-99577175D01*
X73802515Y-99749085D01*
X73797866Y-100019186D01*
X73797452Y-100159937D01*
X73799961Y-100472197D01*
X73807845Y-100683620D01*
X73821642Y-100800657D01*
X73841888Y-100829761D01*
X73852187Y-100817759D01*
X73950812Y-100732805D01*
X74075468Y-100725042D01*
X74192096Y-100782644D01*
X74266639Y-100893784D01*
X74277484Y-100965434D01*
X74237593Y-101112301D01*
X74139044Y-101191399D01*
X74013523Y-101193034D01*
X73892719Y-101107509D01*
X73877781Y-101087735D01*
X73836969Y-101036560D01*
X73812163Y-101036354D01*
X73799408Y-101102361D01*
X73794749Y-101249827D01*
X73794186Y-101409933D01*
X73244629Y-101409933D01*
X73250592Y-101133315D01*
X73254970Y-100785061D01*
X73257059Y-100395449D01*
X73257188Y-100268241D01*
X73257188Y-98685002D01*
X72975264Y-98541914D01*
X72840750Y-98474881D01*
X72629035Y-98370883D01*
X72359719Y-98239477D01*
X72052403Y-98090222D01*
X71726685Y-97932676D01*
X71659620Y-97900319D01*
X70625899Y-97401811D01*
X70088901Y-97401811D01*
X70088901Y-97392588D01*
X69827670Y-97524964D01*
X69658966Y-97624895D01*
X69568290Y-97722548D01*
X69534527Y-97816899D01*
X69463129Y-97961290D01*
X69336726Y-98020658D01*
X69176786Y-97985389D01*
X69168237Y-97980938D01*
X69113415Y-97962078D01*
X69041915Y-97964500D01*
X68938275Y-97993803D01*
X68787028Y-98055586D01*
X68572712Y-98155447D01*
X68279862Y-98298984D01*
X68253312Y-98312157D01*
X67457611Y-98707182D01*
X67457611Y-98998859D01*
X67459459Y-99164473D01*
X67471511Y-99240307D01*
X67503525Y-99243981D01*
X67565229Y-99193143D01*
X67690183Y-99133380D01*
X67809900Y-99155835D01*
X67902429Y-99236633D01*
X67945820Y-99351901D01*
X67918122Y-99477766D01*
X67876470Y-99531649D01*
X67757282Y-99589729D01*
X67620842Y-99580451D01*
X67519291Y-99508083D01*
X67515612Y-99502114D01*
X67492564Y-99497002D01*
X67476186Y-99577175D01*
X67465940Y-99749085D01*
X67461291Y-100019186D01*
X67460877Y-100159937D01*
X67463386Y-100472197D01*
X67471270Y-100683620D01*
X67485067Y-100800657D01*
X67505313Y-100829761D01*
X67515612Y-100817759D01*
X67613585Y-100741906D01*
X67749434Y-100728898D01*
X67871019Y-100783003D01*
X67876470Y-100788224D01*
X67943437Y-100911053D01*
X67929410Y-101034059D01*
X67856338Y-101133369D01*
X67746173Y-101185109D01*
X67620864Y-101165406D01*
X67565229Y-101126730D01*
X67510975Y-101081770D01*
X67478937Y-101080089D01*
X67463262Y-101138741D01*
X67458102Y-101274779D01*
X67457611Y-101440409D01*
X66907307Y-101440409D01*
X66907769Y-101427321D01*
X66914100Y-101133884D01*
X66918458Y-100786096D01*
X66920502Y-100397219D01*
X66920613Y-100280252D01*
X66920613Y-98709024D01*
X65604684Y-98051711D01*
X65258781Y-97879410D01*
X64944917Y-97723987D01*
X64675705Y-97591613D01*
X64463761Y-97488462D01*
X64321698Y-97420705D01*
X64262131Y-97394515D01*
X64261378Y-97394398D01*
X64254903Y-97445878D01*
X64249929Y-97591457D01*
X64246566Y-97817844D01*
X64244926Y-98111746D01*
X63751401Y-98111746D01*
X63751433Y-98079787D01*
X63753828Y-97727509D01*
X63758337Y-97420976D01*
X63765061Y-97175504D01*
X63774099Y-97006406D01*
X63776015Y-96991643D01*
X64611522Y-96991643D01*
X64656956Y-97019334D01*
X64783161Y-97087599D01*
X64974998Y-97188688D01*
X65217326Y-97314852D01*
X65495004Y-97458340D01*
X65792891Y-97611402D01*
X66095846Y-97766287D01*
X66388728Y-97915245D01*
X66656397Y-98050525D01*
X66883712Y-98164378D01*
X67055532Y-98249053D01*
X67156716Y-98296800D01*
X67176117Y-98304410D01*
X67225814Y-98282141D01*
X67358914Y-98217885D01*
X67562840Y-98117841D01*
X67825011Y-97988206D01*
X68132849Y-97835181D01*
X68473774Y-97664964D01*
X68478337Y-97662682D01*
X68819129Y-97491228D01*
X69126092Y-97334982D01*
X69386776Y-97200428D01*
X69588737Y-97094048D01*
X69719525Y-97022326D01*
X69766694Y-96991744D01*
X69766702Y-96991649D01*
X69766693Y-96991643D01*
X70948097Y-96991643D01*
X70993531Y-97019334D01*
X71119736Y-97087599D01*
X71311573Y-97188688D01*
X71553901Y-97314852D01*
X71831579Y-97458340D01*
X72129466Y-97611402D01*
X72432421Y-97766287D01*
X72725303Y-97915245D01*
X72992972Y-98050525D01*
X73220287Y-98164378D01*
X73392107Y-98249053D01*
X73493291Y-98296800D01*
X73512692Y-98304410D01*
X73562389Y-98282141D01*
X73695489Y-98217885D01*
X73899415Y-98117841D01*
X74161586Y-97988206D01*
X74469424Y-97835181D01*
X74810349Y-97664964D01*
X74814912Y-97662682D01*
X75155704Y-97491228D01*
X75462667Y-97334982D01*
X75723352Y-97200428D01*
X75925312Y-97094048D01*
X76056100Y-97022326D01*
X76103270Y-96991744D01*
X76103277Y-96991649D01*
X76057240Y-96961628D01*
X75927425Y-96890383D01*
X75726277Y-96784397D01*
X75466241Y-96650150D01*
X75159763Y-96494126D01*
X74819288Y-96322806D01*
X74814482Y-96320402D01*
X73525687Y-95675575D01*
X72236892Y-96320402D01*
X71896041Y-96491885D01*
X71589017Y-96648160D01*
X71328267Y-96782744D01*
X71126235Y-96889157D01*
X70995366Y-96960916D01*
X70948106Y-96991540D01*
X70948097Y-96991643D01*
X69766693Y-96991643D01*
X69720665Y-96961628D01*
X69590850Y-96890383D01*
X69389702Y-96784397D01*
X69129666Y-96650150D01*
X69010675Y-96589573D01*
X70625899Y-96589573D01*
X71424011Y-96189851D01*
X71721833Y-96039136D01*
X71936817Y-95925192D01*
X72083057Y-95838548D01*
X72174649Y-95769735D01*
X72225689Y-95709281D01*
X72250273Y-95647717D01*
X72253659Y-95632448D01*
X72319985Y-95486978D01*
X72432349Y-95431990D01*
X72573661Y-95475482D01*
X72580123Y-95479681D01*
X72655665Y-95516894D01*
X72738842Y-95515288D01*
X72862383Y-95469595D01*
X72975011Y-95416125D01*
X73160196Y-95310591D01*
X73244003Y-95222170D01*
X73229840Y-95144416D01*
X73149789Y-95085307D01*
X73060034Y-94979009D01*
X73042389Y-94863591D01*
X73066577Y-94730974D01*
X73148371Y-94671644D01*
X73149789Y-94671268D01*
X73198578Y-94649921D01*
X73229899Y-94603073D01*
X73247565Y-94510384D01*
X73255390Y-94351516D01*
X73257188Y-94106130D01*
X73257188Y-94098515D01*
X73255088Y-93847726D01*
X73246229Y-93682452D01*
X73226777Y-93580851D01*
X73192897Y-93521076D01*
X73149789Y-93486775D01*
X73063747Y-93380786D01*
X73042389Y-93286364D01*
X73084479Y-93153256D01*
X73149789Y-93085952D01*
X73203649Y-93038937D01*
X73236014Y-92964264D01*
X73252085Y-92837200D01*
X73257065Y-92633012D01*
X73257188Y-92575349D01*
X73254351Y-92372297D01*
X73246793Y-92218123D01*
X73235948Y-92137838D01*
X73231775Y-92131818D01*
X73172914Y-92153332D01*
X73050647Y-92208268D01*
X72963276Y-92249918D01*
X72799520Y-92346929D01*
X72726970Y-92439033D01*
X72720190Y-92480828D01*
X72676831Y-92617139D01*
X72570545Y-92704511D01*
X72437022Y-92726987D01*
X72311949Y-92668610D01*
X72308264Y-92665008D01*
X72250259Y-92658994D01*
X72124954Y-92696359D01*
X71925178Y-92779984D01*
X71643761Y-92912749D01*
X71438328Y-93014393D01*
X70625899Y-93421285D01*
X70625899Y-93720134D01*
X70628691Y-93886500D01*
X70641708Y-93963200D01*
X70671907Y-93967921D01*
X70710284Y-93934597D01*
X70844712Y-93858115D01*
X70977002Y-93870267D01*
X71075528Y-93958587D01*
X71109197Y-94091861D01*
X71069617Y-94241116D01*
X70968973Y-94318333D01*
X70834410Y-94312744D01*
X70724102Y-94244637D01*
X70684352Y-94213559D01*
X70657086Y-94214846D01*
X70639956Y-94263293D01*
X70630614Y-94373695D01*
X70626711Y-94560845D01*
X70625900Y-94839539D01*
X70625899Y-94863423D01*
X70625899Y-95571081D01*
X70756547Y-95485477D01*
X70909160Y-95430843D01*
X71029243Y-95469770D01*
X71094823Y-95588937D01*
X71098908Y-95692997D01*
X71070841Y-95815989D01*
X70996835Y-95869130D01*
X70923896Y-95881985D01*
X70763550Y-95861680D01*
X70695672Y-95804597D01*
X70661391Y-95771858D01*
X70640361Y-95798182D01*
X70629571Y-95898443D01*
X70626012Y-96087514D01*
X70625899Y-96149375D01*
X70625899Y-96589573D01*
X69010675Y-96589573D01*
X68823188Y-96494126D01*
X68482713Y-96322806D01*
X68477907Y-96320402D01*
X67189112Y-95675575D01*
X65900317Y-96320402D01*
X65559466Y-96491885D01*
X65252442Y-96648160D01*
X64991692Y-96782744D01*
X64789660Y-96889157D01*
X64658791Y-96960916D01*
X64611531Y-96991540D01*
X64611522Y-96991643D01*
X63776015Y-96991643D01*
X63783297Y-96935518D01*
X63820898Y-96888273D01*
X63918585Y-96816673D01*
X64082936Y-96717041D01*
X64320527Y-96585700D01*
X64637935Y-96418972D01*
X65041737Y-96213182D01*
X65366708Y-96050212D01*
X66920613Y-95274737D01*
X66920613Y-95274283D01*
X67457611Y-95274283D01*
X68759831Y-95928544D01*
X69102904Y-96100780D01*
X69413102Y-96256261D01*
X69677928Y-96388743D01*
X69884884Y-96491983D01*
X70021474Y-96559737D01*
X70075200Y-96585762D01*
X70075476Y-96585853D01*
X70078866Y-96535151D01*
X70081941Y-96390253D01*
X70084590Y-96164362D01*
X70086701Y-95870684D01*
X70088160Y-95522420D01*
X70088857Y-95132776D01*
X70088901Y-95004972D01*
X70088901Y-93421043D01*
X68800535Y-92776431D01*
X68458448Y-92605762D01*
X68148493Y-92452058D01*
X67883416Y-92321566D01*
X67675967Y-92220532D01*
X67538893Y-92155201D01*
X67484943Y-92131819D01*
X67484891Y-92131818D01*
X67477975Y-92183303D01*
X67471704Y-92328895D01*
X67466308Y-92555304D01*
X67462020Y-92849240D01*
X67459069Y-93197411D01*
X67457686Y-93586526D01*
X67457611Y-93703051D01*
X67457611Y-95274283D01*
X66920613Y-95274283D01*
X66920613Y-93484948D01*
X66922048Y-93053746D01*
X66926121Y-92654498D01*
X66932483Y-92300509D01*
X66940787Y-92005086D01*
X66950684Y-91781532D01*
X66957099Y-91701861D01*
X67779810Y-91701861D01*
X67825555Y-91733338D01*
X67952589Y-91804096D01*
X68145612Y-91906461D01*
X68389321Y-92032757D01*
X68668417Y-92175309D01*
X68967598Y-92326440D01*
X69271562Y-92478477D01*
X69565010Y-92623743D01*
X69832640Y-92754562D01*
X70059150Y-92863261D01*
X70229241Y-92942162D01*
X70327610Y-92983591D01*
X70343678Y-92987964D01*
X70407961Y-92965624D01*
X70554680Y-92901122D01*
X70770439Y-92800780D01*
X71041840Y-92670923D01*
X71355489Y-92517875D01*
X71672748Y-92360573D01*
X72009999Y-92191098D01*
X72313271Y-92036719D01*
X72569979Y-91904005D01*
X72767538Y-91799522D01*
X72893363Y-91729839D01*
X72934990Y-91701857D01*
X72888916Y-91671403D01*
X72759001Y-91599887D01*
X72557706Y-91493797D01*
X72297490Y-91359619D01*
X71990815Y-91203837D01*
X71650140Y-91032940D01*
X71646195Y-91030973D01*
X70357400Y-90388364D01*
X69068605Y-91030973D01*
X68727621Y-91202002D01*
X68420497Y-91357988D01*
X68159695Y-91492445D01*
X67957674Y-91598885D01*
X67826894Y-91670822D01*
X67779816Y-91701771D01*
X67779810Y-91701861D01*
X66957099Y-91701861D01*
X66961826Y-91643154D01*
X66969816Y-91604715D01*
X67028063Y-91560225D01*
X67171365Y-91474648D01*
X67388308Y-91354109D01*
X67667480Y-91204730D01*
X67997468Y-91032637D01*
X68366860Y-90843952D01*
X68688209Y-90682617D01*
X70357400Y-89850963D01*
X72026591Y-90682617D01*
G37*
D10*
%TO.C,SW23*%
X158000000Y-71000000D02*
X159000000Y-71000000D01*
X158000000Y-72000000D02*
X158000000Y-71000000D01*
X158000000Y-85000000D02*
X158000000Y-84000000D01*
X159000000Y-85000000D02*
X158000000Y-85000000D01*
X171000000Y-71000000D02*
X172000000Y-71000000D01*
X172000000Y-71000000D02*
X172000000Y-72000000D01*
X172000000Y-84000000D02*
X172000000Y-85000000D01*
X172000000Y-85000000D02*
X171000000Y-85000000D01*
%TO.C,SW24*%
X182373410Y-123246124D02*
X182731778Y-124179705D01*
X181439830Y-123604492D02*
X182373410Y-123246124D01*
X169303284Y-128263276D02*
X170236865Y-127904908D01*
X169661652Y-129196856D02*
X169303284Y-128263276D01*
X187032194Y-135382670D02*
X187390562Y-136316250D01*
X187390562Y-136316250D02*
X186456981Y-136674618D01*
X175254016Y-140975034D02*
X174320436Y-141333402D01*
X174320436Y-141333402D02*
X173962068Y-140399821D01*
%TO.C,SW22*%
X158000000Y-52000000D02*
X159000000Y-52000000D01*
X158000000Y-53000000D02*
X158000000Y-52000000D01*
X158000000Y-66000000D02*
X158000000Y-65000000D01*
X159000000Y-66000000D02*
X158000000Y-66000000D01*
X171000000Y-52000000D02*
X172000000Y-52000000D01*
X172000000Y-52000000D02*
X172000000Y-53000000D01*
X172000000Y-65000000D02*
X172000000Y-66000000D01*
X172000000Y-66000000D02*
X171000000Y-66000000D01*
D12*
%TO.C,D1*%
X73740000Y-30500000D02*
X72720000Y-30500000D01*
X72720000Y-31970000D02*
X72720000Y-29030000D01*
X72720000Y-29030000D02*
X67280000Y-29030000D01*
X71940000Y-31970000D02*
X71940000Y-29030000D01*
X71820000Y-31970000D02*
X71820000Y-29030000D01*
X71700000Y-31970000D02*
X71700000Y-29030000D01*
X67280000Y-31970000D02*
X72720000Y-31970000D01*
X67280000Y-29030000D02*
X67280000Y-31970000D01*
X66260000Y-30500000D02*
X67280000Y-30500000D01*
%TO.C,D10*%
X111660000Y-49500000D02*
X110640000Y-49500000D01*
X110640000Y-50970000D02*
X110640000Y-48030000D01*
X110640000Y-48030000D02*
X105200000Y-48030000D01*
X109860000Y-50970000D02*
X109860000Y-48030000D01*
X109740000Y-50970000D02*
X109740000Y-48030000D01*
X109620000Y-50970000D02*
X109620000Y-48030000D01*
X105200000Y-50970000D02*
X110640000Y-50970000D01*
X105200000Y-48030000D02*
X105200000Y-50970000D01*
X104180000Y-49500000D02*
X105200000Y-49500000D01*
D10*
%TO.C,SW16*%
X144781796Y-92193581D02*
X145702301Y-92584312D01*
X144391065Y-93114086D02*
X144781796Y-92193581D01*
X139311560Y-105080649D02*
X139702291Y-104160144D01*
X140232065Y-105471380D02*
X139311560Y-105080649D01*
X156748359Y-97273086D02*
X157668864Y-97663817D01*
X157668864Y-97663817D02*
X157278133Y-98584322D01*
X152589359Y-109630380D02*
X152198628Y-110550885D01*
X152198628Y-110550885D02*
X151278123Y-110160154D01*
%TO.C,SW11*%
X101000000Y-71000000D02*
X102000000Y-71000000D01*
X101000000Y-72000000D02*
X101000000Y-71000000D01*
X101000000Y-85000000D02*
X101000000Y-84000000D01*
X102000000Y-85000000D02*
X101000000Y-85000000D01*
X114000000Y-71000000D02*
X115000000Y-71000000D01*
X115000000Y-71000000D02*
X115000000Y-72000000D01*
X115000000Y-84000000D02*
X115000000Y-85000000D01*
X115000000Y-85000000D02*
X114000000Y-85000000D01*
D12*
%TO.C,U1*%
X195017000Y-65510000D02*
X195017000Y-32490000D01*
X195017000Y-32490000D02*
X189937000Y-32490000D01*
X192350000Y-65510000D02*
X195017000Y-65510000D01*
X192350000Y-62970000D02*
X192350000Y-65510000D01*
X192350000Y-62970000D02*
X192350000Y-35030000D01*
X192350000Y-35030000D02*
X195020000Y-35030000D01*
X189937000Y-29950000D02*
X189937000Y-32490000D01*
X189937000Y-29950000D02*
X182063000Y-29950000D01*
X182063000Y-32490000D02*
X176983000Y-32490000D01*
X182063000Y-29950000D02*
X182063000Y-32490000D01*
X179650000Y-65510000D02*
X179650000Y-35030000D01*
X179650000Y-65510000D02*
X176980000Y-65510000D01*
X179650000Y-37570000D02*
X176980000Y-37570000D01*
X179650000Y-35030000D02*
X176980000Y-35030000D01*
X176983000Y-65510000D02*
X192350000Y-65510000D01*
X176983000Y-32490000D02*
X176980000Y-65510000D01*
%TO.C,D14*%
X130660000Y-49500000D02*
X129640000Y-49500000D01*
X129640000Y-50970000D02*
X129640000Y-48030000D01*
X129640000Y-48030000D02*
X124200000Y-48030000D01*
X128860000Y-50970000D02*
X128860000Y-48030000D01*
X128740000Y-50970000D02*
X128740000Y-48030000D01*
X128620000Y-50970000D02*
X128620000Y-48030000D01*
X124200000Y-50970000D02*
X129640000Y-50970000D01*
X124200000Y-48030000D02*
X124200000Y-50970000D01*
X123180000Y-49500000D02*
X124200000Y-49500000D01*
%TO.C,J1*%
X191520000Y-76470000D02*
X189520000Y-76470000D01*
X191520000Y-71230000D02*
X191520000Y-76470000D01*
X189520000Y-77020000D02*
X187000000Y-77020000D01*
X189520000Y-76470000D02*
X189520000Y-77020000D01*
X189520000Y-71230000D02*
X191520000Y-71230000D01*
X189520000Y-70680000D02*
X189520000Y-71230000D01*
X185400000Y-77020000D02*
X184000000Y-77020000D01*
X182400000Y-77020000D02*
X180000000Y-77020000D01*
X178900000Y-70680000D02*
X189520000Y-70680000D01*
X178900000Y-69350000D02*
X178900000Y-70680000D01*
X177180000Y-77020000D02*
X178400000Y-77020000D01*
X177180000Y-77020000D02*
X177180000Y-69350000D01*
%TO.C,D3*%
X73660000Y-68500000D02*
X72640000Y-68500000D01*
X72640000Y-69970000D02*
X72640000Y-67030000D01*
X72640000Y-67030000D02*
X67200000Y-67030000D01*
X71860000Y-69970000D02*
X71860000Y-67030000D01*
X71740000Y-69970000D02*
X71740000Y-67030000D01*
X71620000Y-69970000D02*
X71620000Y-67030000D01*
X67200000Y-69970000D02*
X72640000Y-69970000D01*
X67200000Y-67030000D02*
X67200000Y-69970000D01*
X66180000Y-68500000D02*
X67200000Y-68500000D01*
D10*
%TO.C,SW1*%
X63000000Y-33000000D02*
X64000000Y-33000000D01*
X63000000Y-34000000D02*
X63000000Y-33000000D01*
X63000000Y-47000000D02*
X63000000Y-46000000D01*
X64000000Y-47000000D02*
X63000000Y-47000000D01*
X76000000Y-33000000D02*
X77000000Y-33000000D01*
X77000000Y-33000000D02*
X77000000Y-34000000D01*
X77000000Y-46000000D02*
X77000000Y-47000000D01*
X77000000Y-47000000D02*
X76000000Y-47000000D01*
D12*
%TO.C,R2*%
X182410000Y-93400000D02*
X181640000Y-93400000D01*
X181640000Y-94770000D02*
X181640000Y-92030000D01*
X181640000Y-92030000D02*
X175100000Y-92030000D01*
X175100000Y-94770000D02*
X181640000Y-94770000D01*
X175100000Y-92030000D02*
X175100000Y-94770000D01*
X174330000Y-93400000D02*
X175100000Y-93400000D01*
%TO.C,D9*%
X111660000Y-30500000D02*
X110640000Y-30500000D01*
X110640000Y-31970000D02*
X110640000Y-29030000D01*
X110640000Y-29030000D02*
X105200000Y-29030000D01*
X109860000Y-31970000D02*
X109860000Y-29030000D01*
X109740000Y-31970000D02*
X109740000Y-29030000D01*
X109620000Y-31970000D02*
X109620000Y-29030000D01*
X105200000Y-31970000D02*
X110640000Y-31970000D01*
X105200000Y-29030000D02*
X105200000Y-31970000D01*
X104180000Y-30500000D02*
X105200000Y-30500000D01*
%TO.C,D20*%
X175848023Y-109690331D02*
X175139471Y-108956604D01*
X174082042Y-109977752D02*
X176196901Y-107935456D01*
X176196901Y-107935456D02*
X172417959Y-104022248D01*
X173540208Y-109416667D02*
X175655067Y-107374371D01*
X173456849Y-109330346D02*
X175571708Y-107288050D01*
X173373490Y-109244025D02*
X175488349Y-107201730D01*
X170303100Y-106064543D02*
X174082042Y-109977752D01*
X172417959Y-104022248D02*
X170303100Y-106064543D01*
X170651978Y-104309669D02*
X171360530Y-105043396D01*
D10*
%TO.C,SW2*%
X63000000Y-52000000D02*
X64000000Y-52000000D01*
X63000000Y-53000000D02*
X63000000Y-52000000D01*
X63000000Y-66000000D02*
X63000000Y-65000000D01*
X64000000Y-66000000D02*
X63000000Y-66000000D01*
X76000000Y-52000000D02*
X77000000Y-52000000D01*
X77000000Y-52000000D02*
X77000000Y-53000000D01*
X77000000Y-65000000D02*
X77000000Y-66000000D01*
X77000000Y-66000000D02*
X76000000Y-66000000D01*
%TO.C,SW10*%
X101000000Y-52000000D02*
X102000000Y-52000000D01*
X101000000Y-53000000D02*
X101000000Y-52000000D01*
X101000000Y-66000000D02*
X101000000Y-65000000D01*
X102000000Y-66000000D02*
X101000000Y-66000000D01*
X114000000Y-52000000D02*
X115000000Y-52000000D01*
X115000000Y-52000000D02*
X115000000Y-53000000D01*
X115000000Y-65000000D02*
X115000000Y-66000000D01*
X115000000Y-66000000D02*
X114000000Y-66000000D01*
D12*
%TO.C,D13*%
X130660000Y-30500000D02*
X129640000Y-30500000D01*
X129640000Y-31970000D02*
X129640000Y-29030000D01*
X129640000Y-29030000D02*
X124200000Y-29030000D01*
X128860000Y-31970000D02*
X128860000Y-29030000D01*
X128740000Y-31970000D02*
X128740000Y-29030000D01*
X128620000Y-31970000D02*
X128620000Y-29030000D01*
X124200000Y-31970000D02*
X129640000Y-31970000D01*
X124200000Y-29030000D02*
X124200000Y-31970000D01*
X123180000Y-30500000D02*
X124200000Y-30500000D01*
D10*
%TO.C,SW18*%
X139000000Y-52000000D02*
X140000000Y-52000000D01*
X139000000Y-53000000D02*
X139000000Y-52000000D01*
X139000000Y-66000000D02*
X139000000Y-65000000D01*
X140000000Y-66000000D02*
X139000000Y-66000000D01*
X152000000Y-52000000D02*
X153000000Y-52000000D01*
X153000000Y-52000000D02*
X153000000Y-53000000D01*
X153000000Y-65000000D02*
X153000000Y-66000000D01*
X153000000Y-66000000D02*
X152000000Y-66000000D01*
D12*
%TO.C,D19*%
X149660000Y-68500000D02*
X148640000Y-68500000D01*
X148640000Y-69970000D02*
X148640000Y-67030000D01*
X148640000Y-67030000D02*
X143200000Y-67030000D01*
X147860000Y-69970000D02*
X147860000Y-67030000D01*
X147740000Y-69970000D02*
X147740000Y-67030000D01*
X147620000Y-69970000D02*
X147620000Y-67030000D01*
X143200000Y-69970000D02*
X148640000Y-69970000D01*
X143200000Y-67030000D02*
X143200000Y-69970000D01*
X142180000Y-68500000D02*
X143200000Y-68500000D01*
%TO.C,D7*%
X92660000Y-68500000D02*
X91640000Y-68500000D01*
X91640000Y-69970000D02*
X91640000Y-67030000D01*
X91640000Y-67030000D02*
X86200000Y-67030000D01*
X90860000Y-69970000D02*
X90860000Y-67030000D01*
X90740000Y-69970000D02*
X90740000Y-67030000D01*
X90620000Y-69970000D02*
X90620000Y-67030000D01*
X86200000Y-69970000D02*
X91640000Y-69970000D01*
X86200000Y-67030000D02*
X86200000Y-69970000D01*
X85180000Y-68500000D02*
X86200000Y-68500000D01*
D10*
%TO.C,SW8*%
X101000000Y-90000000D02*
X102000000Y-90000000D01*
X101000000Y-91000000D02*
X101000000Y-90000000D01*
X101000000Y-104000000D02*
X101000000Y-103000000D01*
X102000000Y-104000000D02*
X101000000Y-104000000D01*
X114000000Y-90000000D02*
X115000000Y-90000000D01*
X115000000Y-90000000D02*
X115000000Y-91000000D01*
X115000000Y-103000000D02*
X115000000Y-104000000D01*
X115000000Y-104000000D02*
X114000000Y-104000000D01*
D12*
%TO.C,D23*%
X168660000Y-68500000D02*
X167640000Y-68500000D01*
X167640000Y-69970000D02*
X167640000Y-67030000D01*
X167640000Y-67030000D02*
X162200000Y-67030000D01*
X166860000Y-69970000D02*
X166860000Y-67030000D01*
X166740000Y-69970000D02*
X166740000Y-67030000D01*
X166620000Y-69970000D02*
X166620000Y-67030000D01*
X162200000Y-69970000D02*
X167640000Y-69970000D01*
X162200000Y-67030000D02*
X162200000Y-69970000D01*
X161180000Y-68500000D02*
X162200000Y-68500000D01*
%TD*%
M02*
