M48
; DRILL file {KiCad 7.0.9} date Saturday, December 16, 2023 at 12:05:52 AM
; FORMAT={-:-/ absolute / metric / decimal}
; #@! TF.CreationDate,2023-12-16T00:05:52+09:00
; #@! TF.GenerationSoftware,Kicad,Pcbnew,7.0.9
; #@! TF.FileFunction,NonPlated,1,2,NPTH
FMAT,2
METRIC
; #@! TA.AperFunction,NonPlated,NPTH,ComponentDrill
T1C1.600
; #@! TA.AperFunction,NonPlated,NPTH,ComponentDrill
T2C1.702
; #@! TA.AperFunction,NonPlated,NPTH,ComponentDrill
T3C2.200
; #@! TA.AperFunction,NonPlated,NPTH,ComponentDrill
T4C3.988
%
G90
G05
T1
X180.8Y-71.1
X180.8Y-73.85
X187.8Y-71.1
X187.8Y-73.85
T2
X64.92Y-40.0
X64.92Y-59.0
X64.92Y-78.0
X75.08Y-40.0
X75.08Y-59.0
X75.08Y-78.0
X83.92Y-40.0
X83.92Y-59.0
X83.92Y-78.0
X83.92Y-97.0
X94.08Y-40.0
X94.08Y-59.0
X94.08Y-78.0
X94.08Y-97.0
X102.92Y-40.0
X102.92Y-59.0
X102.92Y-78.0
X102.92Y-97.0
X113.08Y-40.0
X113.08Y-59.0
X113.08Y-78.0
X113.08Y-97.0
X121.92Y-40.0
X121.92Y-59.0
X121.92Y-78.0
X121.92Y-97.0
X132.08Y-40.0
X132.08Y-59.0
X132.08Y-78.0
X132.08Y-97.0
X140.92Y-40.0
X140.92Y-59.0
X140.92Y-78.0
X143.814Y-99.387
X151.08Y-40.0
X151.08Y-59.0
X151.08Y-78.0
X153.166Y-103.357
X159.92Y-40.0
X159.92Y-59.0
X159.92Y-78.0
X163.035Y-110.14
X170.08Y-40.0
X170.08Y-59.0
X170.08Y-78.0
X170.093Y-117.448
X176.526Y-127.547
X180.167Y-137.032
T3
X79.5Y-49.5
X79.5Y-87.5
X155.5Y-49.5
X180.5Y-106.5
T4
X70.0Y-40.0
X70.0Y-59.0
X70.0Y-78.0
X89.0Y-40.0
X89.0Y-59.0
X89.0Y-78.0
X89.0Y-97.0
X108.0Y-40.0
X108.0Y-59.0
X108.0Y-78.0
X108.0Y-97.0
X127.0Y-40.0
X127.0Y-59.0
X127.0Y-78.0
X127.0Y-97.0
X146.0Y-40.0
X146.0Y-59.0
X146.0Y-78.0
X148.49Y-101.372
X165.0Y-40.0
X165.0Y-59.0
X165.0Y-78.0
X166.564Y-113.794
X178.347Y-132.29
T0
M30
