M48
; DRILL file {KiCad 7.0.9} date Saturday, December 16, 2023 at 12:05:52 AM
; FORMAT={-:-/ absolute / metric / decimal}
; #@! TF.CreationDate,2023-12-16T00:05:52+09:00
; #@! TF.GenerationSoftware,Kicad,Pcbnew,7.0.9
; #@! TF.FileFunction,Plated,1,2,PTH
FMAT,2
METRIC
; #@! TA.AperFunction,Plated,PTH,ViaDrill
T1C0.400
; #@! TA.AperFunction,Plated,PTH,ComponentDrill
T2C0.700
; #@! TA.AperFunction,Plated,PTH,ComponentDrill
T3C0.800
; #@! TA.AperFunction,Plated,PTH,ComponentDrill
T4C1.100
; #@! TA.AperFunction,Plated,PTH,ComponentDrill
T5C1.499
%
G90
G05
T1
X64.85Y-83.55
X79.85Y-37.55
X79.85Y-58.55
X79.85Y-74.55
X98.85Y-37.55
X98.85Y-58.55
X98.85Y-74.55
X117.85Y-37.55
X117.85Y-58.55
X117.85Y-74.55
X136.85Y-37.55
X136.85Y-58.55
X136.85Y-74.55
X154.85Y-86.55
X155.85Y-37.55
X155.85Y-58.55
X155.85Y-74.55
X163.85Y-99.55
X181.85Y-118.55
X185.85Y-35.55
X192.85Y-67.55
T3
X173.29Y-90.35
X173.29Y-93.4
X178.38Y-36.3
X178.38Y-38.84
X178.38Y-41.38
X178.38Y-43.92
X178.38Y-46.46
X178.38Y-49.0
X178.38Y-51.54
X178.38Y-54.08
X178.38Y-56.62
X178.38Y-59.16
X178.38Y-61.7
X178.38Y-64.24
X183.45Y-90.35
X183.45Y-93.4
X193.62Y-36.3
X193.62Y-38.84
X193.62Y-41.38
X193.62Y-43.92
X193.62Y-46.46
X193.62Y-49.0
X193.62Y-51.54
X193.62Y-54.08
X193.62Y-56.62
X193.62Y-59.16
X193.62Y-61.7
X193.62Y-64.24
T4
X64.84Y-68.5
X64.92Y-30.5
X64.92Y-49.5
X75.0Y-68.5
X75.08Y-30.5
X75.08Y-49.5
X83.84Y-30.5
X83.84Y-49.5
X83.84Y-68.5
X83.84Y-87.5
X94.0Y-30.5
X94.0Y-49.5
X94.0Y-68.5
X94.0Y-87.5
X102.84Y-30.5
X102.84Y-49.5
X102.84Y-68.5
X102.84Y-87.5
X113.0Y-30.5
X113.0Y-49.5
X113.0Y-68.5
X113.0Y-87.5
X121.84Y-30.5
X121.84Y-49.5
X121.84Y-68.5
X121.84Y-87.5
X132.0Y-30.5
X132.0Y-49.5
X132.0Y-68.5
X132.0Y-87.5
X140.84Y-30.5
X140.84Y-49.5
X140.84Y-68.5
X147.574Y-90.765
X151.0Y-30.5
X151.0Y-49.5
X151.0Y-68.5
X156.926Y-94.735
X159.84Y-30.5
X159.84Y-49.5
X159.84Y-68.5
X169.721Y-103.346
X170.0Y-30.5
X170.0Y-49.5
X170.0Y-68.5
X176.779Y-110.654
X178.25Y-81.45
X178.25Y-85.95
X184.609Y-123.865
X184.75Y-81.45
X184.75Y-85.95
X188.25Y-133.35
T5
X66.19Y-37.46
X66.19Y-56.46
X66.19Y-75.46
X67.46Y-34.92
X67.46Y-53.92
X67.46Y-72.92
X72.54Y-34.92
X72.54Y-53.92
X72.54Y-72.92
X73.81Y-37.46
X73.81Y-56.46
X73.81Y-75.46
X85.19Y-37.46
X85.19Y-56.46
X85.19Y-75.46
X85.19Y-94.46
X86.46Y-34.92
X86.46Y-53.92
X86.46Y-72.92
X86.46Y-91.92
X91.54Y-34.92
X91.54Y-53.92
X91.54Y-72.92
X91.54Y-91.92
X92.81Y-37.46
X92.81Y-56.46
X92.81Y-75.46
X92.81Y-94.46
X104.19Y-37.46
X104.19Y-56.46
X104.19Y-75.46
X104.19Y-94.46
X105.46Y-34.92
X105.46Y-53.92
X105.46Y-72.92
X105.46Y-91.92
X110.54Y-34.92
X110.54Y-53.92
X110.54Y-72.92
X110.54Y-91.92
X111.81Y-37.46
X111.81Y-56.46
X111.81Y-75.46
X111.81Y-94.46
X123.19Y-37.46
X123.19Y-56.46
X123.19Y-75.46
X123.19Y-94.46
X124.46Y-34.92
X124.46Y-53.92
X124.46Y-72.92
X124.46Y-91.92
X129.54Y-34.92
X129.54Y-53.92
X129.54Y-72.92
X129.54Y-91.92
X130.81Y-37.46
X130.81Y-56.46
X130.81Y-75.46
X130.81Y-94.46
X142.19Y-37.46
X142.19Y-56.46
X142.19Y-75.46
X143.46Y-34.92
X143.46Y-53.92
X143.46Y-72.92
X145.976Y-97.545
X148.137Y-95.704
X148.54Y-34.92
X148.54Y-53.92
X148.54Y-72.92
X149.81Y-37.46
X149.81Y-56.46
X149.81Y-75.46
X152.813Y-97.689
X152.99Y-100.523
X161.19Y-37.46
X161.19Y-56.46
X161.19Y-75.46
X162.46Y-34.92
X162.46Y-53.92
X162.46Y-72.92
X165.744Y-109.289
X167.54Y-34.92
X167.54Y-53.92
X167.54Y-72.92
X168.454Y-108.438
X168.81Y-37.46
X168.81Y-56.46
X168.81Y-75.46
X171.037Y-114.77
X171.982Y-112.092
X179.353Y-127.823
X182.084Y-134.936
X182.179Y-128.098
X184.0Y-132.841
T2
G00X178.35Y-71.6
M15
G01X177.85Y-71.6
M16
G05
G00X178.35Y-73.35
M15
G01X177.85Y-73.35
M16
G05
G00X179.45Y-68.85
M15
G01X178.95Y-68.85
M16
G05
G00X179.45Y-76.1
M15
G01X178.95Y-76.1
M16
G05
G00X183.45Y-68.85
M15
G01X182.95Y-68.85
M16
G05
G00X183.45Y-76.1
M15
G01X182.95Y-76.1
M16
G05
G00X186.45Y-68.85
M15
G01X185.95Y-68.85
M16
G05
G00X186.45Y-76.1
M15
G01X185.95Y-76.1
M16
G05
T0
M30
