%TF.GenerationSoftware,KiCad,Pcbnew,7.0.9*%
%TF.CreationDate,2023-12-16T00:05:46+09:00*%
%TF.ProjectId,Focus,466f6375-732e-46b6-9963-61645f706362,rev?*%
%TF.SameCoordinates,Original*%
%TF.FileFunction,Soldermask,Top*%
%TF.FilePolarity,Negative*%
%FSLAX46Y46*%
G04 Gerber Fmt 4.6, Leading zero omitted, Abs format (unit mm)*
G04 Created by KiCad (PCBNEW 7.0.9) date 2023-12-16 00:05:46*
%MOMM*%
%LPD*%
G01*
G04 APERTURE LIST*
G04 Aperture macros list*
%AMHorizOval*
0 Thick line with rounded ends*
0 $1 width*
0 $2 $3 position (X,Y) of the first rounded end (center of the circle)*
0 $4 $5 position (X,Y) of the second rounded end (center of the circle)*
0 Add line between two ends*
20,1,$1,$2,$3,$4,$5,0*
0 Add two circle primitives to create the rounded ends*
1,1,$1,$2,$3*
1,1,$1,$4,$5*%
%AMRotRect*
0 Rectangle, with rotation*
0 The origin of the aperture is its center*
0 $1 length*
0 $2 width*
0 $3 Rotation angle, in degrees counterclockwise*
0 Add horizontal line*
21,1,$1,$2,0,0,$3*%
G04 Aperture macros list end*
%ADD10R,2.200000X2.200000*%
%ADD11O,2.200000X2.200000*%
%ADD12C,1.701800*%
%ADD13C,3.987800*%
%ADD14C,2.286000*%
%ADD15C,2.200000*%
%ADD16RotRect,2.200000X2.200000X157.000000*%
%ADD17HorizOval,2.200000X0.000000X0.000000X0.000000X0.000000X0*%
%ADD18C,2.000000*%
%ADD19RotRect,2.200000X2.200000X111.000000*%
%ADD20HorizOval,2.200000X0.000000X0.000000X0.000000X0.000000X0*%
%ADD21C,1.600000*%
%ADD22O,1.600000X1.600000*%
%ADD23R,1.600000X1.600000*%
%ADD24R,1.700000X2.000000*%
%ADD25RotRect,2.200000X2.200000X134.000000*%
%ADD26HorizOval,2.200000X0.000000X0.000000X0.000000X0.000000X0*%
G04 APERTURE END LIST*
D10*
%TO.C,D12*%
X132000000Y-87500000D03*
D11*
X121840000Y-87500000D03*
%TD*%
D12*
%TO.C,SW4*%
X83920000Y-97000000D03*
D13*
X89000000Y-97000000D03*
D12*
X94080000Y-97000000D03*
D14*
X85190000Y-94460000D03*
X86460000Y-91920000D03*
X91540000Y-91920000D03*
X92810000Y-94460000D03*
%TD*%
D10*
%TO.C,D8*%
X113000000Y-87500000D03*
D11*
X102840000Y-87500000D03*
%TD*%
D12*
%TO.C,SW19*%
X140920000Y-78000000D03*
D13*
X146000000Y-78000000D03*
D12*
X151080000Y-78000000D03*
D14*
X142190000Y-75460000D03*
X143460000Y-72920000D03*
X148540000Y-72920000D03*
X149810000Y-75460000D03*
%TD*%
D10*
%TO.C,D17*%
X151000000Y-30500000D03*
D11*
X140840000Y-30500000D03*
%TD*%
D10*
%TO.C,D21*%
X170000000Y-30500000D03*
D11*
X159840000Y-30500000D03*
%TD*%
D15*
%TO.C,H1*%
X79500000Y-49500000D03*
%TD*%
D12*
%TO.C,SW13*%
X121920000Y-40000000D03*
D13*
X127000000Y-40000000D03*
D12*
X132080000Y-40000000D03*
D14*
X123190000Y-37460000D03*
X124460000Y-34920000D03*
X129540000Y-34920000D03*
X130810000Y-37460000D03*
%TD*%
D12*
%TO.C,SW9*%
X102920000Y-40000000D03*
D13*
X108000000Y-40000000D03*
D12*
X113080000Y-40000000D03*
D14*
X104190000Y-37460000D03*
X105460000Y-34920000D03*
X110540000Y-34920000D03*
X111810000Y-37460000D03*
%TD*%
D12*
%TO.C,SW5*%
X83920000Y-40000000D03*
D13*
X89000000Y-40000000D03*
D12*
X94080000Y-40000000D03*
D14*
X85190000Y-37460000D03*
X86460000Y-34920000D03*
X91540000Y-34920000D03*
X92810000Y-37460000D03*
%TD*%
D10*
%TO.C,D5*%
X94000000Y-30500000D03*
D11*
X83840000Y-30500000D03*
%TD*%
D10*
%TO.C,D4*%
X94000000Y-87500000D03*
D11*
X83840000Y-87500000D03*
%TD*%
D16*
%TO.C,D16*%
X156926165Y-94734914D03*
D17*
X147573836Y-90765086D03*
%TD*%
D12*
%TO.C,SW17*%
X140920000Y-40000000D03*
D13*
X146000000Y-40000000D03*
D12*
X151080000Y-40000000D03*
D14*
X142190000Y-37460000D03*
X143460000Y-34920000D03*
X148540000Y-34920000D03*
X149810000Y-37460000D03*
%TD*%
D12*
%TO.C,SW14*%
X121920000Y-59000000D03*
D13*
X127000000Y-59000000D03*
D12*
X132080000Y-59000000D03*
D14*
X123190000Y-56460000D03*
X124460000Y-53920000D03*
X129540000Y-53920000D03*
X130810000Y-56460000D03*
%TD*%
D12*
%TO.C,SW15*%
X121920000Y-78000000D03*
D13*
X127000000Y-78000000D03*
D12*
X132080000Y-78000000D03*
D14*
X123190000Y-75460000D03*
X124460000Y-72920000D03*
X129540000Y-72920000D03*
X130810000Y-75460000D03*
%TD*%
D12*
%TO.C,SW21*%
X159920000Y-40000000D03*
D13*
X165000000Y-40000000D03*
D12*
X170080000Y-40000000D03*
D14*
X161190000Y-37460000D03*
X162460000Y-34920000D03*
X167540000Y-34920000D03*
X168810000Y-37460000D03*
%TD*%
D10*
%TO.C,D15*%
X132000000Y-68500000D03*
D11*
X121840000Y-68500000D03*
%TD*%
D12*
%TO.C,SW3*%
X64920000Y-78000000D03*
D13*
X70000000Y-78000000D03*
D12*
X75080000Y-78000000D03*
D14*
X66190000Y-75460000D03*
X67460000Y-72920000D03*
X72540000Y-72920000D03*
X73810000Y-75460000D03*
%TD*%
D12*
%TO.C,SW7*%
X83920000Y-78000000D03*
D13*
X89000000Y-78000000D03*
D12*
X94080000Y-78000000D03*
D14*
X85190000Y-75460000D03*
X86460000Y-72920000D03*
X91540000Y-72920000D03*
X92810000Y-75460000D03*
%TD*%
D15*
%TO.C,H3*%
X155500000Y-49500000D03*
%TD*%
D18*
%TO.C,SW25*%
X178250000Y-81450000D03*
X184750000Y-81450000D03*
X178250000Y-85950000D03*
X184750000Y-85950000D03*
%TD*%
D19*
%TO.C,D24*%
X188250000Y-133350000D03*
D20*
X184608982Y-123864823D03*
%TD*%
D10*
%TO.C,D11*%
X113000000Y-68500000D03*
D11*
X102840000Y-68500000D03*
%TD*%
D21*
%TO.C,R1*%
X183450000Y-90350000D03*
D22*
X173290000Y-90350000D03*
%TD*%
D12*
%TO.C,SW20*%
X163034824Y-110139544D03*
D13*
X166563689Y-113793790D03*
D12*
X170092554Y-117448036D03*
D14*
X165744164Y-109288673D03*
X168453503Y-108437802D03*
X171982367Y-112092049D03*
X171037460Y-114770042D03*
%TD*%
D10*
%TO.C,D18*%
X151000000Y-49500000D03*
D11*
X140840000Y-49500000D03*
%TD*%
D10*
%TO.C,D2*%
X75080000Y-49500000D03*
D11*
X64920000Y-49500000D03*
%TD*%
D10*
%TO.C,D6*%
X94000000Y-49500000D03*
D11*
X83840000Y-49500000D03*
%TD*%
D12*
%TO.C,SW12*%
X121920000Y-97000000D03*
D13*
X127000000Y-97000000D03*
D12*
X132080000Y-97000000D03*
D14*
X123190000Y-94460000D03*
X124460000Y-91920000D03*
X129540000Y-91920000D03*
X130810000Y-94460000D03*
%TD*%
D12*
%TO.C,SW6*%
X83920000Y-59000000D03*
D13*
X89000000Y-59000000D03*
D12*
X94080000Y-59000000D03*
D14*
X85190000Y-56460000D03*
X86460000Y-53920000D03*
X91540000Y-53920000D03*
X92810000Y-56460000D03*
%TD*%
D10*
%TO.C,D22*%
X170000000Y-49500000D03*
D11*
X159840000Y-49500000D03*
%TD*%
D15*
%TO.C,H4*%
X180500000Y-106500000D03*
%TD*%
D12*
%TO.C,SW23*%
X159920000Y-78000000D03*
D13*
X165000000Y-78000000D03*
D12*
X170080000Y-78000000D03*
D14*
X161190000Y-75460000D03*
X162460000Y-72920000D03*
X167540000Y-72920000D03*
X168810000Y-75460000D03*
%TD*%
D12*
%TO.C,SW24*%
X176526414Y-127547174D03*
D13*
X178346923Y-132289763D03*
D12*
X180167432Y-137032352D03*
D14*
X179352835Y-127822567D03*
X182179257Y-128097960D03*
X183999766Y-132840548D03*
X182083599Y-134936450D03*
%TD*%
D12*
%TO.C,SW22*%
X159920000Y-59000000D03*
D13*
X165000000Y-59000000D03*
D12*
X170080000Y-59000000D03*
D14*
X161190000Y-56460000D03*
X162460000Y-53920000D03*
X167540000Y-53920000D03*
X168810000Y-56460000D03*
%TD*%
D10*
%TO.C,D1*%
X75080000Y-30500000D03*
D11*
X64920000Y-30500000D03*
%TD*%
D10*
%TO.C,D10*%
X113000000Y-49500000D03*
D11*
X102840000Y-49500000D03*
%TD*%
D12*
%TO.C,SW16*%
X143814047Y-99387319D03*
D13*
X148490212Y-101372233D03*
D12*
X153166377Y-103357147D03*
D14*
X145975546Y-97545465D03*
X148137044Y-95703611D03*
X152813208Y-97688525D03*
X152989793Y-100522836D03*
%TD*%
D12*
%TO.C,SW11*%
X102920000Y-78000000D03*
D13*
X108000000Y-78000000D03*
D12*
X113080000Y-78000000D03*
D14*
X104190000Y-75460000D03*
X105460000Y-72920000D03*
X110540000Y-72920000D03*
X111810000Y-75460000D03*
%TD*%
D23*
%TO.C,U1*%
X178380000Y-36300000D03*
D22*
X178380000Y-38840000D03*
X178380000Y-41380000D03*
X178380000Y-43920000D03*
X178380000Y-46460000D03*
X178380000Y-49000000D03*
X178380000Y-51540000D03*
X178380000Y-54080000D03*
X178380000Y-56620000D03*
X178380000Y-59160000D03*
X178380000Y-61700000D03*
X178380000Y-64240000D03*
X193620000Y-64240000D03*
X193620000Y-61700000D03*
X193620000Y-59160000D03*
X193620000Y-56620000D03*
X193620000Y-54080000D03*
X193620000Y-51540000D03*
X193620000Y-49000000D03*
X193620000Y-46460000D03*
X193620000Y-43920000D03*
X193620000Y-41380000D03*
X193620000Y-38840000D03*
X193620000Y-36300000D03*
%TD*%
D10*
%TO.C,D14*%
X132000000Y-49500000D03*
D11*
X121840000Y-49500000D03*
%TD*%
D21*
%TO.C,J1*%
X187800000Y-73850000D03*
X180800000Y-73850000D03*
D24*
X183200000Y-76100000D03*
X186200000Y-76100000D03*
X178100000Y-71600000D03*
X179200000Y-76100000D03*
%TD*%
D10*
%TO.C,D3*%
X75000000Y-68500000D03*
D11*
X64840000Y-68500000D03*
%TD*%
D12*
%TO.C,SW1*%
X64920000Y-40000000D03*
D13*
X70000000Y-40000000D03*
D12*
X75080000Y-40000000D03*
D14*
X66190000Y-37460000D03*
X67460000Y-34920000D03*
X72540000Y-34920000D03*
X73810000Y-37460000D03*
%TD*%
D21*
%TO.C,R2*%
X183450000Y-93400000D03*
D22*
X173290000Y-93400000D03*
%TD*%
D10*
%TO.C,D9*%
X113000000Y-30500000D03*
D11*
X102840000Y-30500000D03*
%TD*%
D25*
%TO.C,D20*%
X176778865Y-110654246D03*
D26*
X169721136Y-103345754D03*
%TD*%
D15*
%TO.C,H2*%
X79500000Y-87500000D03*
%TD*%
D12*
%TO.C,SW2*%
X64920000Y-59000000D03*
D13*
X70000000Y-59000000D03*
D12*
X75080000Y-59000000D03*
D14*
X66190000Y-56460000D03*
X67460000Y-53920000D03*
X72540000Y-53920000D03*
X73810000Y-56460000D03*
%TD*%
D12*
%TO.C,SW10*%
X102920000Y-59000000D03*
D13*
X108000000Y-59000000D03*
D12*
X113080000Y-59000000D03*
D14*
X104190000Y-56460000D03*
X105460000Y-53920000D03*
X110540000Y-53920000D03*
X111810000Y-56460000D03*
%TD*%
D10*
%TO.C,D13*%
X132000000Y-30500000D03*
D11*
X121840000Y-30500000D03*
%TD*%
D12*
%TO.C,SW18*%
X140920000Y-59000000D03*
D13*
X146000000Y-59000000D03*
D12*
X151080000Y-59000000D03*
D14*
X142190000Y-56460000D03*
X143460000Y-53920000D03*
X148540000Y-53920000D03*
X149810000Y-56460000D03*
%TD*%
D10*
%TO.C,D19*%
X151000000Y-68500000D03*
D11*
X140840000Y-68500000D03*
%TD*%
D10*
%TO.C,D7*%
X94000000Y-68500000D03*
D11*
X83840000Y-68500000D03*
%TD*%
D12*
%TO.C,SW8*%
X102920000Y-97000000D03*
D13*
X108000000Y-97000000D03*
D12*
X113080000Y-97000000D03*
D14*
X104190000Y-94460000D03*
X105460000Y-91920000D03*
X110540000Y-91920000D03*
X111810000Y-94460000D03*
%TD*%
D10*
%TO.C,D23*%
X170000000Y-68500000D03*
D11*
X159840000Y-68500000D03*
%TD*%
D21*
%TO.C,J2*%
X187800000Y-71100000D03*
X180800000Y-71100000D03*
D24*
X183200000Y-68850000D03*
X186200000Y-68850000D03*
X178100000Y-73350000D03*
X179200000Y-68850000D03*
%TD*%
M02*
